<svg width="170" height="169" viewBox="0 0 170 169" fill="none" xmlns="http://www.w3.org/2000/svg">
<mask id="mask0_129_3746" style="mask-type:luminance" maskUnits="userSpaceOnUse" x="0" y="0" width="170" height="169">
<path d="M169.908 0H0.907959V169H169.908V0Z" fill="white"/>
</mask>
<g mask="url(#mask0_129_3746)">
<mask id="mask1_129_3746" style="mask-type:luminance" maskUnits="userSpaceOnUse" x="0" y="0" width="170" height="169">
<path d="M169.908 0H0.907959V169H169.908V0Z" fill="white"/>
</mask>
<g mask="url(#mask1_129_3746)">
<path d="M49.4479 100.85C48.2499 100.842 47.0975 101.309 46.2429 102.149C45.3883 102.988 44.9011 104.132 44.8879 105.33V105.55H54.1379C54.11 104.314 53.6072 103.136 52.7339 102.261C51.8606 101.386 50.6838 100.881 49.4479 100.85ZM48.0279 96.7501H50.5279C52.0455 96.7457 53.5411 97.1135 54.8835 97.8213C56.2259 98.5291 57.3743 99.5554 58.2279 100.81C60.1479 103.64 59.5679 106.09 59.8579 109.32H44.9079V109.42C44.9025 110.63 45.3759 111.792 46.2245 112.654C47.0732 113.516 48.2285 114.007 49.4379 114.02C50.0819 114.019 50.718 113.879 51.303 113.61C51.8881 113.341 52.4081 112.949 52.8279 112.46H59.1179C58.5098 114.277 57.3493 115.859 55.7985 116.985C54.2478 118.111 52.3842 118.725 50.4679 118.74H48.3979C45.9533 118.714 43.6186 117.721 41.9041 115.978C40.1895 114.235 39.2346 111.885 39.2479 109.44V105.77C39.2926 103.357 40.2866 101.059 42.0145 99.3745C43.7423 97.6897 46.0647 96.7539 48.4779 96.7701M109.788 132.31C108.591 132.305 107.44 132.772 106.586 133.612C105.732 134.451 105.244 135.593 105.228 136.79V137H114.488C114.458 135.765 113.954 134.588 113.081 133.714C112.208 132.839 111.033 132.333 109.798 132.3M108.998 128.2H110.868C112.386 128.196 113.881 128.563 115.223 129.271C116.566 129.979 117.714 131.005 118.568 132.26C120.488 135.09 119.918 137.54 120.198 140.77H105.198V140.87C105.193 142.08 105.666 143.242 106.515 144.104C107.363 144.966 108.518 145.457 109.728 145.47C110.372 145.47 111.009 145.331 111.594 145.062C112.179 144.792 112.699 144.4 113.118 143.91H119.408C118.802 145.729 117.643 147.313 116.091 148.439C114.54 149.565 112.675 150.178 110.758 150.19H108.688C106.246 150.164 103.914 149.172 102.201 147.431C100.488 145.69 99.5346 143.342 99.5479 140.9V137.16C99.5769 134.739 100.563 132.429 102.291 130.733C104.018 129.037 106.347 128.094 108.768 128.11M97.6579 133.86H95.2279C95.2279 133.86 92.8079 134.09 91.9779 134.92C91.5435 135.323 91.2068 135.82 90.9937 136.373C90.7805 136.926 90.6965 137.52 90.7479 138.11V149.56H85.0979V138.34C85.1012 137.077 85.3608 135.827 85.861 134.667C86.3611 133.507 87.0915 132.46 88.0079 131.59C89.8895 129.784 92.3996 128.78 95.0079 128.79H97.6579V133.86ZM70.7179 149.56L63.7179 128.83H69.2779L73.5179 142.75L77.2079 130.62C77.3915 130.072 77.7506 129.6 78.2296 129.276C78.7086 128.953 79.2809 128.796 79.8579 128.83H83.3079L76.3079 149.56H70.7179ZM54.3079 121.25H59.9679V126.91H54.3079V121.25ZM54.3079 128.79H59.9679V149.52H54.3079V128.79ZM42.9979 149.52V124.45C42.9979 122.73 45.9979 121.26 48.6579 121.26V149.52H42.9979ZM112.738 108.14C110.738 108.14 105.178 109.14 105.178 112.14C105.214 112.904 105.549 113.623 106.11 114.143C106.671 114.663 107.413 114.942 108.178 114.92C109.329 114.964 110.45 114.551 111.299 113.772C112.147 112.993 112.653 111.911 112.708 110.76L112.738 108.14ZM106.458 96.7501H112.078C113.736 96.7395 115.33 97.3857 116.513 98.5476C117.695 99.7095 118.369 101.292 118.388 102.95V110.12V110.46C118.45 111.339 118.339 112.222 118.059 113.058C117.779 113.894 117.337 114.666 116.758 115.33C115.97 116.387 114.945 117.245 113.766 117.836C112.587 118.426 111.286 118.732 109.968 118.73H105.828C104.152 118.712 102.552 118.032 101.376 116.839C100.2 115.645 99.5425 114.036 99.5479 112.36V111.86C99.5479 106.76 104.338 105.48 108.618 105.48C109.9 105.454 111.134 104.984 112.108 104.15V101.56C111.508 100.82 110.328 100.49 108.728 100.49C106.078 100.49 105.308 102.25 105.308 103.65H100.168V103.07C100.202 101.441 100.876 99.8917 102.043 98.7558C103.211 97.62 104.779 96.9893 106.408 97.0001M154.828 101.78C153.672 101.783 152.563 102.239 151.74 103.05C150.918 103.862 150.446 104.964 150.428 106.12V109.56C150.428 110.727 150.891 111.846 151.717 112.671C152.542 113.497 153.661 113.96 154.828 113.96C155.995 113.96 157.114 113.497 157.939 112.671C158.764 111.846 159.228 110.727 159.228 109.56V106.12C159.21 104.964 158.738 103.862 157.915 103.05C157.092 102.239 155.984 101.783 154.828 101.78ZM154.108 96.7801H156.228C158.398 96.7705 160.503 97.5183 162.181 98.8948C163.859 100.271 165.003 102.19 165.418 104.32C165.51 104.852 165.557 105.39 165.558 105.93V109.64C165.558 109.96 165.558 110.28 165.508 110.64H165.558C165.283 112.903 164.186 114.987 162.474 116.493C160.763 118 158.558 118.824 156.278 118.81H154.108C151.829 118.822 149.624 117.997 147.914 116.491C146.203 114.984 145.105 112.903 144.828 110.64C144.828 110.32 144.828 110 144.828 109.64V105.9C144.828 105.36 144.875 104.822 144.968 104.29C145.384 102.161 146.529 100.243 148.207 98.8671C149.884 97.491 151.988 96.7424 154.158 96.7501L154.108 96.7801ZM135.978 105.08L135.788 104.69C135.466 103.848 134.898 103.123 134.158 102.609C133.417 102.096 132.539 101.817 131.638 101.81C130.451 101.818 129.317 102.296 128.482 103.14C127.648 103.984 127.183 105.124 127.188 106.31V109.87C127.183 111.057 127.648 112.197 128.482 113.04C129.317 113.884 130.451 114.362 131.638 114.37C132.654 114.366 133.638 114.014 134.427 113.374C135.217 112.734 135.764 111.844 135.978 110.85V105.08ZM130.488 97.0001C132.558 97.1432 134.507 98.0272 135.978 99.4901V93.8901C135.991 92.8333 136.416 91.8234 137.164 91.076C137.911 90.3287 138.921 89.9031 139.978 89.8901H141.588V110.62C141.309 112.885 140.207 114.969 138.492 116.475C136.778 117.981 134.57 118.805 132.288 118.79H130.178C127.73 118.812 125.372 117.863 123.62 116.153C121.869 114.442 120.865 112.108 120.828 109.66V106C120.87 103.588 121.862 101.29 123.588 99.6051C125.314 97.92 127.636 96.984 130.048 97.0001M86.2679 96.7801H88.0479C90.2168 96.7709 92.3208 97.5191 93.9968 98.8957C95.6728 100.272 96.8156 102.191 97.2279 104.32H90.9779C90.6709 103.459 90.1216 102.704 89.3961 102.147C88.6705 101.59 87.7996 101.254 86.8879 101.18C85.7367 101.172 84.629 101.62 83.8066 102.425C82.9841 103.231 82.5137 104.329 82.4979 105.48V109.55C82.5138 110.841 83.0403 112.073 83.9625 112.976C84.8846 113.88 86.1271 114.381 87.4179 114.37C88.5243 114.373 89.5993 114.003 90.4688 113.318C91.3382 112.634 91.951 111.676 92.2079 110.6H97.5079C97.2378 112.86 96.1459 114.942 94.4401 116.448C92.7342 117.955 90.5338 118.781 88.2579 118.77H86.1479C83.7066 118.784 81.3591 117.831 79.617 116.121C77.8749 114.411 76.8795 112.081 76.8479 109.64V106C76.89 103.588 77.8818 101.29 79.6081 99.6051C81.3343 97.92 83.6556 96.984 86.0679 97.0001M75.5879 101.81H72.5879C71.3926 101.807 70.2448 102.278 69.3959 103.12C68.5469 103.961 68.0659 105.105 68.0579 106.3V117.51H63.0579V106.3C63.0624 105.037 63.3225 103.788 63.8226 102.628C64.3227 101.467 65.0524 100.421 65.9679 99.5501C67.8518 97.7474 70.3604 96.7439 72.9679 96.7501H75.6179L75.5879 101.81ZM30.3579 117.51V105.27C30.3617 104.35 30.0024 103.466 29.3579 102.81C29.038 102.49 28.6574 102.236 28.2385 102.065C27.8195 101.893 27.3706 101.806 26.9179 101.81H26.2879C25.8366 101.806 25.3891 101.893 24.9717 102.064C24.5544 102.236 24.1757 102.49 23.8579 102.81C23.2134 103.466 22.8541 104.35 22.8579 105.27V117.48H17.8579V105.27C17.8585 104.351 17.4996 103.468 16.8579 102.81C16.538 102.49 16.1574 102.236 15.7385 102.065C15.3195 101.893 14.8706 101.806 14.4179 101.81H13.7879C13.3352 101.806 12.8863 101.893 12.4673 102.065C12.0484 102.236 11.6679 102.49 11.3479 102.81C10.7034 103.466 10.3441 104.35 10.3479 105.27V117.48H5.3479V105.25C5.3496 104.132 5.57426 103.026 6.00867 101.995C6.44308 100.965 7.0785 100.032 7.87787 99.2501C9.50759 97.6473 11.7021 96.7494 13.9879 96.7501H14.6379C16.9194 96.7462 19.1109 97.6407 20.7379 99.2401C22.3638 97.6388 24.5559 96.744 26.8379 96.7501H27.4879C29.7711 96.7478 31.9631 97.6461 33.5879 99.2501C34.3904 100.03 35.0287 100.963 35.4649 101.993C35.9011 103.024 36.1265 104.131 36.1279 105.25V117.48L30.3579 117.51Z" fill="#262F76"/>
<path d="M127.048 51.63C127.048 69.38 106.328 83.77 80.7679 83.77C55.2079 83.77 34.4879 69.38 34.4879 51.63C34.4879 33.88 55.2079 19.5 80.7679 19.5C106.328 19.5 127.048 33.88 127.048 51.63Z" fill="#262F76"/>
<path d="M124.908 49.3502C124.908 65.1702 105.068 78.0002 80.6579 78.0002C56.2479 78.0002 36.4579 65.1802 36.4579 49.3602C36.4579 33.5402 56.2479 20.7202 80.6579 20.7202C105.068 20.7202 124.908 33.5302 124.908 49.3502Z" fill="#FBDF00"/>
<path d="M125.408 47.6901L125.328 47.0301C124.628 41.1301 121.268 35.5701 115.618 30.9601L115.218 30.6301L114.758 30.8901C106.918 35.2101 98.458 35.4001 89.618 31.4401C77.568 26.0401 71.618 32.2901 71.358 32.5401L69.968 34.0001C67.518 33.7201 60.968 34.5401 59.968 34.6801C56.378 34.4301 51.968 33.0001 46.838 30.4401L46.3979 30.2301L46.0179 30.5301C39.8379 35.3601 36.268 41.2501 35.678 47.5301L36.4479 47.6101L36.338 48.3701C42.806 49.3366 49.0363 51.5039 54.7079 54.7601L54.858 54.8401C54.6102 55.5202 54.5312 56.2502 54.6279 56.9676C54.7246 57.6849 54.994 58.3681 55.413 58.9583C55.8321 59.5485 56.3882 60.0281 57.0336 60.3559C57.6789 60.6836 58.3942 60.8498 59.118 60.8401H59.588C59.7459 61.5326 60.0632 62.1788 60.5145 62.7273C60.9659 63.2759 61.5388 63.7117 62.188 64.0001C63.2316 64.4148 64.3944 64.4148 65.438 64.0001C65.6431 64.6678 65.992 65.2824 66.4602 65.8007C66.9284 66.319 67.5045 66.7284 68.1479 67.0001C69.2627 67.4407 70.5033 67.4407 71.618 67.0001C71.8742 67.819 72.3368 68.5582 72.9614 69.1466C73.5859 69.7349 74.3514 70.1527 75.1841 70.3596C76.0168 70.5665 76.8888 70.5557 77.7161 70.3281C78.5434 70.1005 79.2982 69.6638 79.908 69.0601C81.2831 69.7767 82.7987 70.1829 84.348 70.2501C84.9947 70.2743 85.6392 70.1611 86.2391 69.9181C86.8389 69.675 87.3804 69.3076 87.8279 68.8401C89.8979 68.8401 93.3079 68.2001 94.1479 65.3301C95.5461 65.3297 96.9048 64.8664 98.0119 64.0125C99.119 63.1586 99.9123 61.9622 100.268 60.6101C101.853 60.5852 103.382 60.0169 104.598 59.0001C105.221 58.38 105.631 57.5776 105.767 56.7093C105.904 55.8409 105.76 54.9516 105.358 54.1701C106.618 53.4801 110.828 51.7501 124.768 47.8701L125.408 47.6901Z" fill="#262F76"/>
<path d="M72.9078 65.8102L72.7878 64.6202L71.7878 65.2202C71.3483 65.505 70.8489 65.6847 70.3287 65.7454C69.8084 65.8061 69.2812 65.7461 68.7878 65.5702C68.2424 65.3087 67.7725 64.9126 67.4225 64.4192C67.0726 63.9258 66.8542 63.3514 66.7878 62.7502L66.5978 61.6302L65.5978 62.2302C65.198 62.5059 64.7386 62.6831 64.2572 62.7474C63.7758 62.8117 63.286 62.7612 62.8278 62.6002C62.2822 62.3565 61.8144 61.9672 61.4757 61.475C61.137 60.9828 60.9405 60.4068 60.9078 59.8102L60.7979 58.8902L59.9178 59.1602C59.6399 59.25 59.35 59.2972 59.0579 59.3002C58.5674 59.2961 58.0853 59.1718 57.654 58.9382C57.2227 58.7046 56.8552 58.3688 56.5838 57.9602C56.3124 57.5516 56.1453 57.0827 56.0972 56.5945C56.0491 56.1064 56.1214 55.6139 56.3079 55.1602L56.4578 54.8902C56.7153 54.43 57.0874 54.0442 57.5378 53.7702H57.5878C57.7784 53.6632 57.9795 53.5761 58.1879 53.5102H58.3278C58.566 53.4461 58.8113 53.4125 59.0579 53.4102C59.5834 53.4153 60.0982 53.5585 60.551 53.8252C61.0038 54.092 61.3786 54.473 61.6378 54.9302L62.0978 55.7302L62.7979 55.1402C63.2304 54.7245 63.7678 54.4342 64.3526 54.3004C64.9374 54.1665 65.5475 54.1941 66.1179 54.3802C66.5597 54.5685 66.9515 54.8573 67.2622 55.2236C67.5729 55.5899 67.794 56.0235 67.9078 56.4902L68.1879 57.5802L69.1079 56.9202C69.5793 56.5365 70.1411 56.28 70.7397 56.1749C71.3384 56.0699 71.954 56.1199 72.5278 56.3202C74.1478 56.9702 74.9678 58.9802 74.5278 61.2002L74.2878 62.4302L75.4979 62.0902C75.8032 62.0003 76.1196 61.9532 76.4379 61.9502C77.3644 61.9502 78.2531 62.3175 78.9092 62.9717C79.5653 63.626 79.9352 64.5136 79.9379 65.4402C79.9354 65.652 79.912 65.863 79.8679 66.0702C79.8679 66.1802 79.8678 66.2902 79.7878 66.4002C79.7657 66.4816 79.739 66.5617 79.7078 66.6402C79.6548 66.7878 79.5913 66.9315 79.5178 67.0702C79.5207 67.0901 79.5207 67.1103 79.5178 67.1302C79.4274 67.295 79.3238 67.4522 79.2078 67.6002L79.1478 67.6702C78.7223 68.238 78.133 68.6618 77.4592 68.8844C76.7854 69.107 76.0596 69.1176 75.3796 68.9149C74.6996 68.7122 74.098 68.3059 73.6561 67.7508C73.2141 67.1956 72.953 66.5183 72.9078 65.8102Z" fill="white"/>
<path d="M103.488 57.9202C102.543 58.6602 101.378 59.0647 100.178 59.0702L92.5279 52.0702C92.2279 51.7702 91.8479 51.5602 91.5279 51.8602C91.2079 52.1602 91.5279 52.6802 91.8579 52.9802L98.7979 59.9002C98.1879 63.3302 94.9579 63.7502 93.8779 63.7902L89.0879 58.7902C88.7979 58.4702 88.3879 58.1602 88.0879 58.4502C87.7879 58.7402 88.0879 59.1802 88.3979 59.5002L92.6779 64.7202C92.1479 66.9002 89.3879 67.2302 88.1379 67.2702L83.4979 62.4602C83.2179 62.1502 82.8379 61.8702 82.4979 62.1502C82.1579 62.4302 82.4979 62.9102 82.7479 63.2202L86.5679 67.8502C84.8679 69.4902 81.7879 68.2402 80.8079 67.7802C80.8372 67.7297 80.8607 67.6761 80.8779 67.6202C80.9405 67.5031 80.9973 67.383 81.0479 67.2602C81.1441 67.0235 81.221 66.7794 81.2779 66.5302C81.2826 66.457 81.2826 66.3835 81.2779 66.3102C81.3331 66.0167 81.3632 65.7189 81.3679 65.4202C81.3691 64.7376 81.2306 64.0619 80.9608 63.4349C80.6909 62.8078 80.2956 62.2427 79.799 61.7743C79.3025 61.3058 78.7152 60.944 78.0735 60.7111C77.4319 60.4783 76.7493 60.3793 76.0679 60.4202C76.1966 59.296 75.9709 58.1597 75.4222 57.17C74.8736 56.1803 74.0295 55.3868 73.0079 54.9002C72.3528 54.6463 71.6504 54.538 70.9493 54.5829C70.2482 54.6278 69.5652 54.8248 68.9479 55.1602C68.8392 54.9272 68.7121 54.7031 68.5679 54.4902L68.5179 54.4202C68.5179 54.3502 68.4179 54.3002 68.3679 54.2302C67.9233 53.6416 67.3295 53.1824 66.6479 52.9002C65.9563 52.6373 65.2113 52.5454 64.4766 52.6325C63.7418 52.7195 63.0389 52.9829 62.4279 53.4002C62.2304 53.1678 62.0092 52.9567 61.7679 52.7702C61.6379 52.6702 61.4979 52.6102 61.3579 52.5202C60.4286 51.9302 59.3083 51.719 58.2279 51.9302H58.0879C57.8568 51.9851 57.6297 52.0552 57.4079 52.1402L57.1779 52.2402C56.9894 52.3304 56.8057 52.4305 56.6279 52.5402C56.5306 52.6012 56.4371 52.668 56.3479 52.7402L56.0779 52.9602C55.9179 53.1035 55.7676 53.2572 55.6279 53.4202C55.5971 53.456 55.5637 53.4895 55.5279 53.5202L55.4079 53.4502C50.0477 50.3815 44.2042 48.2477 38.1279 47.1402C37.8179 47.0802 36.8779 47.0402 36.5879 46.9902C37.3179 41.5102 40.4479 36.0502 45.8179 31.7402L47.1679 32.3602C52.0479 34.6902 56.3179 35.9902 59.8679 36.2302H60.0179C62.6079 35.9002 66.4779 35.5002 68.6679 35.4902L62.6679 41.6602L62.9679 42.1702C63.4181 42.91 64.0628 43.5119 64.8316 43.9104C65.6004 44.3089 66.4639 44.4887 67.3279 44.4302C68.9126 44.3567 70.4681 43.9764 71.9079 43.3102L72.0179 43.2502C72.0179 43.2502 74.3779 41.6102 77.5879 39.4302L78.4879 38.8202C81.5479 36.7202 83.7679 38.5502 83.8879 38.6502C84.0079 38.7502 97.1479 49.0802 101.888 53.0602L103.678 54.4902C104.068 54.9921 104.258 55.6214 104.21 56.2554C104.162 56.8894 103.879 57.4829 103.418 57.9202" fill="white"/>
<path d="M104.318 53L102.908 51.87C98.138 47.87 84.988 37.55 84.908 37.47C83.863 36.6745 82.5825 36.2504 81.2692 36.2649C79.956 36.2794 78.6851 36.7317 77.658 37.55L76.7679 38.15C73.8379 40.15 71.618 41.68 71.238 41.94C70.858 42.2 66.5379 43.94 64.6379 41.81L70.908 35.24L72.5079 33.6C72.5679 33.54 77.9679 27.89 89.0179 32.84C97.3479 36.58 105.678 36.75 113.258 33.37C113.868 33.1 115.328 32.37 115.928 32.06C120.818 36.17 123.848 41.19 124.638 46.31C110.368 50.31 105.578 52.23 104.348 52.98" fill="white"/>
</g>
</g>
</svg>
