<svg width="170" height="83" viewBox="0 0 170 83" fill="none" xmlns="http://www.w3.org/2000/svg">
<path d="M168.514 35.5403C168.304 34.1803 166.334 33.2503 165.234 32.7003C163.923 32.0789 162.562 31.5703 161.164 31.1803C158.609 30.4086 156.016 29.7711 153.394 29.2703C156.84 27.6878 159.792 25.1993 161.934 22.0703C162.754 20.8603 160.934 19.5403 160.094 20.7503C158.672 22.8174 156.855 24.5825 154.747 25.9435C152.64 27.3046 150.283 28.2347 147.814 28.6803C147.601 28.6492 147.384 28.6878 147.194 28.7903C145.204 29.0954 143.177 29.0718 141.194 28.7203C139.754 28.4603 139.524 30.7203 140.954 30.9703C143.056 31.3394 145.203 31.3698 147.314 31.0603C151.384 34.3309 156.263 36.4388 161.434 37.1603C162.73 37.3388 164.036 37.4223 165.344 37.4103C166.564 37.4103 168.774 37.4103 168.484 35.5403" fill="#333333"/>
<path d="M168.354 29.5899C168.936 29.3017 169.392 28.8081 169.632 28.2043C169.872 27.6005 169.88 26.9293 169.654 26.3199C169.397 25.6306 168.917 25.0472 168.29 24.6629C167.663 24.2786 166.925 24.1156 166.194 24.1999C165.472 24.2817 164.775 24.5167 164.151 24.8892C163.527 25.2617 162.989 25.7631 162.574 26.3599C162.289 26.6374 162.076 26.9808 161.954 27.3599C161.933 27.5019 161.942 27.6469 161.982 27.785C162.022 27.923 162.091 28.0509 162.184 28.1599C162.375 28.4158 162.612 28.633 162.884 28.7999L163.114 28.9399C163.348 29.0686 163.588 29.1854 163.834 29.2899C165.194 29.8699 166.984 30.2899 168.354 29.5799" fill="#333333"/>
<path d="M160.334 5.54013C159.064 5.02013 157.244 6.22014 156.194 6.87014C154.985 7.66694 153.844 8.5634 152.784 9.55014C150.795 11.331 148.899 13.2135 147.104 15.1901C147.544 11.4372 146.957 7.63516 145.404 4.19014C144.794 2.87014 142.714 3.75014 143.324 5.08014C144.35 7.37114 144.912 9.84273 144.977 12.3521C145.042 14.8615 144.61 17.3589 143.704 19.7001C143.563 19.8612 143.482 20.0661 143.474 20.2801C142.704 22.1281 141.637 23.8375 140.314 25.3401C139.314 26.4401 141.154 27.8101 142.104 26.7201C143.516 25.1168 144.66 23.2969 145.494 21.3301C150.404 19.5607 154.742 16.4915 158.044 12.4501C158.873 11.4373 159.625 10.3644 160.294 9.24015C160.924 8.24015 162.064 6.30014 160.294 5.58014" fill="#333333"/>
<path d="M155.194 2.48007C155.251 1.83131 155.066 1.1845 154.674 0.663956C154.283 0.143413 153.713 -0.214117 153.074 -0.33992C152.351 -0.476719 151.603 -0.36798 150.949 -0.0309753C150.295 0.306029 149.772 0.851967 149.464 1.52008C149.165 2.18156 149.01 2.89915 149.01 3.62508C149.01 4.351 149.165 5.0686 149.464 5.73007C149.551 6.11671 149.729 6.47685 149.984 6.78008C150.095 6.87325 150.225 6.94118 150.365 6.97917C150.505 7.01716 150.651 7.02429 150.794 7.00008C151.112 6.97156 151.422 6.87976 151.704 6.73007L151.944 6.61008C152.179 6.4799 152.406 6.33632 152.624 6.18007C153.814 5.33007 155.094 4.01007 155.214 2.48007" fill="#333333"/>
<path d="M110.834 34.6899C111.374 33.4199 113.504 32.9899 114.714 32.6899C116.135 32.4062 117.576 32.2423 119.024 32.1999C121.689 32.0599 124.359 32.0599 127.024 32.1999C124.086 29.8386 121.837 26.7298 120.514 23.1999C120.024 21.8399 122.124 20.9999 122.624 22.3799C123.505 24.729 124.842 26.8804 126.558 28.71C128.274 30.5396 130.336 32.0112 132.624 33.0399C132.838 33.051 133.041 33.1399 133.194 33.2899C135.043 34.0618 137.005 34.5279 139.004 34.6699C140.464 34.7699 140.144 37.0099 138.694 36.9099C136.567 36.7597 134.477 36.2702 132.504 35.4599C127.766 37.6477 122.524 38.5116 117.334 37.9599C116.033 37.82 114.743 37.5895 113.474 37.2699C112.284 36.9599 110.144 36.4099 110.874 34.6899" fill="#333333"/>
<path d="M112.384 28.9399C111.89 28.518 111.569 27.9287 111.482 27.2847C111.396 26.6408 111.549 25.9875 111.914 25.4499C112.33 24.8432 112.937 24.3934 113.639 24.1722C114.34 23.9511 115.096 23.9714 115.784 24.2299C116.47 24.4859 117.093 24.8863 117.61 25.4039C118.128 25.9214 118.528 26.5442 118.784 27.2299C118.993 27.5685 119.117 27.9529 119.144 28.3499C119.129 28.4913 119.083 28.6278 119.011 28.7502C118.938 28.8727 118.841 28.9782 118.724 29.0599C118.483 29.2672 118.2 29.4206 117.894 29.5099L117.634 29.5999C117.376 29.6799 117.112 29.7401 116.844 29.7799C115.394 29.9999 113.554 29.9699 112.394 28.9599" fill="#333333"/>
<path d="M125.024 8.43021C126.384 8.23021 127.854 9.83022 128.714 10.7202C129.7 11.7828 130.59 12.9306 131.374 14.1502C132.874 16.3587 134.256 18.6452 135.514 21.0002C135.991 17.2379 137.484 13.6768 139.834 10.7002C140.744 9.57021 142.554 10.9302 141.634 12.0702C140.086 14.0449 138.944 16.3067 138.275 18.7251C137.605 21.1435 137.422 23.6705 137.734 26.1602C137.835 26.3504 137.863 26.5707 137.814 26.7802C138.117 28.7618 138.742 30.6804 139.664 32.4602C140.334 33.7502 138.254 34.6402 137.584 33.3602C136.602 31.4796 135.927 29.454 135.584 27.3602C131.26 24.451 127.804 20.4252 125.584 15.7102C125.026 14.5259 124.555 13.3027 124.174 12.0502C123.814 10.8802 123.174 8.77022 125.024 8.49022" fill="#333333"/>
<path d="M130.734 6.75998C130.837 6.11726 131.173 5.53514 131.679 5.1254C132.185 4.71566 132.824 4.50717 133.474 4.53998C134.208 4.58285 134.907 4.86985 135.46 5.35541C136.013 5.84097 136.387 6.49724 136.524 7.21999C136.66 7.93517 136.641 8.67108 136.468 9.37827C136.296 10.0855 135.974 10.7475 135.524 11.32C135.347 11.6744 135.086 11.98 134.764 12.21C134.633 12.2653 134.492 12.2937 134.349 12.2937C134.207 12.2937 134.065 12.2653 133.934 12.21C133.631 12.1115 133.352 11.9515 133.114 11.74L132.904 11.56C132.705 11.3792 132.518 11.1854 132.344 10.98C131.394 9.85998 130.464 8.26999 130.724 6.74999" fill="#333333"/>
<path d="M4.51416 83V74.27C4.58416 71.74 5.63416 70.48 7.74416 70.48C7.99041 70.4598 8.23791 70.4598 8.48416 70.48C8.70529 70.5132 8.92288 70.5667 9.13416 70.64L9.00417 71.64C8.82988 71.5756 8.64863 71.532 8.46416 71.51C8.26111 71.4947 8.0572 71.4947 7.85416 71.51C7.55532 71.4811 7.25398 71.5262 6.9767 71.6413C6.69942 71.7564 6.45472 71.938 6.26416 72.17C5.94078 72.8381 5.68937 73.5387 5.51416 74.26V75H8.51416V76H5.51416V83H4.51416Z" fill="#333333"/>
<path d="M16.0641 78.3601C16.069 77.8972 16.0084 77.436 15.8841 76.9901C15.7839 76.5882 15.6036 76.2107 15.3541 75.8801C15.1034 75.56 14.7832 75.3011 14.4176 75.123C14.052 74.945 13.6507 74.8524 13.2441 74.8524C12.8375 74.8524 12.4362 74.945 12.0707 75.123C11.7051 75.3011 11.3848 75.56 11.1341 75.8801C10.8924 76.2154 10.7129 76.5913 10.6041 76.9901C10.4847 77.437 10.4242 77.8975 10.4241 78.3601C10.4236 78.8194 10.4841 79.2767 10.6041 79.7201C10.7129 80.1188 10.8924 80.4948 11.1341 80.8301C11.3662 81.1442 11.6672 81.4008 12.0141 81.5801C12.3985 81.7606 12.8195 81.8496 13.2441 81.8401C13.6688 81.8507 14.0901 81.7616 14.4741 81.5801C14.821 81.4008 15.1221 81.1442 15.3541 80.8301C15.5959 80.4948 15.7754 80.1188 15.8841 79.7201C16.0139 79.2788 16.0746 78.82 16.0641 78.3601ZM17.2741 78.3601C17.2725 78.9332 17.1848 79.5029 17.0141 80.0501C16.8467 80.5687 16.582 81.0506 16.2341 81.4701C15.8882 81.8874 15.4591 82.2279 14.9741 82.4701C14.1875 82.8484 13.2976 82.9554 12.4437 82.7745C11.5898 82.5936 10.8198 82.1349 10.2541 81.4701C9.90562 81.0527 9.64384 80.5699 9.48413 80.0501C9.13778 78.9466 9.13778 77.7636 9.48413 76.6601C9.64386 76.1373 9.90557 75.6512 10.2541 75.2301C10.8305 74.5805 11.5999 74.1329 12.4495 73.9529C13.299 73.7729 14.1839 73.8701 14.9741 74.2301C15.4612 74.4689 15.891 74.81 16.2341 75.2301C16.5858 75.6507 16.8509 76.1367 17.0141 76.6601C17.1857 77.2105 17.2733 77.7836 17.2741 78.3601Z" fill="#333333"/>
<path d="M26.5142 74V83H25.5142V81.7C25.1736 82.1564 24.7366 82.532 24.2342 82.8C23.7187 83.0673 23.1446 83.2013 22.5642 83.19C22.0762 83.2029 21.5945 83.0781 21.1742 82.83C20.7848 82.5773 20.4623 82.2342 20.2342 81.83C19.9757 81.3939 19.7931 80.9172 19.6942 80.42C19.5743 79.8647 19.514 79.2981 19.5142 78.73V74H20.5142V78.52C20.5142 78.98 20.5942 79.43 20.6542 79.89C20.7133 80.2408 20.8317 80.5789 21.0042 80.89C21.1544 81.1602 21.3712 81.3874 21.6342 81.55C21.9431 81.709 22.2868 81.788 22.6342 81.78C23.1243 81.781 23.6041 81.6385 24.0142 81.37L24.2742 81.19C24.7642 80.81 24.5042 79.61 24.5042 79.61V74H26.5142Z" fill="#333333"/>
<path d="M29.5142 83.0003V74.0003H30.5142V75.3003C30.8497 74.8468 31.2795 74.4715 31.7742 74.2003C32.286 73.933 32.8569 73.7989 33.4342 73.8103C33.9219 73.799 34.4032 73.9237 34.8242 74.1703C35.2339 74.4173 35.5772 74.7606 35.8242 75.1703C36.0874 75.6051 36.2734 76.0821 36.3742 76.5803C36.494 77.1356 36.5543 77.7021 36.5542 78.2703V83.0003H35.5542V78.5403C35.5539 78.0976 35.5137 77.6558 35.4342 77.2203C35.3533 76.7818 35.1794 76.3658 34.9242 76.0003C34.8354 75.8681 34.7236 75.7529 34.5942 75.6603C34.1825 75.3802 33.6917 75.2399 33.1942 75.2603C32.6632 75.2488 32.1398 75.3874 31.6842 75.6603C31.5838 75.7178 31.487 75.7812 31.3942 75.8503C31.1353 76.0222 30.9231 76.2555 30.7765 76.5295C30.6299 76.8035 30.5535 77.1096 30.5542 77.4203V83.0003H29.5142Z" fill="#333333"/>
<path d="M42.0342 81.84C42.5529 81.8575 43.0628 81.7027 43.4843 81.4C43.6002 81.3248 43.7104 81.2412 43.8142 81.15C44.0375 80.9654 44.2164 80.7329 44.3376 80.4698C44.4587 80.2067 44.5191 79.9197 44.5142 79.63V75.13C44.2633 75.0298 44.0016 74.9593 43.7343 74.92C43.4401 74.8719 43.1423 74.8485 42.8442 74.85C42.4015 74.8482 41.9618 74.9227 41.5442 75.07C41.1654 75.2165 40.8238 75.4453 40.5442 75.74C40.2414 76.0596 40.0127 76.442 39.8742 76.86C39.7015 77.3582 39.6169 77.8827 39.6242 78.41C39.5866 79.2806 39.7871 80.1449 40.2043 80.91C40.3984 81.2191 40.6734 81.4691 40.9995 81.6331C41.3256 81.797 41.6904 81.8685 42.0543 81.84M45.5142 83H43.5142V81.4C44.1342 81.8 43.7342 82.14 43.2942 82.4C42.7674 82.699 42.1699 82.851 41.5642 82.84C41.0769 82.8421 40.5964 82.7254 40.1642 82.5C39.766 82.2767 39.424 81.9655 39.1642 81.59C38.866 81.1657 38.6459 80.6916 38.5142 80.19C38.3606 79.6162 38.2866 79.024 38.2942 78.43C38.2815 77.7864 38.3866 77.1458 38.6042 76.54C38.7973 76.0091 39.1006 75.5252 39.4942 75.12C39.8837 74.7237 40.3545 74.4166 40.8742 74.22C41.432 74.0034 42.0259 73.8948 42.6242 73.9C42.9422 73.8984 43.2599 73.9219 43.5742 73.97C43.8542 73.97 44.5742 74.15 44.5742 74.15V71H45.5742L45.5142 83Z" fill="#333333"/>
<path d="M50.8442 81.8803C51.3596 81.8787 51.8658 81.7444 52.3142 81.4903C52.4727 81.3985 52.6263 81.2983 52.7742 81.1903C53.0108 81.0061 53.201 80.7691 53.3295 80.4982C53.458 80.2273 53.5212 79.9301 53.5142 79.6303V78.8103L52.3642 78.8603L51.3142 78.9303C50.8235 78.9695 50.3481 79.1199 49.9242 79.3703C49.7428 79.4945 49.5973 79.6644 49.5025 79.8628C49.4077 80.0612 49.3669 80.2811 49.3842 80.5003C49.3842 81.4203 49.8742 81.8803 50.8442 81.8803ZM52.5142 81.4703C53.2242 81.6303 53.0542 81.7803 52.8842 81.9303C52.6691 82.0942 52.4418 82.2413 52.2042 82.3703C51.9385 82.5035 51.6606 82.6107 51.3742 82.6903C51.0477 82.7757 50.7117 82.8193 50.3742 82.8203C50.0586 82.8516 49.74 82.8137 49.4406 82.7092C49.1412 82.6047 48.8681 82.4361 48.6406 82.2152C48.413 81.9943 48.2364 81.7264 48.123 81.4302C48.0097 81.1341 47.9623 80.8167 47.9842 80.5003C47.9745 80.1336 48.0534 79.77 48.2142 79.4403C48.356 79.1431 48.569 78.8855 48.8342 78.6903C49.1175 78.482 49.4359 78.3262 49.7742 78.2303C50.1654 78.1185 50.5679 78.0514 50.9742 78.0303H52.1442H53.4842V77.4803C53.349 76.8165 53.1165 76.1762 52.7942 75.5803C52.5811 75.3668 52.3239 75.2026 52.0406 75.0989C51.7573 74.9953 51.4548 74.9548 51.1542 74.9803C50.7499 74.9764 50.3467 75.0234 49.9542 75.1203C49.5769 75.2251 49.2166 75.3834 48.8842 75.5903L48.5842 74.6703C48.957 74.4589 49.353 74.2911 49.7642 74.1703C50.2696 74.0345 50.7909 73.9672 51.3142 73.9703C51.7528 73.9691 52.1886 74.0401 52.6042 74.1803C52.9824 74.3137 53.3247 74.5327 53.6042 74.8203C53.8985 75.1293 54.1235 75.4975 54.2642 75.9003C54.445 76.3853 54.5134 76.9051 54.4642 77.4203V83.0003H52.4642L52.5142 81.4703Z" fill="#333333"/>
<path d="M57.514 72H58.514V74H61.514V75H58.514V79.83C58.4592 80.114 58.4592 80.406 58.514 80.69C58.54 80.9168 58.6151 81.1352 58.734 81.33C58.8383 81.5011 58.9916 81.637 59.1741 81.72C59.4059 81.813 59.6544 81.8572 59.9041 81.85C60.1528 81.8486 60.4008 81.8218 60.6441 81.77C60.8756 81.7301 61.1031 81.6698 61.324 81.59L61.4241 82.5C61.1754 82.5989 60.9174 82.6726 60.6541 82.72C60.324 82.7801 59.9895 82.8136 59.6541 82.82C59.2617 82.829 58.8722 82.7504 58.514 82.59C58.2135 82.4488 57.955 82.2316 57.764 81.96C57.5578 81.6596 57.418 81.3187 57.354 80.96C57.2878 80.7615 57.2668 80.5506 57.2928 80.343C57.3188 80.1353 57.3909 79.9361 57.504 79.76L57.514 72Z" fill="#333333"/>
<path d="M63.5142 74.0003H64.5142V83.0003H63.5142V74.0003ZM63.2542 71.1703C63.2521 70.9465 63.3383 70.7309 63.4942 70.5703C63.5697 70.4905 63.6615 70.4278 63.7632 70.3864C63.865 70.3451 63.9744 70.3259 64.0842 70.3303C64.197 70.3256 64.3095 70.3445 64.4146 70.3858C64.5196 70.4272 64.6149 70.49 64.6942 70.5703C64.8501 70.7309 64.9363 70.9465 64.9342 71.1703C64.9343 71.387 64.8496 71.5952 64.6982 71.7502C64.5469 71.9053 64.3408 71.9951 64.1242 72.0003C64.0144 72.0047 63.905 71.9856 63.8032 71.9442C63.7015 71.9028 63.6097 71.8401 63.5342 71.7603C63.4569 71.683 63.3958 71.5909 63.3546 71.4896C63.3133 71.3882 63.2928 71.2797 63.2942 71.1703" fill="#333333"/>
<path d="M73.7841 78.36C73.7939 77.8969 73.7332 77.4349 73.6041 76.99C73.5039 76.5881 73.3236 76.2106 73.0741 75.88C72.8646 75.6021 72.6023 75.3682 72.3022 75.192C72.002 75.0158 71.67 74.9008 71.3252 74.8534C70.9804 74.806 70.6296 74.8272 70.2931 74.9159C69.9565 75.0045 69.6408 75.1589 69.3641 75.37C69.1724 75.5168 69.0009 75.6883 68.8541 75.88C68.6124 76.2153 68.4328 76.5913 68.3241 76.99C68.2047 77.4369 68.1442 77.8975 68.1441 78.36C68.1435 78.8193 68.2041 79.2767 68.3241 79.72C68.4328 80.1188 68.6124 80.4948 68.8541 80.83C69.0861 81.1441 69.3872 81.4007 69.7341 81.58C70.1208 81.7539 70.5401 81.8438 70.9641 81.8438C71.3881 81.8438 71.8073 81.7539 72.1941 81.58C72.541 81.4007 72.8421 81.1441 73.0741 80.83C73.3236 80.4994 73.5039 80.1219 73.6041 79.72C73.7339 79.2787 73.7946 78.8199 73.7841 78.36ZM74.9941 78.36C74.9925 78.9332 74.9048 79.5029 74.7341 80.05C74.5703 80.5681 74.309 81.0501 73.9641 81.47C73.6144 81.8876 73.182 82.2281 72.6941 82.47C72.1513 82.7124 71.5635 82.8377 70.9691 82.8377C70.3746 82.8377 69.7869 82.7124 69.2441 82.47C68.7562 82.2281 68.3238 81.8876 67.9741 81.47C67.6256 81.0526 67.3638 80.5698 67.2041 80.05C66.8577 78.9466 66.8577 77.7635 67.2041 76.66C67.3638 76.1372 67.6255 75.6512 67.9741 75.23C68.3238 74.8125 68.7562 74.472 69.2441 74.23C69.7869 73.9876 70.3746 73.8623 70.9691 73.8623C71.5635 73.8623 72.1513 73.9876 72.6941 74.23C73.182 74.472 73.6144 74.8125 73.9641 75.23C74.3091 75.6536 74.5704 76.1389 74.7341 76.66C74.9056 77.2104 74.9933 77.7835 74.9941 78.36Z" fill="#333333"/>
<path d="M77.5142 83.0003V74.0003H78.5142V75.3003C78.8497 74.8468 79.2796 74.4715 79.7742 74.2003C80.286 73.933 80.8569 73.7989 81.4342 73.8103C81.9219 73.799 82.4032 73.9237 82.8242 74.1703C83.2339 74.4173 83.5772 74.7606 83.8242 75.1703C84.0874 75.6051 84.2734 76.0821 84.3741 76.5803C84.494 77.1356 84.5543 77.7021 84.5542 78.2703V83.0003H83.5542V78.5403C83.5539 78.0976 83.5137 77.6558 83.4342 77.2203C83.3533 76.7818 83.1794 76.3658 82.9242 76.0003C82.8354 75.8681 82.7236 75.7529 82.5941 75.6603C82.1825 75.3802 81.6917 75.2399 81.1942 75.2603C80.6632 75.2488 80.1398 75.3874 79.6842 75.6603C79.5838 75.7178 79.487 75.7812 79.3942 75.8503C79.1339 76.0231 78.9208 76.2581 78.7741 76.5339C78.6274 76.8098 78.5519 77.1178 78.5542 77.4303V83.0003H77.5142Z" fill="#333333"/>
<path d="M15.5141 54.9302C15.5161 54.1302 15.4323 53.3323 15.2641 52.5502C15.1203 51.8408 14.8493 51.1632 14.4641 50.5502C14.0957 49.9733 13.5908 49.4959 12.9941 49.1602C12.3202 48.8047 11.5659 48.629 10.8041 48.6502C10.0355 48.6232 9.27326 48.7991 8.59415 49.1602C8.01034 49.5023 7.51665 49.9789 7.15414 50.5502C6.7655 51.1625 6.49107 51.8401 6.34415 52.5502C6.17598 53.3323 6.09216 54.1302 6.09415 54.9302C6.09214 55.7203 6.17597 56.5083 6.34415 57.2802C6.48934 57.9909 6.7639 58.6688 7.15414 59.2802C7.51419 59.8536 8.00843 60.3307 8.59415 60.6702C9.27326 61.0313 10.0355 61.2072 10.8041 61.1802C11.5659 61.2014 12.3202 61.0257 12.9941 60.6702C13.5908 60.3346 14.0957 59.8572 14.4641 59.2802C14.8471 58.6662 15.118 57.989 15.2641 57.2802C15.4323 56.5083 15.5161 55.7203 15.5141 54.9302ZM21.1741 54.9302C21.1835 56.3224 20.9535 57.7059 20.4941 59.0202C20.0551 60.249 19.3752 61.3777 18.4941 62.3402C17.5844 63.3094 16.4757 64.0701 15.2441 64.5702C12.3827 65.6506 9.22557 65.6506 6.36415 64.5702C5.13435 64.0723 4.02845 63.3111 3.12415 62.3402C2.24025 61.3799 1.55992 60.2505 1.12415 59.0202C0.224243 56.3678 0.224243 53.4926 1.12415 50.8402C1.55744 49.6058 2.23798 48.4727 3.12415 47.5102C4.03205 46.5386 5.13658 45.7715 6.36415 45.2602C9.2207 44.1535 12.3876 44.1535 15.2441 45.2602C16.4717 45.7715 17.5762 46.5386 18.4841 47.5102C19.3703 48.4727 20.0508 49.6058 20.4841 50.8402C20.945 52.1541 21.1751 53.5379 21.1641 54.9302" fill="#333333"/>
<path d="M30.5141 58.9302C30.4769 59.4373 30.6224 59.941 30.9241 60.3502C31.1147 60.5272 31.3408 60.6616 31.5874 60.7444C31.8339 60.8272 32.0953 60.8564 32.3541 60.8302C32.6306 60.8444 32.9076 60.8444 33.1841 60.8302C33.463 60.8023 33.7401 60.7589 34.0141 60.7002V61.3302C34.0645 62.2663 33.7498 63.1855 33.1361 63.8943C32.5225 64.603 31.6578 65.0461 30.7241 65.1302H30.2141C29.2841 65.1583 28.3583 64.9949 27.4941 64.6502C26.8127 64.3668 26.2067 63.9286 25.7241 63.3702C25.2671 62.8402 24.9264 62.2202 24.7241 61.5502C24.5365 60.8729 24.4423 60.1731 24.4441 59.4702V39.6202C24.4584 39.1303 24.569 38.648 24.7697 38.2009C24.9704 37.7538 25.2573 37.3506 25.6139 37.0144C25.9706 36.6782 26.3899 36.4156 26.8481 36.2416C27.3063 36.0676 27.7942 35.9855 28.2841 36.0002H30.5141V58.9302Z" fill="#333333"/>
<path d="M37.5142 65V48.62C37.5142 47.6599 37.8956 46.7392 38.5744 46.0603C39.2533 45.3814 40.1741 45 41.1342 45H43.5142V61.38C43.5142 62.3401 43.1328 63.2608 42.4539 63.9397C41.775 64.6186 40.8542 65 39.8942 65H37.5142Z" fill="#333333"/>
<path d="M52.2842 62.59L46.1042 45H49.1042C49.8845 45.0001 50.6439 45.2523 51.2692 45.719C51.8945 46.1857 52.3522 46.842 52.5742 47.59L56.1642 59.74L59.7143 47.6C59.9345 46.8501 60.3914 46.1916 61.0169 45.723C61.6424 45.2543 62.4027 45.0007 63.1843 45H66.1843L59.1843 65H55.7743C55.0286 65.0014 54.3011 64.7699 53.6934 64.3378C53.0856 63.9058 52.6279 63.2947 52.3842 62.59" fill="#333333"/>
<path d="M77.1542 48.6999C76.6437 48.6721 76.134 48.7686 75.6689 48.9811C75.2039 49.1936 74.7973 49.5157 74.4842 49.9199C73.8332 50.8209 73.4549 51.89 73.3942 52.9999H80.2942C80.4684 51.9241 80.2634 50.8212 79.7142 49.8799C79.4251 49.4796 79.0375 49.1607 78.589 48.954C78.1406 48.7473 77.6464 48.6598 77.1542 48.6999ZM77.4842 44.0999C78.6895 44.0808 79.8875 44.2912 81.0142 44.7199C81.9986 45.0995 82.8816 45.7019 83.5942 46.4799C84.2998 47.2684 84.8343 48.1946 85.1642 49.1999C85.5332 50.357 85.7155 51.5655 85.7042 52.7799C85.7027 53.3384 85.666 53.8961 85.5942 54.4499C85.5353 54.9745 85.4315 55.4931 85.2842 55.9999H73.3542C73.3408 57.304 73.8275 58.5636 74.7142 59.5199C75.2729 60.002 75.9231 60.3664 76.6258 60.5915C77.3285 60.8165 78.0694 60.8976 78.8042 60.8299C79.8447 60.8385 80.8834 60.7413 81.9042 60.5399C82.2668 60.4642 82.6408 60.4611 83.0046 60.5309C83.3684 60.6007 83.7148 60.7421 84.0236 60.9467C84.3324 61.1513 84.5975 61.4152 84.8036 61.723C85.0097 62.0308 85.1526 62.3765 85.2242 62.7399L85.3642 63.4799C84.2868 63.999 83.1476 64.3788 81.9742 64.6099C80.6847 64.8776 79.3711 65.0116 78.0542 65.0099C76.5308 65.0369 75.0154 64.7827 73.5842 64.2599C72.3517 63.813 71.234 63.0975 70.3121 62.1652C69.3903 61.233 68.6873 60.1074 68.2542 58.8699C67.773 57.5123 67.536 56.0802 67.5542 54.6399C67.5439 53.1725 67.7735 51.7132 68.2342 50.3199C68.663 49.0774 69.3439 47.9369 70.2342 46.9699C71.1057 46.0376 72.1706 45.3072 73.3542 44.8299C74.6724 44.2992 76.0834 44.0374 77.5042 44.0599" fill="#333333"/>
<path d="M89.5142 65V48.62C89.5142 47.6599 89.8956 46.7392 90.5744 46.0603C91.2533 45.3814 92.1741 45 93.1342 45H95.5142V61.38C95.5142 62.3401 95.1328 63.2608 94.4539 63.9397C93.775 64.6186 92.8542 65 91.8942 65H89.5142Z" fill="#333333"/>
<path d="M113.514 47.3799C113.514 47.9929 113.291 48.5849 112.886 49.0451C112.481 49.5052 111.922 49.802 111.314 49.8799C110.481 49.9624 109.655 50.1096 108.844 50.3199C107.054 50.9399 106.514 51.6999 106.514 54.0199V61.3799C106.514 62.34 106.133 63.2607 105.454 63.9396C104.775 64.6185 103.854 64.9999 102.894 64.9999H100.514V44.9999H102.914C103.384 44.9959 103.85 45.0847 104.285 45.2611C104.72 45.4375 105.116 45.698 105.451 46.0278C105.785 46.3576 106.051 46.7501 106.234 47.1829C106.416 47.6157 106.512 48.0802 106.514 48.5499C106.843 47.4588 107.495 46.4931 108.384 45.7799C109.376 45.0728 110.577 44.7205 111.794 44.7799C112.375 44.7777 112.953 44.8517 113.514 44.9999V47.3799Z" fill="#333333"/>
<path d="M130.084 46.6599C128.213 45.1133 125.827 44.331 123.404 44.4699C121.948 44.46 120.495 44.6177 119.074 44.9399C117.791 45.238 116.554 45.7054 115.394 46.3299L115.754 47.5499C115.986 48.2304 116.469 48.7963 117.106 49.1312C117.742 49.466 118.482 49.5443 119.174 49.3499C120.206 49.1019 121.263 48.9777 122.324 48.9799C122.889 48.9306 123.458 48.9935 123.999 49.1651C124.54 49.3368 125.041 49.6137 125.474 49.9799C125.836 50.3857 126.111 50.861 126.283 51.3768C126.455 51.8927 126.52 52.4381 126.474 52.9799V53.6799L123.934 53.7599C123.004 53.7599 122.094 53.8299 121.214 53.8899C119.299 53.9102 117.431 54.4831 115.834 55.5399C115.176 56.0191 114.648 56.6553 114.299 57.3907C113.95 58.126 113.79 58.937 113.834 59.7499C113.824 60.5286 113.974 61.3012 114.274 62.0199C114.553 62.6975 114.968 63.3103 115.494 63.8199C116.078 64.3496 116.766 64.7515 117.514 64.9999C118.326 65.3023 119.188 65.4482 120.054 65.4299C121.376 65.4602 122.688 65.2079 123.904 64.6899C124.944 64.2376 125.906 63.6234 126.754 62.8699C126.778 63.4499 127.027 63.9977 127.45 64.3958C127.872 64.794 128.434 65.0108 129.014 64.9999H132.514V53.1399C132.514 50.2799 131.704 48.1199 130.084 46.6599ZM126.394 57.7399C126.375 57.8113 126.352 57.8814 126.324 57.9499C126.247 58.1571 126.153 58.3577 126.044 58.5499C125.788 59.1429 125.412 59.676 124.938 60.1151C124.465 60.5542 123.905 60.8896 123.294 61.0999C122.768 61.2175 122.216 61.1366 121.746 60.8727C121.275 60.6088 120.918 60.1805 120.744 59.6699C120.55 59.0923 120.555 58.4664 120.758 57.892C120.961 57.3176 121.35 56.8275 121.864 56.4999C122.372 56.1759 122.944 55.9638 123.54 55.8776C124.137 55.7914 124.745 55.8331 125.324 55.9999C125.652 56.0291 125.969 56.139 126.244 56.3199C126.332 56.3992 126.401 56.4966 126.448 56.6053C126.495 56.714 126.517 56.8316 126.514 56.9499C126.525 57.2152 126.484 57.48 126.394 57.7299" fill="#333333"/>
<path d="M91.9342 36.9003C92.4779 36.6241 93.104 36.5571 93.6938 36.712C94.2837 36.8668 94.7962 37.2327 95.1342 37.7403C95.5115 38.3177 95.6841 39.0051 95.6243 39.6923C95.5644 40.3795 95.2756 41.0267 94.8042 41.5303C94.3423 42.0317 93.7786 42.4285 93.1508 42.6941C92.523 42.9597 91.8456 43.088 91.1642 43.0703C90.7958 43.1351 90.417 43.1041 90.0641 42.9803C89.946 42.9191 89.8427 42.8328 89.7614 42.7274C89.6802 42.622 89.6231 42.5001 89.5941 42.3703C89.4955 42.0881 89.4613 41.7874 89.4942 41.4903C89.4942 41.4103 89.4942 41.3203 89.4942 41.2403C89.522 40.9911 89.5654 40.744 89.6241 40.5003C89.7376 39.7776 89.9997 39.0864 90.3939 38.4702C90.788 37.854 91.3057 37.3262 91.9142 36.9203" fill="#333333"/>
<path d="M38.934 36.9003C39.4778 36.6241 40.1039 36.5571 40.6937 36.712C41.2836 36.8668 41.7961 37.2327 42.134 37.7403C42.5114 38.3177 42.684 39.0051 42.6242 39.6923C42.5643 40.3795 42.2755 41.0267 41.8041 41.5303C41.3422 42.0317 40.7785 42.4285 40.1507 42.6941C39.5229 42.9597 38.8455 43.088 38.164 43.0703C37.7957 43.1351 37.4169 43.1041 37.0641 42.9803C36.9459 42.9191 36.8426 42.8328 36.7613 42.7274C36.6801 42.622 36.623 42.5001 36.5941 42.3703C36.4954 42.0881 36.4612 41.7874 36.494 41.4903C36.494 41.4103 36.494 41.3203 36.494 41.2403C36.5219 40.9911 36.5653 40.744 36.6241 40.5003C36.7375 39.7776 36.9996 39.0864 37.3938 38.4702C37.7879 37.854 38.3056 37.3262 38.914 36.9203" fill="#333333"/>
<path d="M142.014 35.1701C142.7 37.6177 142.752 40.1995 142.166 42.6728C141.58 45.1462 140.375 47.4301 138.664 49.3101C137.524 50.5701 139.394 52.4601 140.544 51.1901C142.575 48.9696 144.008 46.269 144.708 43.3423C145.407 40.4156 145.351 37.3591 144.544 34.4601C144.45 34.1193 144.224 33.8298 143.917 33.6554C143.609 33.481 143.245 33.4359 142.904 33.5301C142.563 33.6242 142.274 33.8499 142.1 34.1575C141.925 34.465 141.88 34.8293 141.974 35.1701" fill="#333333"/>
</svg>
