<svg width="79" height="109" viewBox="0 0 79 109" fill="none" xmlns="http://www.w3.org/2000/svg">
<path fill-rule="evenodd" clip-rule="evenodd" d="M72.456 93.7148C72.0281 93.7069 71.6047 93.8039 71.2229 93.9974C70.8411 94.1909 70.5126 94.475 70.266 94.8248C69.6726 95.709 69.3814 96.7614 69.436 97.8248C69.3777 98.8901 69.673 99.9447 70.276 100.825C70.5187 101.177 70.8447 101.464 71.2251 101.659C71.6055 101.854 72.0284 101.953 72.456 101.945C72.8888 101.952 73.3167 101.853 73.7021 101.656C74.0875 101.459 74.4184 101.17 74.666 100.815C75.2673 99.9561 75.5663 98.9219 75.516 97.8748C75.5686 96.8058 75.2624 95.7499 74.646 94.8748C74.4014 94.5201 74.0743 94.2301 73.6928 94.0298C73.3113 93.8295 72.8869 93.7248 72.456 93.7248V93.7148ZM69.586 101.875V108.365H67.116V92.3648H69.586L69.526 94.3648C69.8283 93.6138 70.3513 92.9722 71.026 92.5248C71.7214 92.1037 72.5234 91.892 73.336 91.9148C73.9954 91.9131 74.6457 92.0682 75.2334 92.3672C75.8211 92.6663 76.3292 93.1008 76.716 93.6348C77.5987 94.9025 78.0718 96.4101 78.0718 97.9548C78.0718 99.4995 77.5987 101.007 76.716 102.275C76.3241 102.809 75.8102 103.242 75.217 103.538C74.6239 103.834 73.9687 103.984 73.306 103.975C72.5496 103.994 71.8015 103.815 71.136 103.455C70.4854 103.084 69.9465 102.545 69.576 101.895L69.586 101.875ZM63.966 95.4348H61.596C61.5998 95.1492 61.5398 94.8664 61.4205 94.6069C61.3011 94.3474 61.1254 94.1178 60.906 93.9348C60.366 93.557 59.7137 93.3737 59.056 93.4148C58.4605 93.3862 57.8696 93.5322 57.356 93.8348C57.1635 93.9424 57.003 94.099 56.8906 94.2887C56.7782 94.4783 56.718 94.6944 56.716 94.9148C56.716 95.6648 57.716 96.2448 59.716 96.6348H59.816C61.0736 96.786 62.2823 97.2128 63.356 97.8848C63.6399 98.1478 63.861 98.4713 64.003 98.8314C64.1449 99.1914 64.204 99.5788 64.176 99.9648C64.2032 100.484 64.1057 101.001 63.8917 101.474C63.6777 101.948 63.3534 102.363 62.946 102.685C61.9236 103.399 60.6915 103.751 59.446 103.685C58.0867 103.761 56.7375 103.411 55.586 102.685C55.1318 102.332 54.7578 101.886 54.4889 101.378C54.2199 100.869 54.0622 100.309 54.026 99.7348H56.476C56.4685 100.051 56.5362 100.365 56.6736 100.65C56.8109 100.935 57.014 101.183 57.266 101.375C57.9065 101.809 58.6739 102.017 59.446 101.965C60.0452 101.999 60.6408 101.853 61.156 101.545C61.3521 101.425 61.5134 101.255 61.6239 101.054C61.7344 100.852 61.7902 100.625 61.7859 100.395C61.7859 99.7048 60.946 99.1848 59.256 98.8348L58.726 98.7148C57.5096 98.541 56.3496 98.0893 55.336 97.3948C55.0519 97.115 54.8315 96.7772 54.69 96.4044C54.5485 96.0316 54.4892 95.6327 54.516 95.2348C54.4958 94.7392 54.5952 94.2461 54.8058 93.797C55.0164 93.3479 55.332 92.9562 55.726 92.6548C56.7145 91.9875 57.8954 91.6641 59.086 91.7348C60.3618 91.6765 61.623 92.0268 62.686 92.7348C63.1072 93.0551 63.4471 93.47 63.6782 93.946C63.9092 94.422 64.025 94.9458 64.016 95.4748L63.966 95.4348ZM49.616 96.6348C49.5721 95.7576 49.2177 94.9246 48.616 94.2848C48.0074 93.7256 47.2018 93.4307 46.376 93.4648C45.9792 93.4573 45.5849 93.5285 45.2158 93.6744C44.8468 93.8203 44.5103 94.038 44.226 94.3148C43.6021 94.9436 43.1986 95.7576 43.076 96.6348H49.616ZM52.346 98.4848H43.596C43.5948 99.4367 43.9518 100.354 44.596 101.055C44.9201 101.364 45.3033 101.603 45.7227 101.76C46.1421 101.916 46.5888 101.986 47.0359 101.965C47.625 101.98 48.2067 101.831 48.716 101.535C49.1944 101.252 49.5747 100.83 49.806 100.325H52.256C51.9357 101.355 51.2722 102.244 50.376 102.845C49.4219 103.463 48.3024 103.777 47.166 103.745C46.3658 103.789 45.5648 103.674 44.8094 103.406C44.0541 103.139 43.3595 102.723 42.766 102.185C42.2155 101.63 41.787 100.966 41.508 100.236C41.229 99.5058 41.1057 98.7254 41.146 97.9448C41.1155 97.1747 41.2396 96.4063 41.511 95.6849C41.7824 94.9636 42.1954 94.3039 42.726 93.7448C43.2657 93.2056 43.9114 92.7842 44.6223 92.5071C45.3331 92.2299 46.0937 92.1032 46.856 92.1348C47.6012 92.0936 48.3469 92.2094 49.0446 92.4747C49.7422 92.74 50.3764 93.1489 50.906 93.6748C51.9315 94.8913 52.4474 96.457 52.346 98.0448V98.4848ZM27.716 86.1948H30.186V93.8148C30.5493 93.1569 31.0852 92.6107 31.736 92.2348C32.4014 91.8749 33.1497 91.6956 33.906 91.7148C34.562 91.7103 35.2095 91.8632 35.7942 92.1607C36.3789 92.4583 36.8836 92.8918 37.266 93.4248C38.1912 94.6932 38.6631 96.2359 38.606 97.8048C38.6672 99.3713 38.1869 100.911 37.246 102.165C36.8615 102.702 36.354 103.139 35.766 103.44C35.178 103.741 34.5265 103.897 33.866 103.895C33.0643 103.92 32.2734 103.704 31.596 103.275C30.9361 102.809 30.4283 102.158 30.136 101.405L30.186 103.405H27.716V86.1948ZM33.086 93.6048C32.6593 93.5959 32.237 93.6926 31.8567 93.8862C31.4764 94.0799 31.1498 94.3645 30.906 94.7148C30.3111 95.5724 30.0158 96.6023 30.066 97.6448C30.01 98.7084 30.3013 99.7613 30.896 100.645C31.1351 101.004 31.4617 101.296 31.8448 101.493C32.2279 101.691 32.6551 101.788 33.086 101.775C33.5172 101.777 33.9422 101.673 34.324 101.472C34.7057 101.272 35.0326 100.981 35.276 100.625C35.8382 99.7399 36.1367 98.7132 36.1367 97.6648C36.1367 96.6164 35.8382 95.5897 35.276 94.7048C35.0263 94.3534 34.6943 94.0685 34.309 93.875C33.9238 93.6815 33.497 93.5853 33.066 93.5948L33.086 93.6048ZM24.026 96.5448V100.545C24.0219 101.081 24.0621 101.616 24.146 102.145C24.2227 102.598 24.3502 103.04 24.526 103.465H21.896C21.8273 103.201 21.7739 102.934 21.736 102.665C21.736 102.385 21.676 102.095 21.656 101.785C21.1549 102.448 20.5215 102.999 19.796 103.405C19.1008 103.751 18.3327 103.926 17.556 103.915C16.5084 103.969 15.4813 103.61 14.696 102.915C14.2042 102.413 13.8636 101.783 13.7133 101.097C13.563 100.411 13.609 99.6961 13.846 99.0348C13.9916 98.6579 14.2166 98.3168 14.506 98.0348C15.116 97.4348 16.506 97.0348 18.696 96.7948L19.306 96.7248C19.9113 96.6963 20.5025 96.5322 21.0359 96.2448C21.1967 96.133 21.3274 95.9832 21.4163 95.8087C21.5053 95.6343 21.5498 95.4406 21.546 95.2448C21.5472 95.0209 21.4898 94.8005 21.3792 94.6057C21.2687 94.4109 21.1089 94.2486 20.916 94.1348C20.4094 93.8327 19.8251 93.6866 19.236 93.7148C18.596 93.6864 17.9621 93.8501 17.416 94.1848C17.1915 94.3306 17.0012 94.5231 16.8579 94.7492C16.7147 94.9753 16.622 95.2296 16.586 95.4948H14.026C14.1106 94.9735 14.2995 94.4745 14.5812 94.0278C14.863 93.5811 15.2319 93.1958 15.666 92.8948C16.7233 92.2718 17.9403 91.9728 19.166 92.0348C20.4933 91.8954 21.8254 92.2516 22.906 93.0348C23.3208 93.5155 23.6338 94.0752 23.8263 94.6802C24.0188 95.2852 24.0867 95.9229 24.026 96.5548V96.5448ZM21.566 96.9948C20.8432 97.5565 19.9767 97.9031 19.066 97.9948L18.446 98.1248C17.7858 98.2222 17.1583 98.4759 16.616 98.8648C16.4405 99.0247 16.3028 99.2216 16.2129 99.4412C16.123 99.6609 16.0831 99.8978 16.096 100.135C16.0836 100.396 16.1302 100.657 16.2324 100.897C16.3345 101.138 16.4895 101.352 16.686 101.525C17.1238 101.892 17.6855 102.078 18.256 102.045C18.7211 102.078 19.1876 102.005 19.6206 101.831C20.0536 101.658 20.4417 101.389 20.756 101.045C21.3784 100.174 21.6788 99.1131 21.606 98.0448C21.606 97.8648 21.606 97.5548 21.606 97.1148V97.0448L21.566 96.9948ZM11.336 95.4348H8.966C8.96981 95.1492 8.90983 94.8664 8.79047 94.6069C8.6711 94.3474 8.49535 94.1178 8.276 93.9348C7.73909 93.5585 7.09046 93.3752 6.43597 93.4148C5.8373 93.386 5.24316 93.5319 4.72595 93.8348C4.53351 93.9424 4.37296 94.099 4.26056 94.2887C4.14816 94.4783 4.08795 94.6944 4.086 94.9148C4.086 95.6648 5.086 96.2448 7.086 96.6348H7.146C8.40358 96.786 9.61228 97.2128 10.686 97.8848C10.9699 98.1478 11.1911 98.4713 11.333 98.8314C11.475 99.1914 11.5341 99.5788 11.506 99.9648C11.5332 100.484 11.4357 101.001 11.2217 101.474C11.0077 101.948 10.6834 102.363 10.276 102.685C9.25358 103.399 8.02156 103.751 6.776 103.685C5.41963 103.763 4.07299 103.413 2.92596 102.685C2.46705 102.335 2.08917 101.891 1.81818 101.382C1.54718 100.872 1.38948 100.311 1.35596 99.7348H3.81598C3.80852 100.051 3.87621 100.365 4.01355 100.65C4.15089 100.935 4.35392 101.183 4.60596 101.375C5.24715 101.808 6.01398 102.015 6.78595 101.965C7.38814 101.997 7.98656 101.851 8.50598 101.545C8.69954 101.423 8.85831 101.253 8.96692 101.051C9.07553 100.85 9.13032 100.624 9.12598 100.395C9.12598 99.7282 8.28596 99.2082 6.60596 98.8348L6.06598 98.7148C4.85042 98.5379 3.6911 98.0865 2.67596 97.3948C2.39367 97.1141 2.17518 96.7759 2.0354 96.4032C1.89562 96.0304 1.83784 95.6319 1.86597 95.2348C1.84378 94.74 1.94131 94.2471 2.15021 93.7979C2.35911 93.3488 2.67323 92.9567 3.06598 92.6548C4.05454 91.9875 5.23532 91.6641 6.42596 91.7348C7.70181 91.6765 8.96302 92.0268 10.026 92.7348C10.4472 93.0551 10.7871 93.47 11.0182 93.946C11.2492 94.422 11.3649 94.9458 11.356 95.4748L11.336 95.4348Z" fill="#333333"/>
<path fill-rule="evenodd" clip-rule="evenodd" d="M39.816 41.2548H78.5359V41.0048C78.5174 51.2655 74.4311 61.1002 67.1729 68.3529C59.9146 75.6055 50.0767 79.6842 39.816 79.6948C18.506 79.6948 1.12596 62.3148 0.605957 41.0048L1.216 34.0048V0.634766H26.456V40.8548L44.816 48.4148C47.5765 49.5513 49.8565 51.6115 51.2661 54.2431C52.6757 56.8747 53.1275 59.9142 52.5441 62.842C51.9606 65.7697 50.3783 68.4039 48.0676 70.2942C45.7569 72.1844 42.8613 73.2132 39.876 73.2048C38.186 73.2102 36.5119 72.8794 34.951 72.2315C33.3902 71.5837 31.9738 70.6317 30.7844 69.4312C29.595 68.2306 28.6564 66.8054 28.0232 65.2386C27.39 63.6718 27.0748 61.9946 27.096 60.3048V40.6348L39.776 41.2448L39.816 41.2548Z" fill="#009DDF"/>
<path fill-rule="evenodd" clip-rule="evenodd" d="M78.8159 19.0849V3.08494C74.6606 1.647 70.3026 0.880714 65.9059 0.814941C55.6649 0.825543 45.8469 4.90121 38.6092 12.1465C31.3714 19.3917 27.3059 29.2139 27.3059 39.4549H78.8159L61.1659 32.1349C58.9825 31.2731 57.0753 29.8322 55.6497 27.9674C54.224 26.1025 53.3338 23.8842 53.0748 21.5512C52.8157 19.2181 53.1977 16.8586 54.1796 14.7265C55.1615 12.5943 56.7061 10.7702 58.6473 9.45041C60.5886 8.1306 62.8529 7.36504 65.1967 7.23609C67.5406 7.10713 69.8752 7.61966 71.9495 8.71854C74.0238 9.81741 75.7592 11.461 76.9691 13.4726C78.1789 15.4842 78.8174 17.7876 78.8159 20.1349V19.1349V19.0849Z" fill="#009DDF"/>
</svg>
