<svg width="169" height="89" viewBox="0 0 169 89" fill="none" xmlns="http://www.w3.org/2000/svg">
<path fill-rule="evenodd" clip-rule="evenodd" d="M93.77 36.1002L92.23 43.1702H95.36C96.5315 43.217 97.7047 43.1399 98.86 42.9402C99.6149 42.7372 100.294 42.3174 100.813 41.7326C101.332 41.1479 101.668 40.424 101.78 39.6502C101.858 39.3222 101.901 38.9871 101.91 38.6502C101.936 38.1382 101.782 37.6331 101.476 37.2223C101.169 36.8115 100.728 36.5207 100.23 36.4002C99.1391 36.1471 98.0189 36.0428 96.9 36.0902L93.77 36.1002ZM120.64 48.4802H128.44L127.29 36.9802H127.17L120.64 48.4802ZM63.17 46.7102L61.63 53.7902H66.39C69.34 53.7902 71.06 52.6302 71.58 50.3202C71.6593 49.9926 71.7029 49.6573 71.71 49.3202C71.71 47.5802 70.3766 46.7102 67.71 46.7102H63.17ZM65.87 36.1002L64.51 42.3002H68.28C69.2566 42.3613 70.2362 42.2426 71.17 41.9502C71.7095 41.6996 72.1803 41.3223 72.5425 40.8504C72.9047 40.3785 73.1474 39.8261 73.25 39.2402C73.3939 38.8169 73.4177 38.3621 73.3189 37.9261C73.22 37.4901 73.0024 37.09 72.69 36.7702C71.984 36.2608 71.1165 36.0262 70.25 36.1102L65.87 36.1002ZM52.77 59.1002L59 30.7902H74.94C75.45 30.7902 75.88 30.8802 76.24 30.9402C77.8536 31.143 79.3585 31.8621 80.53 32.9902C81.4124 33.9075 81.8944 35.1376 81.87 36.4102C81.8651 36.901 81.8115 37.39 81.71 37.8702C81 41.1502 78.39 43.3002 74 44.3002V44.3802C78.8 45.2269 80.5967 47.7635 79.39 51.9902C79.1285 52.9344 78.7019 53.8248 78.13 54.6202C77.0847 56.0494 75.6808 57.1774 74.06 57.8902C72.3267 58.6835 69.5866 59.0769 65.84 59.0702L52.77 59.1002ZM0.659989 50.3002H8.84999C8.75339 50.7136 8.69976 51.1358 8.68999 51.5602C8.68999 53.5602 10.08 54.5602 12.85 54.5602C15.62 54.5602 17.46 53.5602 17.94 51.4502C17.9896 51.2167 18.0164 50.9789 18.02 50.7402C18.02 49.8002 17.35 49.1502 16.02 48.8002L9.21999 47.0602C5.34999 46.0602 3.42998 44.1602 3.42998 41.3302C3.4316 40.7281 3.49867 40.1279 3.62999 39.5402C4.21514 37.0538 5.75647 34.8981 7.92 33.5402C10.5 31.7935 13.8566 30.9202 17.99 30.9202C24.9033 30.9202 28.3567 32.9935 28.35 37.1402C28.3283 37.9855 28.2211 38.8265 28.03 39.6502H19.7C19.8191 39.2266 19.8862 38.79 19.9 38.3502C19.9 36.6802 18.84 35.8502 16.73 35.8502C15.6716 35.8264 14.6291 36.1113 13.73 36.6702C13.3496 36.8905 13.019 37.1874 12.7591 37.5419C12.4992 37.8965 12.3156 38.3011 12.22 38.7302C12.1705 38.9434 12.1437 39.1613 12.14 39.3802C12.14 40.3802 12.94 41.1402 14.54 41.5502L19.72 42.8702C21.3694 43.2182 22.9594 43.8044 24.44 44.6102C25.1641 45.0347 25.7594 45.6476 26.1627 46.3837C26.566 47.1198 26.762 47.9515 26.73 48.7902C26.7251 49.4638 26.6446 50.1346 26.49 50.7902C26.1692 52.2314 25.5304 53.5827 24.6204 54.7454C23.7103 55.9081 22.552 56.8527 21.23 57.5102C18.207 59.017 14.8558 59.7457 11.48 59.6302C6.45333 59.6302 3.13999 58.5435 1.53999 56.3702C0.756456 55.2874 0.35222 53.9762 0.39 52.6402C0.407773 51.8535 0.498145 51.0702 0.659989 50.3002ZM27.43 58.5502L33.56 30.8402H55.28L54.12 36.1502H40.46L39.08 42.3002H52.28L51.08 47.6102H37.92L36.58 53.8002H50.34L49.16 59.1102H27.43V58.5502ZM140.69 58.5502L146.82 30.8402H168.54L167.37 36.1502H154.14L152.76 42.3002H166L164.8 47.6102H151.6L150.26 53.8002H163.6L162.41 59.1102H140.69V58.5502ZM63 10.4402H117.12L119.12 0.700195H65L63 10.4402ZM59.75 25.4402H113.86L115.86 15.7102H61.79L59.75 25.4402ZM49.09 74.9902H103.21L105.21 65.2502H51.13L49.09 74.9902ZM45.83 89.1402H100L102 79.4102H47.88L45.83 89.1402ZM106.1 59.1402L123.9 31.6502H133.9L139.16 59.0802H129.59L128.86 53.7702H117.76L114.69 59.0802L106.13 59.9702H97.5C97.5216 57.7384 97.6887 55.5103 98 53.3002C98.11 52.1302 98.17 51.3002 98.17 50.9002C98.2091 50.5524 98.1661 50.2002 98.0446 49.872C97.923 49.5438 97.7262 49.2486 97.47 49.0102C96.6311 48.5496 95.6722 48.3544 94.72 48.4502H91.15L88.59 59.9602H80.52L86.98 30.7602H100.4C100.4 30.7602 104.28 31.0602 105.04 31.1602C106.545 31.2534 107.956 31.9232 108.98 33.0302C109.732 33.9657 110.123 35.1406 110.08 36.3402C110.08 37.0603 110 37.7781 109.84 38.4802C109.638 39.5872 109.185 40.6333 108.516 41.5381C107.847 42.443 106.979 43.1825 105.98 43.7002C104.478 44.4523 102.858 44.9395 101.19 45.1402L101.14 45.3002C103.26 45.3502 104.69 45.7602 105.45 46.5002C105.819 46.9337 106.097 47.4365 106.269 47.9792C106.441 48.5219 106.502 49.0934 106.45 49.6602C106.45 50.1502 106.45 50.9902 106.33 52.1902C106.086 54.5051 106.019 56.8352 106.13 59.1602L106.1 59.1402Z" fill="#333333"/>
</svg>
