<svg width="815" height="581" viewBox="0 0 815 581" fill="none" xmlns="http://www.w3.org/2000/svg">
<g opacity="0.1" filter="url(#filter0_f_556_554)">
<path d="M379.704 121.28C233.745 113.768 140.419 259.285 112 332.983C112 373.958 152.07 332.983 286.775 415.786C421.479 498.59 528.902 439.688 566.414 439.688C603.927 439.688 755.682 299.691 666.164 292.008C576.645 284.326 562.151 130.67 379.704 121.28Z" fill="#FF5400"/>
</g>
<g clip-path="url(#clip0_556_554)">
<path d="M625.51 545.58C617.08 545.58 610.25 550.94 610.25 557.58C610.272 558.968 610.572 560.338 611.132 561.609C611.692 562.88 612.501 564.026 613.51 564.98H570.61C559.497 533.361 559.497 498.898 570.61 467.28H613.52C612.504 466.326 611.69 465.178 611.127 463.903C610.563 462.628 610.262 461.253 610.24 459.86C610.24 453.24 617.07 447.86 625.5 447.86C633.93 447.86 640.77 453.23 640.77 459.86C640.748 461.253 640.447 462.628 639.883 463.903C639.32 465.178 638.506 466.326 637.49 467.28H660V503.93C658.091 502.003 655.502 500.901 652.79 500.86C646.18 500.86 640.79 507.7 640.79 516.13C640.79 524.56 646.17 531.4 652.79 531.4C655.502 531.359 658.091 530.257 660 528.33V565H637.52C638.53 564.046 639.338 562.9 639.898 561.629C640.458 560.358 640.758 558.988 640.78 557.6C640.78 550.97 633.95 545.6 625.51 545.6V545.58Z" fill="#FBC343"/>
<path d="M227 305.81C227 256.797 246.47 209.791 281.126 175.133C315.782 140.475 362.787 121.003 411.8 121C513.87 121 596.62 203.74 596.62 305.81H227.07" fill="white"/>
<path d="M596.5 305.81H558.27C558.27 266.903 542.814 229.589 515.303 202.077C487.791 174.566 450.477 159.11 411.57 159.11C372.663 159.11 335.349 174.566 307.837 202.077C280.326 229.589 264.87 266.903 264.87 305.81H227C227 256.797 246.47 209.791 281.126 175.133C315.782 140.475 362.787 121.003 411.8 121C513.87 121 596.62 203.74 596.62 305.81" fill="#F9DDBF"/>
<path d="M389.28 565.85C384.869 565.834 380.637 564.103 377.478 561.025C374.318 557.946 372.48 553.759 372.35 549.35L344.62 534.84H479L451.26 549.35C451.13 553.759 449.292 557.946 446.133 561.025C442.974 564.103 438.741 565.834 434.33 565.85H389.28Z" fill="#102048"/>
<path d="M482 534H341.64L346.9 536.76L371.63 549.7C371.865 554.224 373.827 558.484 377.111 561.604C380.395 564.724 384.75 566.466 389.28 566.47H434.33C438.87 566.473 443.238 564.729 446.527 561.599C449.817 558.47 451.776 554.195 452 549.66L476.74 536.72L482 534ZM476 535.43L450.52 548.76C450.524 550.89 450.108 553.001 449.296 554.97C448.483 556.94 447.291 558.73 445.786 560.238C444.282 561.746 442.495 562.943 440.527 563.76C438.56 564.577 436.45 564.999 434.32 565H389.32C385.021 565 380.898 563.292 377.858 560.252C374.818 557.212 373.11 553.089 373.11 548.79L347.62 535.46H476" fill="white"/>
<path d="M558.27 305.92C558.27 334.934 549.666 363.297 533.547 387.422C517.427 411.547 494.516 430.35 467.71 441.453C440.904 452.556 411.407 455.462 382.95 449.801C354.493 444.141 328.354 430.169 307.837 409.653C287.321 389.136 273.349 362.997 267.689 334.54C262.028 306.083 264.933 276.586 276.037 249.78C287.14 222.974 305.943 200.063 330.068 183.943C354.192 167.824 382.555 159.22 411.57 159.22C450.477 159.22 487.791 174.676 515.302 202.187C542.814 229.699 558.27 267.013 558.27 305.92Z" fill="white"/>
<path d="M558.27 305.92C558.27 334.934 549.666 363.297 533.547 387.422C517.427 411.547 494.516 430.35 467.71 441.453C440.904 452.556 411.407 455.462 382.95 449.801C354.493 444.141 328.354 430.169 307.837 409.653C287.321 389.136 273.349 362.997 267.689 334.54C262.028 306.083 264.933 276.586 276.037 249.78C287.14 222.974 305.943 200.063 330.068 183.943C354.192 167.824 382.555 159.22 411.57 159.22C450.477 159.22 487.791 174.676 515.302 202.187C542.814 229.699 558.27 267.013 558.27 305.92Z" fill="white"/>
<path d="M476.29 478.1H347.59V407.9H476.29V478.1Z" fill="#FBC343"/>
<path d="M476.29 516.41H347.59V478.39H476.29V516.41Z" fill="#006699"/>
<path d="M507.44 237.24C498.99 237.24 492.15 242.61 492.15 249.24C492.174 250.635 492.477 252.012 493.042 253.288C493.608 254.564 494.423 255.714 495.44 256.67H460.78V223.42C459.831 224.409 458.695 225.199 457.439 225.747C456.183 226.294 454.83 226.588 453.46 226.61C446.82 226.61 441.46 219.77 441.46 211.32C441.46 202.87 446.82 196 453.46 196C454.83 196.022 456.183 196.315 457.439 196.863C458.695 197.41 459.831 198.201 460.78 199.19V167.19C481.404 174.509 500.135 186.336 515.609 201.811C531.083 217.285 542.911 236.016 550.23 256.64H519.43C520.447 255.684 521.262 254.534 521.828 253.258C522.393 251.982 522.696 250.605 522.72 249.21C522.72 242.58 515.87 237.21 507.44 237.21V237.24Z" fill="#FBD682"/>
<path d="M460.78 415.55C459.829 416.535 458.693 417.324 457.437 417.869C456.181 418.415 454.829 418.708 453.46 418.73C446.82 418.73 441.46 411.89 441.46 403.45C441.46 395.01 446.82 388.16 453.46 388.16C454.83 388.182 456.183 388.475 457.439 389.023C458.695 389.57 459.831 390.361 460.78 391.35V354.66H495.41C494.402 353.703 493.594 352.555 493.034 351.283C492.474 350.011 492.174 348.64 492.15 347.25C492.15 340.62 498.99 335.25 507.44 335.25C515.89 335.25 522.72 340.62 522.72 347.25C522.697 348.641 522.395 350.013 521.834 351.285C521.272 352.558 520.462 353.705 519.45 354.66H550.24C542.924 375.288 531.096 394.023 515.62 409.5C500.143 424.976 481.408 436.804 460.78 444.12V415.5" fill="#FBC343"/>
<path d="M507.38 335.28C498.95 335.28 492.11 340.64 492.11 347.28C492.134 348.669 492.435 350.04 492.997 351.311C493.558 352.582 494.369 353.727 495.38 354.68H460.78V317.17C461.753 318.359 462.972 319.325 464.353 319.999C465.733 320.674 467.244 321.043 468.78 321.08C475.4 321.08 480.78 314.25 480.78 305.82C480.78 297.39 475.41 290.54 468.78 290.54C467.243 290.579 465.732 290.95 464.352 291.626C462.971 292.303 461.753 293.269 460.78 294.46V257H495.4C494.384 256.046 493.569 254.898 493.004 253.623C492.439 252.349 492.135 250.974 492.11 249.58C492.11 242.95 498.95 237.58 507.38 237.58C515.81 237.58 522.65 242.95 522.65 249.58C522.625 250.974 522.321 252.349 521.756 253.623C521.191 254.898 520.376 256.046 519.36 257H550.13C561.257 288.613 561.257 323.077 550.13 354.69H519.38C520.391 353.737 521.202 352.592 521.763 351.321C522.325 350.05 522.626 348.679 522.65 347.29C522.65 340.67 515.81 335.29 507.38 335.29V335.28Z" fill="#FBC343"/>
<path d="M363.09 444.12V415.66C361.182 417.589 358.593 418.691 355.88 418.73C349.27 418.73 343.88 411.89 343.88 403.45C343.88 395.01 349.25 388.16 355.88 388.16C358.593 388.199 361.182 389.301 363.09 391.23V354.66H399.93C398.918 353.705 398.108 352.558 397.546 351.285C396.985 350.013 396.683 348.641 396.66 347.25C396.66 340.62 403.5 335.25 411.93 335.25C420.36 335.25 427.2 340.62 427.2 347.25C427.176 348.64 426.876 350.011 426.316 351.283C425.756 352.555 424.948 353.703 423.94 354.66H460.78V391.35C459.831 390.361 458.695 389.57 457.439 389.023C456.183 388.475 454.83 388.182 453.46 388.16C446.84 388.16 441.46 395.01 441.46 403.45C441.46 411.89 446.82 418.73 453.46 418.73C454.829 418.708 456.181 418.415 457.437 417.869C458.693 417.324 459.829 416.535 460.78 415.55V444.12C429.166 455.24 394.704 455.24 363.09 444.12Z" fill="#FBC343"/>
<path d="M411.93 276.43C403.5 276.43 396.66 271.06 396.66 264.43C396.69 262.955 397.029 261.503 397.654 260.166C398.279 258.83 399.177 257.639 400.29 256.67H363.09V223.54C361.182 225.469 358.593 226.571 355.88 226.61C349.27 226.61 343.88 219.77 343.88 211.32C343.88 202.87 349.27 196 355.88 196C358.593 196.039 361.182 197.141 363.09 199.07V167.22C394.704 156.1 429.166 156.1 460.78 167.22V199.22C459.833 198.226 458.699 197.43 457.442 196.877C456.186 196.324 454.832 196.026 453.46 196C446.84 196 441.46 202.84 441.46 211.28C441.46 219.72 446.82 226.57 453.46 226.57C454.83 226.548 456.183 226.255 457.439 225.707C458.695 225.16 459.831 224.369 460.78 223.38V256.63H423.57C424.684 257.597 425.584 258.788 426.209 260.125C426.834 261.461 427.172 262.915 427.2 264.39C427.2 271.02 420.37 276.39 411.93 276.39V276.43Z" fill="#FBC343"/>
<path d="M328.29 237.24C319.86 237.24 313.01 242.61 313.01 249.24C313.034 250.635 313.337 252.012 313.903 253.288C314.468 254.564 315.283 255.714 316.3 256.67H273.3C280.62 236.047 292.448 217.316 307.922 201.842C323.396 186.368 342.127 174.54 362.75 167.22V199.11C360.858 197.176 358.285 196.06 355.58 196C348.96 196 343.58 202.84 343.58 211.28C343.58 219.72 348.95 226.57 355.58 226.57C358.293 226.531 360.882 225.429 362.79 223.5V256.63H340.29C341.31 255.676 342.128 254.527 342.695 253.25C343.262 251.974 343.567 250.596 343.59 249.2C343.59 242.57 336.74 237.2 328.29 237.2V237.24Z" fill="#FBD682"/>
<path d="M507.44 237.24C498.99 237.24 492.15 242.61 492.15 249.24C492.174 250.635 492.477 252.012 493.042 253.288C493.608 254.564 494.423 255.714 495.44 256.67H460.78V223.42C459.831 224.409 458.695 225.199 457.439 225.747C456.183 226.294 454.83 226.588 453.46 226.61C446.82 226.61 441.46 219.77 441.46 211.32C441.46 202.87 446.82 196 453.46 196C454.83 196.022 456.183 196.315 457.439 196.863C458.695 197.41 459.831 198.201 460.78 199.19V167.19C481.404 174.509 500.135 186.336 515.609 201.811C531.083 217.285 542.911 236.016 550.23 256.64H519.43C520.447 255.684 521.262 254.534 521.828 253.258C522.393 251.982 522.696 250.605 522.72 249.21C522.72 242.58 515.87 237.21 507.44 237.21V237.24Z" fill="#FBC343"/>
<path d="M507.38 335.28C498.95 335.28 492.11 340.64 492.11 347.28C492.134 348.669 492.435 350.04 492.997 351.311C493.558 352.582 494.369 353.727 495.38 354.68H460.78V317.17C461.753 318.359 462.972 319.325 464.353 319.999C465.733 320.674 467.244 321.043 468.78 321.08C475.4 321.08 480.78 314.25 480.78 305.82C480.78 297.39 475.41 290.54 468.78 290.54C467.243 290.579 465.732 290.95 464.352 291.626C462.971 292.303 461.753 293.269 460.78 294.46V257H495.4C494.384 256.046 493.569 254.898 493.004 253.623C492.439 252.349 492.135 250.974 492.11 249.58C492.11 242.95 498.95 237.58 507.38 237.58C515.81 237.58 522.65 242.95 522.65 249.58C522.625 250.974 522.321 252.349 521.756 253.623C521.191 254.898 520.376 256.046 519.36 257H550.13C561.257 288.613 561.257 323.077 550.13 354.69H519.38C520.391 353.737 521.202 352.592 521.763 351.321C522.325 350.05 522.626 348.679 522.65 347.29C522.65 340.67 515.81 335.29 507.38 335.29V335.28Z" fill="#FBC343"/>
<path d="M411.93 276.43C403.5 276.43 396.66 271.06 396.66 264.43C396.69 262.955 397.029 261.503 397.654 260.166C398.279 258.83 399.177 257.639 400.29 256.67H363.09V223.54C361.182 225.469 358.593 226.571 355.88 226.61C349.27 226.61 343.88 219.77 343.88 211.32C343.88 202.87 349.27 196 355.88 196C358.593 196.039 361.182 197.141 363.09 199.07V167.22C394.704 156.1 429.166 156.1 460.78 167.22V199.22C459.833 198.226 458.699 197.43 457.442 196.877C456.186 196.324 454.832 196.026 453.46 196C446.84 196 441.46 202.84 441.46 211.28C441.46 219.72 446.82 226.57 453.46 226.57C454.83 226.548 456.183 226.255 457.439 225.707C458.695 225.16 459.831 224.369 460.78 223.38V256.63H423.57C424.684 257.597 425.584 258.788 426.209 260.125C426.834 261.461 427.172 262.915 427.2 264.39C427.2 271.02 420.37 276.39 411.93 276.39V276.43Z" fill="#FBC343"/>
<path d="M328.29 237.24C319.86 237.24 313.01 242.61 313.01 249.24C313.034 250.635 313.337 252.012 313.903 253.288C314.468 254.564 315.283 255.714 316.3 256.67H273.3C280.62 236.047 292.448 217.316 307.922 201.842C323.396 186.368 342.127 174.54 362.75 167.22V199.11C360.858 197.176 358.285 196.06 355.58 196C348.96 196 343.58 202.84 343.58 211.28C343.58 219.72 348.95 226.57 355.58 226.57C358.293 226.531 360.882 225.429 362.79 223.5V256.63H340.29C341.31 255.676 342.128 254.527 342.695 253.25C343.262 251.974 343.567 250.596 343.59 249.2C343.59 242.57 336.74 237.2 328.29 237.2V237.24Z" fill="#FBC343"/>
<path d="M550 257.55H517.5L518.77 256.3C519.721 255.416 520.483 254.35 521.01 253.164C521.538 251.978 521.82 250.698 521.84 249.4C521.84 243.19 515.31 238.14 507.29 238.14C499.27 238.14 492.73 243.14 492.73 249.4C492.75 250.698 493.032 251.978 493.56 253.164C494.087 254.35 494.849 255.416 495.8 256.3L497.07 257.55H459.9V225.21C458.023 226.695 455.703 227.508 453.31 227.52C446.31 227.52 440.58 220.34 440.58 211.52C440.58 202.7 446.29 195.52 453.31 195.52C455.703 195.532 458.023 196.345 459.9 197.83V167.46H461.37V201.12L460.12 199.89C459.242 198.964 458.189 198.222 457.022 197.707C455.854 197.192 454.596 196.914 453.32 196.89C447.11 196.89 442.06 203.41 442.06 211.44C442.06 219.47 447.11 226 453.32 226C454.596 225.978 455.855 225.701 457.023 225.186C458.19 224.67 459.243 223.927 460.12 223L461.37 221.77V256.04H493.63C492.11 254.134 491.266 251.778 491.23 249.34C491.23 242.34 498.42 236.6 507.23 236.6C516.04 236.6 523.23 242.32 523.23 249.34C523.203 251.779 522.358 254.138 520.83 256.04H550V257.5V257.55Z" fill="#FDF6E6"/>
<path d="M461.37 443.87H459.9V416.93C458.028 418.416 455.71 419.229 453.32 419.24C446.32 419.24 440.6 412.07 440.6 403.24C440.6 394.41 446.3 387.24 453.32 387.24C455.709 387.251 458.025 388.061 459.9 389.54V353.78H493.61C492.099 351.886 491.261 349.543 491.23 347.12C491.23 340.12 498.41 334.4 507.23 334.4C516.05 334.4 523.23 340.1 523.23 347.12C523.204 349.544 522.366 351.888 520.85 353.78H550V355.25H517.47L518.72 354C519.655 353.112 520.403 352.046 520.918 350.864C521.433 349.682 521.706 348.409 521.72 347.12C521.72 340.91 515.2 335.86 507.19 335.86C499.18 335.86 492.64 340.86 492.64 347.12C492.662 348.413 492.945 349.689 493.471 350.871C493.996 352.053 494.755 353.117 495.7 354L496.95 355.25H461.37V392.91L460.12 391.68C459.242 390.754 458.189 390.012 457.022 389.497C455.854 388.982 454.596 388.704 453.32 388.68C447.11 388.68 442.06 395.2 442.06 403.22C442.06 411.24 447.11 417.75 453.32 417.75C454.596 417.728 455.855 417.451 457.023 416.936C458.191 416.421 459.244 415.678 460.12 414.75L461.37 413.53V443.81V443.87Z" fill="#FDF6E6"/>
<path d="M363.67 256.67H362.21V225.11C360.35 226.536 358.074 227.316 355.73 227.33C348.73 227.33 343 220.14 343 211.33C343 202.52 348.71 195.33 355.73 195.33C358.074 195.344 360.35 196.124 362.21 197.55V167.17H363.67V200.8L362.43 199.6C360.66 197.802 358.253 196.774 355.73 196.74C349.52 196.74 344.46 203.27 344.46 211.3C344.46 219.33 349.52 225.86 355.73 225.86C358.255 225.827 360.664 224.795 362.43 222.99L363.67 221.8V256.67Z" fill="#FDF6E6"/>
<path d="M346.71 536.01V515.54H476.87V536.01H346.71Z" fill="#102048"/>
<path d="M477.75 515H346.12V536.94H477.75V515ZM476.29 516.46V535.46H347.58V516.46H476.29Z" fill="white"/>
<path d="M385.61 373.97H356.07V371.63H383.27V341.79H385.61V373.97Z" fill="#FDF6E6"/>
<path d="M235.75 562.83C215.506 554.516 197.371 541.79 182.667 525.581C167.962 509.372 157.059 490.086 150.75 469.13L193.65 471.21C192.686 470.209 191.933 469.025 191.433 467.729C190.933 466.432 190.698 465.049 190.74 463.66C191.07 457.03 198.16 452 206.59 452.41C215.02 452.82 221.59 458.52 221.28 465.14C221.19 466.527 220.823 467.883 220.202 469.126C219.58 470.369 218.716 471.476 217.66 472.38L240.11 473.47L238.32 510C236.517 507.997 234.008 506.771 231.32 506.58C224.7 506.26 219 512.84 218.59 521.27C218.18 529.7 223.22 536.8 229.84 537.12C232.551 537.208 235.189 536.231 237.19 534.4L235.8 562.83" fill="#FBC343"/>
<path d="M236.42 520.66C236.415 521.938 235.904 523.163 234.999 524.066C234.094 524.969 232.868 525.477 231.59 525.48H211.37C210.314 525.445 209.294 525.086 208.449 524.451C207.605 523.815 206.976 522.935 206.65 521.93C206.457 521.214 206.431 520.463 206.574 519.735C206.718 519.007 207.027 518.321 207.477 517.732C207.927 517.142 208.507 516.664 209.172 516.334C209.837 516.005 210.568 515.832 211.31 515.83H231.59C232.869 515.835 234.095 516.346 235 517.251C235.904 518.155 236.415 519.381 236.42 520.66ZM156 501.79V565H286.74V501.79H156Z" fill="#E5ECFF"/>
<path d="M236.14 520.8H235.66C235.657 521.887 235.224 522.928 234.456 523.696C233.688 524.464 232.646 524.897 231.56 524.9H211.41C210.32 524.847 209.292 524.377 208.539 523.586C207.786 522.796 207.366 521.746 207.366 520.655C207.366 519.563 207.786 518.514 208.539 517.724C209.292 516.933 210.32 516.463 211.41 516.41H231.56C232.098 516.411 232.63 516.519 233.126 516.726C233.622 516.934 234.072 517.238 234.45 517.62C234.836 517.995 235.142 518.445 235.35 518.942C235.558 519.438 235.663 519.972 235.66 520.51H236.79C236.787 519.115 236.233 517.777 235.247 516.79C234.261 515.802 232.925 515.245 231.53 515.24H211.38C210.669 515.209 209.96 515.322 209.294 515.573C208.628 515.823 208.02 516.206 207.506 516.698C206.992 517.19 206.583 517.781 206.304 518.435C206.024 519.09 205.88 519.794 205.88 520.505C205.88 521.216 206.024 521.92 206.304 522.575C206.583 523.229 206.992 523.82 207.506 524.312C208.02 524.804 208.628 525.186 209.294 525.437C209.96 525.688 210.669 525.801 211.38 525.77H231.53C232.924 525.767 234.26 525.212 235.246 524.226C236.232 523.241 236.787 521.904 236.79 520.51H236.14M156 501.79H155.41V565.55H287.33V501.2H155.41V501.79H156V502.37H286.16V564.37H156.58V501.79H156Z" fill="#708CD5"/>
<path d="M281.19 564.38H156.58V502.54C189.5 550.3 261.06 562 281.29 564.38" fill="#BDC9E7"/>
<path d="M286.74 565H156V501.85C156.253 502.068 156.451 502.342 156.58 502.65V564.38H281.37C284.83 564.9 286.79 565.04 286.79 565.04" fill="#607CC6"/>
<path d="M514.81 381C515.86 378.12 514.35 376.39 514.3 374.83C514.25 373.27 514.73 371.88 513.89 371.67C513.05 371.46 512.05 372.76 511.5 379.55L514.81 381Z" fill="#F9B384"/>
<path d="M515.73 383.58L514.64 388H507.75L503.54 378.59C502.94 377.46 501.29 372.9 501.44 371.94C501.72 370.15 503.9 374.59 504 374.66C503.61 373.32 502.29 369.08 502.91 368.12C503.64 366.98 505.85 371.93 506.42 373.42C506.14 372.04 504.54 366.82 505.32 366.06C506.26 365.16 508.43 370.92 508.77 372.73C508.68 371.37 508.03 366.73 508.94 366.86C510.19 367.01 512.37 375.12 512.37 375.12C513.953 377.73 515.088 380.586 515.73 383.57V383.58Z" fill="#F9B384"/>
<path d="M505 377.51C505.777 376.763 506.664 376.139 507.63 375.66C508.127 375.426 508.651 375.255 509.19 375.15C509.732 375.06 510.286 375.08 510.82 375.21V375.35C509.782 375.292 508.747 375.509 507.82 375.98C506.88 376.458 505.977 377.006 505.12 377.62L505.03 377.51H505Z" fill="#E28B6D"/>
<path d="M511.49 377C511.275 376.99 511.061 377.04 510.872 377.144C510.683 377.248 510.527 377.403 510.42 377.59C510.248 378 510.186 378.448 510.24 378.89C510.274 379.351 510.358 379.807 510.49 380.25C510.614 380.697 510.785 381.129 511 381.54L510.89 381.63C510.582 381.249 510.345 380.815 510.19 380.35C510.022 379.89 509.918 379.409 509.88 378.92C509.825 378.411 509.919 377.897 510.15 377.44C510.223 377.326 510.31 377.221 510.41 377.13C510.517 377.054 510.631 376.987 510.75 376.93C510.874 376.894 511.002 376.867 511.13 376.85H511.5V377H511.49Z" fill="#E28B6D"/>
<path d="M540.33 556.8L540.99 548.3H529.55L528 551.88C527.334 553.374 526.432 554.752 525.33 555.96C528.72 557.74 534 559.69 540.33 556.8Z" fill="#F9B384"/>
<path d="M525.29 556C523.689 557.774 521.691 559.144 519.46 560L514.35 562C514.055 562.19 513.829 562.47 513.706 562.799C513.583 563.128 513.57 563.487 513.668 563.824C513.765 564.161 513.969 564.458 514.249 564.669C514.528 564.881 514.869 564.997 515.22 565H535.93C536.954 564.998 537.94 564.612 538.692 563.917C539.444 563.222 539.907 562.27 539.99 561.25L540.33 556.88C533.96 559.78 528.68 557.83 525.33 556.04L525.29 556Z" fill="#102048"/>
<path d="M568.35 556.8L567.68 548.3H579.13L580.71 551.88C581.376 553.374 582.278 554.752 583.38 555.96C579.99 557.74 574.71 559.69 568.38 556.8H568.35Z" fill="#F9B384"/>
<path d="M583.38 556C584.985 557.769 586.982 559.139 589.21 560L594.32 562C594.615 562.19 594.841 562.47 594.964 562.799C595.087 563.128 595.1 563.487 595.003 563.824C594.905 564.161 594.701 564.458 594.421 564.669C594.142 564.881 593.801 564.997 593.45 565H572.74C571.717 564.998 570.733 564.611 569.982 563.916C569.232 563.222 568.771 562.27 568.69 561.25L568.35 556.88C574.71 559.78 579.99 557.83 583.35 556.04L583.38 556Z" fill="#102048"/>
<path d="M581.88 550.05H562.31L551.62 467.26L546.06 504.88L544.91 550.05H526.42C524.986 512.005 527.142 473.91 532.86 436.27L533.26 429.76L533.74 422.32L570.92 425L571.36 430.07L572.23 439.74L582 550.05" fill="#FF9933"/>
<path d="M557.08 443.52C548.72 443.52 538.9 441.86 532.72 438.41L532.86 436.3C536.54 436.97 545.42 437.36 553.98 437.36C561.38 437.36 568.54 437.07 571.93 436.44L572.23 439.78C570.59 442.25 564.4 443.52 557.08 443.52Z" fill="#FF9933"/>
<path d="M531.82 424.49C531.82 424.49 528.14 434.02 531.3 435.85C534.46 437.68 570.89 438.04 573.78 435.85C576.67 433.66 569.68 428.17 570.35 424.51C571.02 420.85 531.82 424.51 531.82 424.51" fill="#0099CC"/>
<path d="M528.71 385.33C527.43 388.17 522.71 396.76 522.71 396.76L515.77 383.69C514.21 384.95 512.38 386.12 506.94 386.2C506.94 386.2 514.76 415.13 521.8 418.11C533.34 422.99 536.06 401.11 536.06 401.11L528.75 385.29L528.71 385.33Z" fill="#0099CC"/>
<path d="M528.71 385.33L530.59 380.92C531.305 379.145 532.657 377.701 534.38 376.87L534.88 376.66C538.15 375.43 544.2 373.48 549.82 373.54C551.82 373.54 559.31 373.45 571.47 376.54L574.87 419.96L534.65 419.13L528.71 385.31" fill="#0099CC"/>
<path d="M566.31 423.08C565.63 423.02 564.88 422.98 564.07 422.95L554.73 420.32C555.564 420.217 556.375 419.978 557.13 419.61L572.21 419.92L566.31 423.08Z" fill="#BBC4DB"/>
<path d="M565.71 423.41L564.07 422.95C564.88 422.95 565.63 423.02 566.31 423.08L565.71 423.41Z" fill="#5874BE"/>
<path d="M574.76 418.56L572.62 391.26L572.83 391.41L577.49 417.1L574.76 418.56Z" fill="#BBC4DB"/>
<path d="M572.21 419.92L557.13 419.61C564.45 416 565.46 400.16 564.6 385.33L572.6 391.26L574.74 418.56L572.19 419.92" fill="#006699"/>
<path d="M566.38 375.38C568.81 375.91 572.86 376.47 574.87 377.84C576.88 379.21 582.55 408.55 584.01 415.32C585.47 422.09 585.84 429.02 555.85 430.12L552.93 421.9L570.48 415.13L563.75 385.33L566.38 375.38Z" fill="#0099CC"/>
<path d="M534.07 387.71C534.28 390.51 534.37 393.45 534.47 396.39L534.56 400.8C534.56 402.27 534.56 403.74 534.56 405.21H534.34C534.23 403.74 534.16 402.27 534.09 400.8L533.94 396.39C533.87 393.45 533.81 390.51 533.86 387.39L534.08 387.68L534.07 387.71Z" fill="#1F3C88"/>
<path d="M567.55 417.88V419.56L559.18 427.13L558.52 424.01L567.55 417.88Z" fill="#102048"/>
<path d="M557.92 426.03L567.51 417.88L549.46 415.62L557.92 426.03Z" fill="white"/>
<path d="M559.04 427.2H524.5L518.71 399.71H553.26L559.04 427.2Z" fill="#102048"/>
<path d="M540.77 415.21H536.97L536.25 411.41H540.06L540.77 415.21Z" fill="white"/>
<path d="M537.69 345.35C533.8 335.47 550.07 331.82 551.69 340.08C553.142 339.394 554.732 339.051 556.337 339.077C557.943 339.103 559.521 339.497 560.95 340.23C569.85 345.16 564.1 359.05 560.95 359.05L544.86 357L537.69 345.4V345.35Z" fill="#6F3428"/>
<path d="M558.19 364V374.12C558.19 376.9 555.5 379.12 552.19 379.12C548.88 379.12 546.19 376.87 546.19 374.12V364H558.19Z" fill="#F9B384"/>
<path d="M555.54 367.87C554.409 369.255 552.982 370.37 551.364 371.133C549.746 371.896 547.979 372.288 546.19 372.28V367L555.54 367.92V367.87Z" fill="#3C1C16"/>
<path d="M557.89 347.64V365C556.794 366.714 555.264 368.108 553.455 369.039C551.645 369.97 549.622 370.405 547.59 370.3C544.15 370.06 542.42 367.9 541.52 364.44C541.144 362.974 540.893 361.478 540.77 359.97C540.51 357.2 540.44 353.97 540.34 350.52V347.68H557.89" fill="#F9B384"/>
<path d="M540.54 343.84C538.4 341.66 534.05 343.08 532.77 345.71C532.395 346.498 532.191 347.356 532.172 348.228C532.153 349.1 532.319 349.966 532.659 350.769C532.999 351.573 533.506 352.295 534.145 352.888C534.785 353.481 535.543 353.931 536.37 354.21C540.79 355.7 542.59 351.05 542.59 351.05C543.147 351.701 543.869 352.191 544.68 352.469C545.49 352.746 546.36 352.802 547.2 352.63C547.892 352.503 548.54 352.2 549.081 351.75C549.623 351.3 550.039 350.718 550.29 350.06C550.29 350.06 551 355.81 558.55 355.67C560.17 355.12 560.92 348.84 560.92 348.84L555.92 343.55L540.52 343.84H540.54Z" fill="#6F3428"/>
<path d="M555.85 430.12C552.127 430.998 548.278 431.212 544.48 430.75C542.112 430.448 539.861 429.547 537.94 428.13C536.345 426.868 535.056 425.261 534.17 423.43C534.031 423.214 533.957 422.962 533.957 422.705C533.957 422.448 534.031 422.196 534.17 421.98C534.56 421.55 535.27 422.28 535.64 422.57C536.87 423.541 537.949 424.691 538.84 425.98C538.84 425.98 536 421.31 536.71 420.55C537.26 419.98 538.09 420.12 540.95 424.87C540.95 424.87 541.49 426.04 542.01 425.43C542.29 425.1 540.38 421.43 541.77 421.1C542.83 420.86 543.84 424.34 544.57 425.7C545.49 426.77 547.07 425.7 547.07 425.7L554.79 427.16L555.84 430.16L555.85 430.12Z" fill="#F9B384"/>
<path d="M546.88 425.92C546.755 425.132 546.544 424.361 546.25 423.62C546.174 423.454 546.117 423.279 546.08 423.1C546.05 422.982 546.053 422.859 546.091 422.743C546.128 422.628 546.197 422.525 546.29 422.448C546.384 422.37 546.497 422.321 546.617 422.305C546.738 422.29 546.86 422.309 546.97 422.36C547.935 422.909 548.701 423.749 549.16 424.76C549.655 425.605 549.866 426.586 549.76 427.56C549.76 427.85 547.22 427.86 547.06 427.5C547.028 427.407 547.011 427.309 547.01 427.21C546.991 426.778 546.948 426.347 546.88 425.92Z" fill="#F9B384"/>
<path d="M549.93 453.43C550.4 456.43 550.86 459.43 551.28 462.43L552.51 471.43L553.65 480.48L554.17 485.02L554.65 489.56H554.37L553.67 485.05L553.01 480.53L551.79 471.48L550.67 462.48C550.3 459.48 549.97 456.43 549.67 453.41H549.95L549.93 453.43Z" fill="#708CD5"/>
<path d="M545.21 381.48C546.158 382.354 547.27 383.031 548.483 383.47C549.695 383.91 550.982 384.103 552.27 384.04C553.55 383.968 554.8 383.627 555.94 383.04C557.089 382.442 558.141 381.673 559.06 380.76L559.22 380.9C558.365 381.936 557.328 382.807 556.16 383.47C554.973 384.127 553.654 384.513 552.3 384.6C550.934 384.669 549.569 384.44 548.3 383.93C547.053 383.424 545.936 382.645 545.03 381.65L545.18 381.5L545.21 381.48Z" fill="#1F3C88"/>
<path d="M557.31 356.54C558.09 354.54 559.62 354.04 561.1 354.73C563.45 355.83 562.67 361.92 557.31 362.05V356.54Z" fill="#F9B384"/>
<path d="M558.37 357.59C558.321 357.295 558.338 356.993 558.421 356.705C558.505 356.418 558.651 356.153 558.85 355.93C558.958 355.808 559.091 355.711 559.24 355.647C559.39 355.582 559.552 355.552 559.714 355.558C559.877 355.564 560.036 355.605 560.181 355.68C560.325 355.755 560.451 355.861 560.55 355.99L560.43 356.17C560.217 356.074 559.984 356.029 559.75 356.04C559.554 356.068 559.373 356.163 559.24 356.31C559.08 356.478 558.948 356.67 558.85 356.88C558.741 357.108 558.654 357.346 558.59 357.59H558.37Z" fill="#6F3428"/>
<path d="M545 364.87C545.432 365.005 545.878 365.085 546.33 365.11C546.775 365.16 547.225 365.16 547.67 365.11C548.112 365.07 548.546 364.969 548.96 364.81C549.378 364.647 549.777 364.439 550.15 364.19L550.3 364.34C549.982 364.718 549.591 365.028 549.15 365.25C548.704 365.466 548.223 365.602 547.73 365.65C547.243 365.698 546.752 365.682 546.27 365.6C545.783 365.525 545.317 365.351 544.9 365.09L545 364.9V364.87Z" fill="#3C1C16"/>
<path d="M626.77 352H597.54C595.79 352 594.057 351.655 592.44 350.985C590.824 350.315 589.355 349.333 588.118 348.095C586.881 346.857 585.9 345.388 585.231 343.77C584.562 342.153 584.219 340.42 584.22 338.67V334.32C584.22 330.787 585.623 327.399 588.121 324.901C590.619 322.403 594.007 321 597.54 321H626.76C628.51 321 630.243 321.345 631.86 322.015C633.476 322.685 634.945 323.667 636.182 324.905C637.419 326.143 638.4 327.612 639.069 329.23C639.738 330.847 640.081 332.58 640.08 334.33V338.62C640.088 342.159 638.69 345.556 636.195 348.065C633.699 350.574 630.309 351.989 626.77 352Z" fill="#C6EAE9"/>
<path d="M592.61 340.6L579.12 352.03H606.09L592.61 340.6Z" fill="#C6EAE9"/>
<path d="M604.88 336.63C604.88 337.2 604.711 337.756 604.395 338.23C604.078 338.704 603.629 339.073 603.102 339.291C602.576 339.509 601.997 339.566 601.438 339.455C600.88 339.344 600.366 339.069 599.964 338.666C599.561 338.264 599.287 337.751 599.175 337.192C599.064 336.633 599.121 336.054 599.339 335.528C599.557 335.002 599.926 334.552 600.4 334.235C600.874 333.919 601.431 333.75 602 333.75C602.764 333.75 603.496 334.053 604.037 334.594C604.577 335.134 604.88 335.866 604.88 336.63Z" fill="white"/>
<path d="M614.93 336.63C614.93 337.2 614.761 337.757 614.444 338.231C614.127 338.705 613.677 339.074 613.15 339.292C612.623 339.509 612.043 339.566 611.484 339.454C610.925 339.342 610.412 339.067 610.01 338.663C609.608 338.259 609.334 337.745 609.224 337.186C609.114 336.626 609.173 336.047 609.392 335.521C609.612 334.995 609.982 334.546 610.457 334.231C610.932 333.915 611.49 333.748 612.06 333.75C612.438 333.75 612.812 333.825 613.161 333.969C613.509 334.114 613.826 334.327 614.093 334.594C614.359 334.862 614.571 335.179 614.714 335.529C614.858 335.878 614.931 336.252 614.93 336.63Z" fill="white"/>
<path d="M625 336.63C625 337.2 624.831 337.756 624.515 338.23C624.198 338.704 623.748 339.073 623.222 339.291C622.696 339.509 622.117 339.566 621.558 339.455C620.999 339.344 620.486 339.069 620.084 338.666C619.681 338.264 619.406 337.751 619.295 337.192C619.184 336.633 619.241 336.054 619.459 335.528C619.677 335.002 620.046 334.552 620.52 334.235C620.994 333.919 621.55 333.75 622.12 333.75C622.884 333.75 623.616 334.053 624.156 334.594C624.697 335.134 625 335.866 625 336.63Z" fill="white"/>
<path d="M247.86 392.66C246.4 394.49 241.74 410.05 241.74 410.05C245.538 412.062 249.868 412.845 254.13 412.29C253.85 412.29 247.86 392.66 247.86 392.66Z" fill="#FF9933"/>
<path d="M262.73 558L263.3 550.67H253.42L252.05 553.76C251.479 555.05 250.703 556.239 249.75 557.28C252.67 558.82 257.23 560.5 262.75 558H262.73Z" fill="#996633"/>
<path d="M249.75 557.24C248.371 558.76 246.66 559.94 244.75 560.69L240.33 562.38C240.07 562.541 239.869 562.784 239.76 563.07C239.65 563.356 239.638 563.67 239.724 563.964C239.81 564.258 239.991 564.516 240.237 564.698C240.484 564.879 240.784 564.975 241.09 564.97H258.96C259.845 564.972 260.698 564.64 261.347 564.038C261.997 563.437 262.394 562.612 262.46 561.73L262.76 557.96C257.26 560.46 252.7 558.78 249.76 557.24H249.75Z" fill="#102048"/>
<path d="M292 558L291.43 550.67H301.31L302.68 553.76C303.251 555.05 304.027 556.239 304.98 557.28C302.06 558.82 297.5 560.5 291.98 558H292Z" fill="#996633"/>
<path d="M305 557.24C306.379 558.76 308.09 559.94 310 560.69L314.42 562.38C314.68 562.541 314.88 562.782 314.989 563.068C315.099 563.353 315.112 563.666 315.027 563.959C314.942 564.253 314.764 564.511 314.519 564.693C314.274 564.875 313.976 564.973 313.67 564.97H295.82C294.936 564.97 294.084 564.636 293.435 564.036C292.786 563.435 292.388 562.612 292.32 561.73L292 558C297.5 560.5 302.06 558.82 305 557.28V557.24Z" fill="#102048"/>
<path d="M305.47 553.56H285.53L271 466.18L266.45 553.56H248.15L249.24 463.85C247.37 455.51 247.98 449.07 250.58 442.3C251.27 440.511 252.051 438.759 252.92 437.05C253.53 435.85 254.19 434.61 254.92 433.34H286.92L287.49 437.05L287.81 439.05L305.56 553.53" fill="#0099CC"/>
<path d="M286.87 376.82L277.4 388.68L287.86 393.23L294.76 379.22L291.68 376.42L286.87 376.82Z" fill="#996633"/>
<path d="M271.88 390.64H260.92L261.66 375.72H272.62L271.88 390.64Z" fill="#996633"/>
<path d="M277.17 364.14C279.53 367.14 280.8 368.73 280.68 369.41C280.56 370.09 279.68 371.52 276.81 371.05C276.93 370.53 277.17 364.14 277.17 364.14Z" fill="#996633"/>
<path d="M277.79 372.82C277.38 375.37 276.27 377.21 273.79 377.46C269.542 377.744 265.285 377.061 261.34 375.46L260.17 361.51L265.81 357.51L277.2 359.21C277.32 361.73 277.77 364.84 277.95 367.78C278.086 369.48 278.042 371.189 277.82 372.88" fill="#996633"/>
<path d="M272.54 361C275.31 363.61 278.63 363.83 280.69 362.07C285.05 358.34 282.2 349.35 272.54 352.7C272.54 352.7 261.9 347.86 255.72 354.24C249.54 360.62 254.24 367.49 246.61 377.55C251.408 380.349 256.845 381.867 262.398 381.956C267.952 382.045 273.435 380.704 278.32 378.06C275.59 373.16 270.19 377.06 270.04 368.79C270.04 368.67 269.19 361.79 272.54 361Z" fill="#102048"/>
<path d="M266.21 445C260.908 445.034 255.641 444.151 250.64 442.39C251.02 441.39 251.44 440.39 251.91 439.39C256.07 441.44 261.64 442.13 267.15 442.13C274.027 442.11 280.874 441.223 287.53 439.49C284.08 442.32 275.77 445.03 266.21 445.03" fill="#006699"/>
<path d="M287.88 439.27C285.64 440.27 262.11 445.27 250.93 438.78C250.08 438.04 247.88 437.34 250.99 433.37C254.1 429.4 249.2 408.23 247.86 392.61C252.003 388.663 257.168 385.954 262.77 384.79C267.117 384.104 271.544 384.104 275.89 384.79C279.79 385.29 286.24 387.9 286.24 387.9L285.75 405.66C285.75 405.66 285.59 406.5 285.4 407.9C284.91 411.443 284.64 415.013 284.59 418.59C284.59 423.68 285.18 428.96 287.47 431.68C291.47 436.44 290.12 438.27 287.89 439.27" fill="#FF9933"/>
<path d="M298 399L295.3 414.16L291.82 412L291.72 411.94C291.671 411.898 291.617 411.861 291.56 411.83L278.45 403.56L272.92 384.56C278.32 385.36 284.23 385.76 287.92 389.11C290.58 391.53 294.92 395.98 297.92 399.05" fill="#FF9933"/>
<path d="M315.06 379.88C315.06 379.88 310.78 408.74 310.06 411.63C309.958 412.033 309.835 412.43 309.69 412.82C308.8 415.36 307 417.82 303.45 417.59C302.496 417.488 301.563 417.246 300.68 416.87C298.814 416.112 297.012 415.206 295.29 414.16L298 399C299.15 400.18 300.11 401.15 300.7 401.72L305.37 378.49L315.1 379.88" fill="#996633"/>
<path d="M334.42 352.24C325.99 352.24 319.15 357.6 319.15 364.24C319.175 365.628 319.476 366.997 320.035 368.268C320.595 369.539 321.402 370.685 322.41 371.64H285.57V335C283.665 336.926 281.079 338.029 278.37 338.07C271.75 338.07 266.37 331.23 266.37 322.8C266.37 314.37 271.73 307.53 278.37 307.53C281.079 307.571 283.665 308.674 285.57 310.6V273.93H322.78C321.665 274.894 320.765 276.083 320.14 277.418C319.514 278.754 319.177 280.206 319.15 281.68C319.15 288.3 325.99 293.68 334.42 293.68C342.85 293.68 349.69 288.31 349.69 281.68C349.661 280.206 349.322 278.755 348.697 277.42C348.072 276.085 347.173 274.896 346.06 273.93H383.27V311.42C384.243 310.231 385.462 309.265 386.843 308.591C388.223 307.916 389.734 307.547 391.27 307.51C397.89 307.51 403.27 314.35 403.27 322.78C403.27 331.21 397.9 338.05 391.27 338.05C389.733 338.013 388.222 337.643 386.841 336.967C385.46 336.29 384.241 335.322 383.27 334.13V371.63H346.42C347.431 370.677 348.241 369.531 348.803 368.26C349.364 366.989 349.666 365.619 349.69 364.23C349.69 357.6 342.85 352.23 334.42 352.23V352.24Z" fill="#FBC343"/>
<path d="M305.34 380.8C304.9 377.92 305.47 374.8 306.11 371.33L316.11 371.43C314.82 374.43 317.21 377.43 315.11 380L310.51 384.94L305.39 380.8H305.34Z" fill="#996633"/>
<path d="M294.76 379.22C297.22 377.56 299.96 371.36 299.96 371.36C298.05 371.26 291.14 371.1 288.46 371.36C288.46 371.36 288.46 375.08 286.87 376.82C285.87 377.82 294.76 379.22 294.76 379.22Z" fill="#996633"/>
<path d="M271.64 368.42C271.546 367.751 271.249 367.127 270.789 366.632C270.33 366.137 269.73 365.794 269.07 365.65C268.56 365.498 268.012 365.541 267.532 365.77C267.051 365.999 266.673 366.398 266.47 366.89C265.87 368.81 266.79 373.64 271.18 371.48C271.68 371.27 271.95 370.27 271.64 368.42Z" fill="#996633"/>
<path d="M251.17 418.87C250.86 417.08 250.57 415.28 250.31 413.49L249.53 408.1L248.83 402.71C248.61 400.9 248.41 399.1 248.23 397.29H248.44C248.75 399.09 249.03 400.88 249.3 402.67L250.07 408.06L250.77 413.46C250.99 415.26 251.193 417.063 251.38 418.87H251.17Z" fill="#6F3428"/>
<path d="M284.58 418.63C281.38 412.84 279.96 404.51 279.96 404.51L285.39 407.94C284.9 411.483 284.63 415.053 284.58 418.63Z" fill="#FF9933"/>
<path d="M286.24 388C285.622 388.034 285.012 388.159 284.43 388.37C283.861 388.601 283.328 388.914 282.85 389.3C282.369 389.694 281.93 390.136 281.54 390.62C281.13 391.1 280.759 391.611 280.43 392.15L280.23 392.06C280.457 391.442 280.77 390.86 281.16 390.33C281.543 389.788 281.997 389.301 282.51 388.88C283.036 388.464 283.632 388.146 284.27 387.94C284.917 387.738 285.601 387.687 286.27 387.79V388H286.24Z" fill="#6F3428"/>
<path d="M265.46 465.65C267.339 466.049 269.264 466.183 271.18 466.05C272.138 465.997 273.093 465.894 274.04 465.74C275.04 465.59 275.94 465.4 276.87 465.17L276.95 465.37C276.037 465.734 275.093 466.015 274.13 466.21C273.167 466.407 272.191 466.534 271.21 466.59C270.23 466.653 269.245 466.626 268.27 466.51C267.292 466.399 266.33 466.181 265.4 465.86L265.46 465.65Z" fill="#1F3C88"/>
<path d="M277.3 372.87C276.605 372.87 275.939 372.594 275.447 372.102C274.956 371.611 274.68 370.945 274.68 370.25C274.68 369.555 274.956 368.889 275.447 368.397C275.939 367.906 276.605 367.63 277.3 367.63C277.51 367.63 277.719 367.66 277.92 367.72C277.92 368.46 277.99 369.19 277.99 369.9C277.998 370.877 277.931 371.853 277.79 372.82C277.629 372.857 277.465 372.873 277.3 372.87Z" fill="#996633"/>
<path d="M269.28 368.07C269.04 367.69 268.76 367.3 268.46 367.22C268.38 367.202 268.297 367.201 268.216 367.216C268.135 367.232 268.058 367.264 267.99 367.31C267.804 367.422 267.626 367.549 267.46 367.69L267.29 367.58C267.386 367.336 267.541 367.12 267.74 366.95C267.858 366.851 267.996 366.781 268.146 366.745C268.295 366.708 268.45 366.707 268.6 366.74C268.872 366.841 269.1 367.036 269.24 367.29C269.37 367.51 269.449 367.756 269.47 368.01L269.28 368.07Z" fill="#6F3428"/>
<path d="M257.88 354.67C257.88 355.576 257.611 356.461 257.108 357.215C256.605 357.968 255.89 358.555 255.053 358.901C254.216 359.248 253.295 359.339 252.406 359.162C251.518 358.985 250.702 358.549 250.061 357.909C249.421 357.268 248.985 356.452 248.808 355.564C248.631 354.675 248.722 353.754 249.069 352.917C249.415 352.081 250.002 351.365 250.755 350.862C251.509 350.359 252.394 350.09 253.3 350.09C253.901 350.09 254.497 350.209 255.053 350.439C255.608 350.669 256.113 351.006 256.539 351.432C256.964 351.857 257.301 352.362 257.531 352.917C257.762 353.473 257.88 354.069 257.88 354.67Z" fill="#102048"/>
<path d="M303.9 417.61H303.42C302.466 417.508 301.533 417.266 300.65 416.89C301.028 415.566 301.846 414.41 302.97 413.613C304.093 412.817 305.455 412.428 306.83 412.51C307.782 412.52 308.731 412.63 309.66 412.84C308.81 415.26 307.13 417.63 303.9 417.63" fill="#996633"/>
<path d="M316.59 369.69C316.52 370.06 316.3 370.46 316.2 370.96C315.962 372.42 315.628 373.864 315.2 375.28L312.33 373.82C312.956 371.793 313.883 369.872 315.08 368.12C315.49 367.61 315.76 367.28 316.21 367.7C316.432 367.977 316.58 368.306 316.639 368.656C316.698 369.006 316.668 369.365 316.55 369.7L316.59 369.69Z" fill="#996633"/>
<path d="M316.59 369.69C315.4 369.36 316 368.8 316.25 367.69C316.472 367.967 316.619 368.296 316.679 368.646C316.738 368.996 316.708 369.355 316.59 369.69Z" fill="#FF9933"/>
<path d="M290.3 367.74C290.24 368.11 290.3 368.56 290.23 369.07C289.952 370.52 289.765 371.987 289.67 373.46L292.87 373.06C292.962 370.939 292.74 368.816 292.21 366.76C292 366.14 291.86 365.76 291.3 365.99C290.74 366.22 290.47 366.7 290.3 367.74Z" fill="#996633"/>
<path d="M290.3 367.74C291.53 367.83 291.15 367.11 291.3 365.99C290.87 366.16 290.47 366.7 290.3 367.74Z" fill="#FF9933"/>
<path d="M292.91 370.7C292.904 371.014 293.019 371.318 293.23 371.55C293.42 371.77 293.76 371.95 293.94 372.34C294.075 372.698 294.075 373.092 293.94 373.45C293.834 373.786 293.664 374.098 293.44 374.37L293.32 374.29C293.461 373.993 293.568 373.681 293.64 373.36C293.73 373.074 293.73 372.766 293.64 372.48C293.55 372.22 293.25 372.05 293.02 371.74C292.908 371.592 292.83 371.421 292.79 371.24C292.751 371.059 292.751 370.871 292.79 370.69L292.91 370.7Z" fill="#996633"/>
<path d="M313.49 371.14C313.412 371.623 313.159 372.061 312.78 372.37C312.4 372.71 311.92 372.8 311.71 373.13C311.47 373.478 311.338 373.888 311.33 374.31C311.295 374.752 311.346 375.197 311.48 375.62H311.34C311.12 375.197 311.007 374.727 311.01 374.25C310.997 373.755 311.14 373.269 311.42 372.86C311.76 372.42 312.28 372.33 312.59 372.08C312.934 371.827 313.198 371.48 313.35 371.08H313.49V371.14Z" fill="#996633"/>
<path d="M250.89 433.54V433.49L251.01 433.42L250.91 433.54" fill="#D4C2BE"/>
<path d="M260.83 437.28C260.33 437.28 259.83 437.28 259.33 437.21C258.282 437.087 257.246 436.883 256.23 436.6C255.211 436.315 254.223 435.929 253.28 435.45C252.317 435.011 251.491 434.32 250.89 433.45L250.99 433.33L251.11 433.25C251.784 433.989 252.619 434.564 253.55 434.93C254.484 435.335 255.446 435.669 256.43 435.93C257.415 436.214 258.417 436.438 259.43 436.6C260.42 436.778 261.424 436.871 262.43 436.88V437.17C261.882 437.267 261.326 437.314 260.77 437.31" fill="#C85D49"/>
<path d="M183.65 377.48H212.87C216.405 377.48 219.796 376.076 222.296 373.576C224.796 371.076 226.2 367.685 226.2 364.15V360.09C226.2 356.555 224.796 353.164 222.296 350.664C219.796 348.164 216.405 346.76 212.87 346.76H183.66C180.125 346.76 176.734 348.164 174.234 350.664C171.734 353.164 170.33 356.555 170.33 360.09V364.22C170.334 365.965 170.682 367.693 171.353 369.304C172.025 370.915 173.007 372.377 174.244 373.609C175.481 374.84 176.948 375.816 178.562 376.48C180.176 377.144 181.905 377.484 183.65 377.48Z" fill="#D3DFFF"/>
<path d="M217.8 366.34L231.28 377.77H204.31L217.8 366.34Z" fill="#D3DFFF"/>
<path d="M205.52 362.23C205.52 362.8 205.689 363.357 206.005 363.83C206.322 364.304 206.772 364.673 207.298 364.891C207.824 365.109 208.403 365.166 208.962 365.055C209.521 364.944 210.034 364.669 210.436 364.267C210.839 363.864 211.114 363.351 211.225 362.792C211.336 362.233 211.279 361.654 211.061 361.128C210.843 360.602 210.474 360.152 210 359.835C209.526 359.519 208.97 359.35 208.4 359.35C207.636 359.35 206.904 359.654 206.364 360.194C205.823 360.734 205.52 361.466 205.52 362.23Z" fill="white"/>
<path d="M195.47 362.23C195.47 362.8 195.639 363.357 195.955 363.83C196.272 364.304 196.722 364.673 197.248 364.891C197.774 365.109 198.353 365.166 198.912 365.055C199.47 364.944 199.984 364.669 200.386 364.267C200.789 363.864 201.064 363.351 201.175 362.792C201.286 362.233 201.229 361.654 201.011 361.128C200.793 360.602 200.424 360.152 199.95 359.835C199.476 359.519 198.92 359.35 198.35 359.35C197.586 359.35 196.854 359.654 196.313 360.194C195.773 360.734 195.47 361.466 195.47 362.23Z" fill="white"/>
<path d="M185.42 362.23C185.42 362.8 185.589 363.357 185.906 363.831C186.223 364.305 186.673 364.674 187.2 364.892C187.727 365.11 188.307 365.166 188.865 365.054C189.424 364.942 189.938 364.667 190.34 364.263C190.742 363.859 191.016 363.345 191.126 362.786C191.236 362.226 191.177 361.647 190.958 361.121C190.738 360.595 190.368 360.146 189.893 359.831C189.418 359.515 188.86 359.348 188.29 359.35C187.912 359.35 187.538 359.425 187.189 359.57C186.84 359.714 186.524 359.927 186.257 360.194C185.99 360.462 185.779 360.779 185.636 361.129C185.492 361.478 185.419 361.852 185.42 362.23Z" fill="white"/>
<path d="M113 565.55H698V564.38H113" fill="#102048"/>
</g>
<defs>
<filter id="filter0_f_556_554" x="-9" y="0" width="824" height="581" filterUnits="userSpaceOnUse" color-interpolation-filters="sRGB">
<feFlood flood-opacity="0" result="BackgroundImageFix"/>
<feBlend mode="normal" in="SourceGraphic" in2="BackgroundImageFix" result="shape"/>
<feGaussianBlur stdDeviation="60.5" result="effect1_foregroundBlur_556_554"/>
</filter>
<clipPath id="clip0_556_554">
<rect width="585" height="445.43" fill="white" transform="translate(113 121)"/>
</clipPath>
</defs>
</svg>
