<svg width="809" height="652" viewBox="0 0 809 652" fill="none" xmlns="http://www.w3.org/2000/svg">
<g opacity="0.15" filter="url(#filter0_f_0_1)">
<path d="M386.048 532.719C235.38 547.024 147.49 438.013 122.379 381.719C119.074 368.473 114.449 339.597 122.379 330.061C132.291 318.14 152.116 230.718 177.888 181.047C203.66 131.376 326.574 127.403 407.855 119.455C489.137 111.508 558.524 137.337 629.893 167.139C701.262 196.942 697.297 381.719 681.437 425.429C665.577 469.14 574.383 514.837 386.048 532.719Z" fill="#00A3C4"/>
</g>
<g clip-path="url(#clip0_0_1)">
<path d="M364.045 158.19C360.625 160.24 358.805 164.1 356.165 167.09C353.525 170.08 348.785 172.2 345.675 169.72C344.965 169.072 344.391 168.289 343.988 167.417C343.584 166.545 343.359 165.601 343.325 164.64C343.089 161.869 343.74 159.096 345.185 156.72C346.675 154.3 348.945 152.39 350.185 149.84C351.425 147.29 351.185 143.56 348.605 142.36C347.215 141.71 345.455 141.97 344.215 141.05C341.985 139.41 343.585 135.54 346.215 134.56C348.845 133.58 351.675 134.34 354.435 134.56C364.435 135.2 371.805 128.65 379.335 123.2C385.185 118.97 397.655 113.97 404.425 118.29C407.135 120.02 408.185 124.46 405.635 126.41C404.505 127.28 402.925 127.47 401.865 128.41C400.595 129.57 400.415 131.47 399.685 133.03C397.795 137.03 392.325 138.56 390.565 142.67C389.515 145.14 389.985 148.22 388.355 150.36C387.065 152.06 384.815 152.66 382.735 153.16L369.685 156.26C367.718 156.612 365.815 157.262 364.045 158.19Z" fill="#EBEBEB"/>
<path d="M480.745 370.77C476.415 377.3 475.625 385.45 474.425 393.19C473.225 400.93 471.165 409.19 465.215 414.25C459.265 419.31 448.345 419.05 445.075 411.93C443.295 408.07 444.205 403.51 443.235 399.37C441.975 393.98 437.685 389.82 435.645 384.67C433.905 380.28 433.905 375.42 433.765 370.67C432.985 344.86 426.695 317.93 409.125 299.01C406.965 296.68 404.515 294.42 401.445 293.61C399.609 293.153 397.68 293.237 395.891 293.853C394.102 294.468 392.53 295.589 391.365 297.08C389.955 298.95 389.225 301.33 387.495 302.91C383.745 306.34 377.185 303.91 374.685 299.46C372.185 295.01 372.515 289.62 372.935 284.55L374.495 265.7C374.775 262.41 375.145 258.89 377.295 256.39C380.365 252.84 385.865 252.68 389.615 249.87C394.535 246.18 395.195 239.15 398.295 233.87C401.395 228.59 411.115 226.32 412.545 232.3C422.815 210.3 445.545 242.97 459.015 240.52C462.935 239.81 466.765 237.92 470.705 238.52C477.705 239.52 481.275 247.18 483.645 253.8C487.572 264.8 491.505 275.8 495.445 286.8C496.945 290.99 498.885 295.65 503.035 297.26C506.215 298.49 509.905 297.55 513.105 298.71C521.575 301.8 518.825 315.13 512.005 321.02C505.185 326.91 495.625 330.64 492.385 339.02C489.945 345.36 491.895 352.78 489.265 359.02C487.385 363.48 483.435 366.72 480.745 370.77Z" fill="#EBEBEB"/>
<path d="M512.895 377.94C510.115 378.33 506.825 376.94 504.715 378.8C503.475 379.88 503.205 381.66 502.715 383.22C502.104 385.437 500.702 387.355 498.775 388.61C497.804 389.211 496.68 389.52 495.537 389.499C494.395 389.477 493.283 389.127 492.335 388.49C491.436 387.801 490.841 386.789 490.677 385.669C490.513 384.548 490.792 383.408 491.455 382.49C492.218 381.78 493.019 381.112 493.855 380.49C497.545 377 495.015 370.49 497.855 366.37C499.515 363.92 502.125 361.44 503.945 358.96C505.335 357.05 505.855 355.54 508.425 355.03C519.655 352.83 524.745 376.28 512.895 377.94Z" fill="#EBEBEB"/>
<g opacity="0.6">
<path d="M313.565 431.97C314.565 432.63 315.635 433.26 316.705 433.89C315.635 433.26 314.595 432.63 313.565 431.97Z" fill="#263238"/>
</g>
<g opacity="0.6">
<path d="M232.775 278.49C232.775 278.81 232.715 279.11 232.715 279.44C232.715 280.44 232.715 281.52 232.715 282.56C232.715 281.56 232.715 280.47 232.715 279.44C232.715 279.11 232.745 278.81 232.775 278.49Z" fill="#263238"/>
</g>
<path d="M255.155 331.07C254.605 326.12 256.245 321.18 256.335 316.17C256.385 312.73 256.135 309.09 256.085 305.62C253.129 305.491 250.192 305.079 247.315 304.39C246.693 304.324 246.117 304.032 245.695 303.57C245.401 303.008 245.279 302.371 245.345 301.74C245.125 297.86 241.345 295.29 238.015 293.35C236.332 292.298 234.546 291.42 232.685 290.73C232.685 291.14 232.685 291.52 232.685 291.93C233.344 310.674 237.06 329.184 243.685 346.73C246.626 354.529 250.152 362.094 254.235 369.36C255.925 372.5 257.785 375.59 259.725 378.62C262.135 382.37 264.645 386.03 267.355 389.56C269.865 392.94 272.545 396.25 275.355 399.42C279.219 403.818 283.304 408.017 287.595 412C291.395 415.56 295.355 418.92 299.485 422.12C290.055 396.81 281.175 370.98 265.045 349.44C260.815 343.8 255.945 338.07 255.155 331.07Z" fill="#EBEBEB"/>
<path d="M256.385 298.93L255.385 298.76C252.385 298.44 248.795 298.27 247.135 295.76C245.195 292.83 247.135 288.49 245.135 285.62C244.135 284.12 242.285 283.46 240.815 282.39C239.345 281.32 238.075 279.39 238.985 277.8C239.715 276.46 241.635 276.19 242.585 274.96C242.965 274.471 243.17 273.869 243.17 273.25C243.17 272.631 242.965 272.029 242.585 271.54C239.465 267.85 235.995 275.37 234.275 277.15C233.838 277.614 233.374 278.051 232.885 278.46C232.885 278.78 232.825 279.08 232.825 279.41C232.825 280.41 232.825 281.49 232.825 282.53C232.825 283.57 232.765 284.6 232.765 285.64C232.765 286.49 232.765 286.45 232.765 287.29C232.765 288.13 232.825 289.87 232.845 290.7C234.706 291.39 236.492 292.268 238.175 293.32C241.545 295.26 245.285 297.83 245.505 301.71C245.44 302.341 245.562 302.977 245.855 303.54C246.277 304.002 246.853 304.294 247.475 304.36C250.352 305.049 253.289 305.461 256.245 305.59" fill="#EBEBEB"/>
<path d="M256.085 305.62C256.135 309.09 256.385 312.73 256.335 316.17C256.245 321.17 254.605 326.17 255.155 331.07C255.945 338.07 260.815 343.8 265.045 349.43C281.175 370.97 290.045 396.8 299.485 422.11C301.235 423.5 303.005 424.81 304.815 426.11C306.235 427.11 307.665 428.11 309.115 429.11C310.565 430.11 312.045 431.04 313.535 431.97C314.535 432.63 315.605 433.26 316.675 433.89C316.535 433.58 316.395 433.31 316.265 433.01C312.465 424.67 312.265 412.65 320.415 408.52C321.975 407.73 323.755 407.29 325.035 406.09C328.675 402.65 325.695 395.54 329.325 392.09C331.375 390.17 334.575 390.31 337.115 389.16C341.685 387.06 343.115 381.21 342.805 376.16C342.495 371.11 340.805 366.16 341.355 361.16C342.255 353.59 348.155 345.91 344.765 339.08C340.965 331.46 329.905 332.69 322.115 329.27C311.265 324.54 307.895 311 300.795 301.5C294.425 292.97 279.565 283.6 268.245 286.16C260.045 288.02 257.245 292.92 256.385 298.93" fill="#EBEBEB"/>
<path d="M243.455 235.39C246.685 232.63 252.255 232.3 254.745 235.74C256.525 238.2 256.115 241.56 255.645 244.57C255.018 248.61 254.382 252.653 253.735 256.7C253.431 257.903 253.487 259.168 253.895 260.34C255.105 262.91 259.305 262.41 260.895 260.12C262.485 257.83 262.345 254.68 261.895 251.89C261.445 249.1 260.895 246.13 261.975 243.5C264.705 237 274.415 237.98 280.045 233.75C283.535 231.12 285.095 226.75 287.175 222.87C289.255 218.99 292.725 215.16 297.095 215.35C298.565 215.41 300.015 215.95 301.495 215.9C305.815 215.76 308.325 209.45 305.265 206.39C304.547 205.806 303.906 205.134 303.355 204.39C302.585 202.94 303.405 201.08 304.715 200.1C306.109 199.248 307.686 198.741 309.315 198.62C313.005 198.02 316.695 197.45 320.375 196.87C324.455 196.25 329.675 194.14 329.095 190.07C328.605 186.54 323.825 184.96 323.095 181.46C323.041 180.588 322.883 179.725 322.625 178.89C321.505 176.65 318.145 177.55 315.985 178.75C315.115 175.5 310.465 174.03 307.865 176.16C305.685 177.96 305.415 181.16 304.645 183.84C302.845 190.4 297.645 195.37 292.645 199.99C290.985 201.52 289.095 203.16 286.825 203.27C284.555 203.38 282.235 201 283.275 199C283.985 197.63 285.955 196.84 285.765 195.31C285.495 193.4 282.155 193.54 281.505 191.7C282.815 186.29 289.015 184.05 293.775 181.15C299.602 177.607 304.03 172.165 306.315 165.74C306.563 165.253 306.706 164.719 306.735 164.173C306.765 163.627 306.679 163.081 306.485 162.57C305.775 161.2 303.935 160.99 302.385 160.99C298.715 160.93 294.155 161.42 292.815 164.84C292.105 166.67 292.625 168.75 292.185 170.66C290.905 176.34 283.115 176.97 278.355 180.36C276.505 181.67 275.055 183.51 273.005 184.52C270.785 185.58 268.195 185.52 265.735 185.69C265.295 185.69 264.855 185.77 264.415 185.83C262.915 187.923 261.468 190.053 260.075 192.22C258.682 194.387 257.332 196.583 256.025 198.81C249.843 209.374 244.814 220.571 241.025 232.21C239.685 236.29 238.505 240.45 237.475 244.66C236.445 248.87 235.585 253.16 234.875 257.49C236.565 253.99 237.335 249.67 237.985 246.61C238.895 242.46 240.265 238.15 243.455 235.39Z" fill="#EBEBEB"/>
<path d="M577.595 297C577.595 297 573.255 300.17 570.655 300.12C566.505 300.06 563.085 296.59 561.415 292.77C559.745 288.95 559.345 284.7 558.225 280.69C557.615 278.53 556.605 276.23 554.585 275.27C553.245 274.65 551.665 274.73 550.245 274.27C545.125 272.74 543.735 265.61 538.895 263.39C537.335 262.813 535.696 262.476 534.035 262.39C527.555 261.63 520.865 259.39 516.785 254.3C515.445 252.66 514.435 250.72 512.785 249.38C511.135 248.04 508.555 247.47 506.935 248.84C508.305 251.57 509.645 254.3 510.985 257.01C512.215 259.47 513.475 262.01 515.525 263.81C517.575 265.61 520.655 266.6 523.145 265.45C523.902 264.918 524.792 264.606 525.715 264.55C526.385 264.688 526.98 265.069 527.385 265.62C530.905 269.53 529.765 276 526.315 279.99C522.865 283.98 517.815 285.99 512.925 287.99C511.175 288.68 509.315 289.39 507.455 289.06C504.065 288.43 502.265 284.74 501.285 281.43C499.065 274.11 498.005 266.16 493.465 259.98C492.015 258.04 490.215 256.26 489.335 253.98C488.405 251.52 488.625 248.66 487.155 246.5C485.685 244.34 482.365 242.92 482.155 240.18C482.015 238.27 483.595 236.57 485.345 235.76C487.095 234.95 489.065 234.66 490.865 233.92C491.585 233.62 492.375 233.1 492.395 232.34C492.395 231.19 490.815 230.73 490.395 229.66C489.975 228.59 491.185 227.34 491.705 226.16C492.825 223.48 490.035 220.78 487.335 219.69C484.635 218.6 481.405 217.8 480.145 215.18C479.688 213.919 479.396 212.605 479.275 211.27C478.645 207.96 476.205 204.76 472.875 204.27C469.545 203.78 465.795 206.7 466.345 210.03C466.675 211.86 468.035 213.29 468.775 215.03C469.515 216.77 469.325 219.24 467.575 219.79C464.705 220.66 461.945 215.41 459.575 217.22C460.575 220.58 461.515 223.94 462.505 227.33C458.735 229.24 454.225 225.77 452.605 221.83C450.985 217.89 450.945 213.44 449.025 209.67C447.105 205.9 441.895 203 438.655 205.68C438.485 210.54 444.905 212.51 447.755 216.45C449.805 219.29 449.505 223.91 446.465 225.71C443.425 227.51 438.675 224.37 439.825 221.06C440.235 219.92 441.195 218.96 441.305 217.73C441.415 216.2 440.125 214.97 438.955 213.99C437.125 212.43 435.285 210.9 433.455 209.37C432.336 208.288 431.005 207.451 429.545 206.91C425.775 205.81 422.005 208.91 420.015 212.24C418.025 215.57 416.895 219.59 414.135 222.4C410.135 226.5 402.655 226.75 398.935 222.46C395.215 218.17 397.105 210.13 402.605 208.57C404.675 208 407.305 208.06 408.395 206.22C410.305 202.97 404.845 198.82 406.725 195.54C408.175 193.02 412.005 194.17 414.795 193.32C417.585 192.47 419.105 189.69 420.795 187.32C422.485 184.95 424.955 182.54 427.795 183.17C427.575 181.5 427.355 179.7 428.095 178.17C428.835 176.64 430.915 175.65 432.275 176.64C430.885 178.93 432.555 182.13 434.985 183.28C437.415 184.43 440.255 184.15 442.935 183.85C445.615 183.55 448.935 182.54 449.195 179.85C449.275 178.98 448.945 178.05 449.275 177.23C450.455 174.03 456.355 178.43 458.625 175.86C459.935 174.52 458.485 172.14 456.625 171.71C454.765 171.28 452.935 171.92 451.075 171.98C449.215 172.04 446.955 171.08 446.865 169.22C446.775 167.36 448.865 166.08 449.055 164.27C449.415 161.21 444.215 160.42 442.385 162.91C440.555 165.4 441.215 168.81 441.755 171.84C442.295 174.87 442.605 178.46 440.365 180.59C439.365 182.04 436.925 181.27 436.105 179.74C435.285 178.21 435.445 176.35 435.305 174.63C435.165 172.91 434.405 170.91 432.715 170.45C431.535 170.12 430.285 170.69 429.075 170.86C424.325 171.43 421.015 165.28 422.515 160.75C424.015 156.22 428.315 153.26 432.515 150.93C435.575 149.24 439.375 147.65 442.405 149.38C443.825 150.17 444.815 151.54 446.205 152.38C448.615 153.8 451.595 153.28 454.355 153.38C458.729 153.506 462.925 155.138 466.235 158C467.465 159.12 468.615 161 467.665 162.32C466.715 163.64 463.665 164.04 464.165 165.71C464.969 165.931 465.81 165.981 466.634 165.855C467.458 165.729 468.247 165.431 468.948 164.98C469.649 164.529 470.247 163.935 470.703 163.237C471.159 162.539 471.463 161.753 471.595 160.93C472.378 161.293 473.054 161.851 473.556 162.552C474.059 163.253 474.372 164.072 474.465 164.93C477.935 161.4 484.605 161.93 487.465 166C488.235 167.06 488.775 168.35 489.875 169.08C490.975 169.81 492.875 169.44 493.015 168.16C493.042 167.745 492.966 167.329 492.795 166.95C492.145 165.09 491.455 163.26 490.795 161.43C493.335 160.07 496.345 162.2 498.065 164.49C504.455 173.05 509.065 167.91 518.065 169.3C524.155 170.23 526.835 174.14 530.275 178.87C540.825 193.41 554.765 205.32 564.355 220.52C565.355 222.11 566.295 223.72 567.175 225.36C567.995 227.54 568.768 229.74 569.495 231.96C570.222 234.18 570.905 236.413 571.545 238.66C573.253 244.242 574.635 249.918 575.685 255.66C575.685 255.66 576.885 265.42 577.175 268.6C577.395 271.04 577.615 273.48 577.745 275.93C577.875 278.38 577.955 280.85 577.965 283.34L577.595 297Z" fill="#EBEBEB"/>
<path d="M255.265 562.37L260.865 521.15L380.445 515.44L388.865 562.49L255.265 562.37Z" fill="#263238"/>
<path d="M367.305 391.37L403.185 431.18C409.105 437.75 413.375 443.73 421.885 446.13C427.885 447.81 440.405 448.51 443.575 444.59C447.925 439.22 450.625 429.93 444.575 418.25C440.575 410.64 405.805 379.56 405.805 379.56L367.345 391.37" fill="#C27461"/>
<path d="M379.125 398C379.325 400 388.705 419.54 388.705 419.54L419.505 399.45C419.505 399.45 399.685 352.35 385.205 349.18L379.125 398Z" fill="#E38631"/>
<path d="M431.895 343.12L432.335 328.12L431.335 309.06L428.335 293.2C428.335 293.2 427.545 291.65 425.545 292.82C423.545 293.99 425.275 302.65 425.275 302.65L425.585 309.16C425.585 309.16 424.415 314.16 424.035 313.76C423.655 313.36 422.405 304.55 422.405 304.55L418.775 285.69C418.51 285.11 418.033 284.652 417.442 284.411C416.852 284.169 416.191 284.162 415.595 284.39C414.305 284.8 413.465 286.67 413.595 289.46C413.725 292.25 414.975 296.98 415.105 298.56C415.235 300.14 416.275 309.32 416.275 309.32L409.895 288.26C409.895 288.26 408.715 281.4 405.895 282.38C403.075 283.36 404.945 288.29 405.075 290.38C405.205 292.47 409.345 306.87 408.995 310.87C408.645 314.87 407.995 312.87 407.995 312.87C407.995 312.87 406.335 306.26 404.995 301.05C403.655 295.84 401.715 292.82 399.455 292.44C397.195 292.06 400.225 304.13 400.225 304.13L404.055 321L403.105 326.37L399.345 321.54C399.345 321.54 399.235 315.21 395.275 312.54C391.315 309.87 390.275 312.86 390.275 312.86L397.655 337.37C399.395 341.37 410.655 349.17 410.655 349.17L412.655 373.74L437.765 373.24L431.895 343.12Z" fill="#C27461"/>
<path d="M423.055 334.27C422.925 334.39 421.735 333.19 419.695 331.46C417.655 329.73 414.515 327.46 410.515 327.66C408.86 327.688 407.262 328.269 405.975 329.31L405.555 329.68L405.195 329.2C403.585 327.07 401.855 325.2 400.825 323.89C399.795 322.58 399.215 321.66 399.335 321.59C400.058 322.151 400.727 322.777 401.335 323.46C402.525 324.73 404.235 326.31 406.105 328.65L405.325 328.53C406.761 327.278 408.591 326.57 410.495 326.53C412.541 326.466 414.566 326.957 416.355 327.95C417.78 328.736 419.092 329.711 420.255 330.85C422.175 332.8 423.145 334.18 423.055 334.27Z" fill="#7D4336"/>
<path d="M416.545 428.68L411.225 352.21L432.475 345.55L447.915 428.68H416.545Z" fill="#C27461"/>
<path d="M370.495 254C372.593 254.36 374.75 253.929 376.549 252.79C378.347 251.651 379.66 249.886 380.232 247.836C380.804 245.786 380.596 243.596 379.647 241.69C378.698 239.785 377.076 238.299 375.095 237.52C376.486 236.252 377.441 234.579 377.826 232.737C378.211 230.896 378.006 228.979 377.24 227.261C376.474 225.542 375.185 224.109 373.558 223.165C371.931 222.22 370.047 221.813 368.175 222C368.204 220.15 367.753 218.324 366.866 216.7C365.979 215.076 364.687 213.709 363.115 212.733C361.543 211.757 359.745 211.205 357.896 211.131C356.047 211.057 354.21 211.463 352.565 212.31C350.586 210.491 348.054 209.388 345.374 209.18C342.694 208.971 340.021 209.669 337.785 211.16C336.005 210.721 334.131 210.866 332.439 211.573C330.747 212.279 329.326 213.511 328.387 215.085C327.447 216.66 327.038 218.494 327.22 220.319C327.401 222.143 328.164 223.861 329.395 225.22" fill="#263238"/>
<path d="M371.565 301.91C372.245 292.47 372.045 272.91 371.665 255.25C371.465 246.083 367.823 237.328 361.462 230.724C355.101 224.121 346.488 220.153 337.335 219.61L335.445 219.5C315.035 219.5 303.625 236.82 304.175 257.22L301.045 335.79L313.365 346.93C315.99 349.299 319.12 351.04 322.517 352.018C325.915 352.997 329.491 353.189 332.974 352.578C336.457 351.968 339.755 350.572 342.618 348.497C345.48 346.421 347.832 343.721 349.495 340.6L350.445 323.33C350.445 323.33 370.175 321.44 371.565 301.91Z" fill="#C27461"/>
<path d="M350.605 323.31C341.526 322.786 332.788 319.662 325.435 314.31C325.435 314.31 330.625 328.74 350.235 328.13L350.605 323.31Z" fill="#7D4336"/>
<path d="M337.965 287.87C338.455 287.87 338.265 291.13 340.965 293.61C343.665 296.09 347.105 295.93 347.105 296.39C347.105 296.6 346.295 296.98 344.825 296.93C342.914 296.841 341.094 296.084 339.685 294.79C338.333 293.546 337.519 291.824 337.415 289.99C337.335 288.62 337.745 287.83 337.965 287.87Z" fill="#263238"/>
<path d="M370.315 246.18C370.315 246.18 365.885 233.63 360.145 230.42C353.205 226.54 349.665 234.21 342.965 231.9C336.265 229.59 329.645 225.9 322.375 230.73C314.375 236.04 317.745 240.3 316.765 248.94C312.765 284 305.765 293.56 304.925 276.89C304.825 275.06 299.875 273.32 299.585 265.61C299.205 255.61 299.535 243.52 302.165 236.61C304.385 230.78 308.015 226.87 314.365 222.7C324.365 216.11 337.585 216.7 346.485 218.16C355.385 219.62 372.035 230.89 370.315 246.18Z" fill="#263238"/>
<path d="M306.195 276.43C306.214 275.712 306.087 274.997 305.822 274.329C305.557 273.661 305.159 273.054 304.652 272.544C304.145 272.035 303.54 271.634 302.874 271.365C302.208 271.096 301.493 270.965 300.775 270.98C297.105 271.11 292.925 272.98 292.775 280.49C292.415 293.88 305.925 291.49 305.965 291.1C306.005 290.71 306.095 282 306.195 276.43Z" fill="#C27461"/>
<path d="M303.135 286C303.075 286 302.895 286.16 302.495 286.33C301.936 286.553 301.314 286.553 300.755 286.33C299.355 285.77 298.225 283.49 298.225 281.08C298.219 279.932 298.472 278.797 298.965 277.76C299.103 277.346 299.339 276.97 299.652 276.666C299.965 276.361 300.347 276.136 300.765 276.01C301.035 275.947 301.319 275.98 301.568 276.104C301.816 276.229 302.013 276.436 302.125 276.69C302.295 277.07 302.205 277.33 302.275 277.36C302.345 277.39 302.565 277.14 302.475 276.59C302.407 276.256 302.232 275.954 301.975 275.73C301.612 275.446 301.154 275.313 300.695 275.36C300.143 275.453 299.623 275.685 299.185 276.035C298.748 276.385 298.407 276.841 298.195 277.36C297.594 278.504 297.281 279.778 297.285 281.07C297.285 283.77 298.615 286.33 300.535 286.94C300.891 287.055 301.269 287.088 301.64 287.036C302.01 286.984 302.364 286.849 302.675 286.64C303.105 286.3 303.175 286 303.135 286Z" fill="#7D4336"/>
<path d="M307.985 250.55C309.655 251.84 311.415 253.17 313.495 253.5C315.575 253.83 318.035 252.77 318.495 250.72C318.705 249.8 318.495 248.72 319.195 248.02C319.895 247.32 321.305 247.56 322.415 247.74C324.36 248.009 326.338 247.6 328.017 246.582C329.696 245.564 330.974 243.999 331.635 242.15C332.535 243.69 334.855 243.76 336.415 242.88C337.975 242 339.025 240.48 340.275 239.2C341.525 237.92 343.275 236.82 345.005 237.2C346.005 237.4 346.875 238.04 347.875 238.01C349.635 238.01 350.615 235.95 350.985 234.23C351.355 232.51 351.675 230.48 353.215 229.62C354.755 228.76 356.405 229.44 358.005 229.77C359.605 230.1 361.715 229.85 362.225 228.29C362.317 227.87 362.324 227.436 362.245 227.013C362.166 226.591 362.003 226.188 361.765 225.83C360.775 224.155 359.251 222.862 357.437 222.158C355.623 221.454 353.625 221.381 351.765 221.95C351.237 219.687 350.051 217.631 348.355 216.042C346.659 214.453 344.53 213.403 342.238 213.024C339.945 212.645 337.591 212.955 335.474 213.913C333.358 214.872 331.573 216.437 330.345 218.41C329.002 217.037 327.348 216.009 325.522 215.412C323.697 214.816 321.754 214.67 319.86 214.986C317.965 215.303 316.176 216.072 314.643 217.229C313.11 218.385 311.879 219.895 311.055 221.63C309.44 221.097 307.705 221.052 306.065 221.501C304.425 221.95 302.954 222.873 301.836 224.154C300.719 225.435 300.004 227.018 299.781 228.703C299.558 230.389 299.838 232.103 300.585 233.63C298.095 234.86 295.905 237.12 295.685 239.89C295.465 242.66 298.005 245.57 300.685 245C300.06 246.06 299.868 247.32 300.147 248.518C300.426 249.716 301.155 250.761 302.184 251.436C303.212 252.111 304.461 252.365 305.672 252.144C306.882 251.923 307.961 251.245 308.685 250.25" fill="#263238"/>
<path d="M352.525 225.93C352.536 226.01 352.536 226.09 352.525 226.17C352.525 226.33 352.475 226.57 352.395 226.88C352.162 227.776 351.784 228.627 351.275 229.4C350.469 230.628 349.391 231.655 348.125 232.4C346.454 233.413 344.497 233.848 342.555 233.64L342.805 233.36C342.969 233.974 343.01 234.614 342.926 235.244C342.842 235.874 342.634 236.481 342.315 237.03C341.647 238.196 340.811 239.257 339.835 240.18C339.361 240.718 338.831 241.204 338.255 241.63C337.596 242.023 336.851 242.25 336.085 242.29C335.291 242.357 334.492 242.228 333.758 241.916C333.025 241.605 332.378 241.118 331.875 240.5L332.385 240.38C332.117 241.758 331.564 243.065 330.762 244.217C329.959 245.369 328.925 246.341 327.725 247.07C326.397 247.934 324.826 248.348 323.245 248.25C321.767 248.088 320.327 247.679 318.985 247.04L319.345 246.91C318.559 248.487 317.385 249.839 315.935 250.84C315.271 251.349 314.502 251.703 313.683 251.876C312.865 252.049 312.018 252.036 311.205 251.84C309.82 251.451 308.578 250.667 307.631 249.584C306.685 248.501 306.074 247.165 305.875 245.74L306.175 245.9C304.724 246.565 303.088 246.706 301.545 246.3C300.392 246.018 299.323 245.466 298.425 244.69C297.864 244.2 297.39 243.619 297.025 242.97C296.902 242.74 296.801 242.499 296.725 242.25C297.197 243.111 297.82 243.88 298.565 244.52C299.443 245.228 300.468 245.73 301.565 245.99C303.034 246.346 304.582 246.183 305.945 245.53L306.205 245.41V245.69C306.41 247.013 306.99 248.249 307.876 249.252C308.762 250.255 309.918 250.983 311.205 251.35C311.951 251.514 312.724 251.509 313.468 251.336C314.212 251.163 314.908 250.826 315.505 250.35C316.863 249.385 317.962 248.101 318.705 246.61L318.825 246.37L319.075 246.47C320.36 247.082 321.74 247.471 323.155 247.62C324.614 247.709 326.063 247.323 327.285 246.52C328.419 245.836 329.398 244.922 330.157 243.837C330.917 242.752 331.441 241.52 331.695 240.22L331.815 239.59L332.205 240.11C332.65 240.655 333.222 241.084 333.87 241.359C334.518 241.635 335.223 241.748 335.925 241.69C336.599 241.662 337.256 241.466 337.835 241.12C338.38 240.722 338.882 240.27 339.335 239.77C340.281 238.891 341.096 237.881 341.755 236.77C342.051 236.276 342.246 235.728 342.331 235.159C342.415 234.589 342.386 234.008 342.245 233.45L342.155 233.13H342.485C344.335 233.351 346.207 232.961 347.815 232.02C349.053 231.329 350.119 230.369 350.935 229.21C351.65 228.217 352.188 227.107 352.525 225.93Z" fill="#455A64"/>
<path d="M381.405 417.52L382.815 403.28L387.725 351.08C385.205 348.42 375.045 344.25 375.045 344.25L349.815 335.18C349.815 335.18 347.405 342.1 328.455 342.38C309.075 342.67 301.045 330.55 301.045 330.55C291.355 333.66 270.215 341.69 270.215 341.69L262.995 409.61L262.635 432L258.175 546.18C258.175 546.18 385.175 540.79 387.065 540.46L381.895 499.37L381.405 417.52Z" fill="#E38631"/>
<path opacity="0.3" d="M344.955 384V410.73L359.495 422.59L374.655 410.83L375.495 384.75L344.955 384Z" fill="black"/>
<path opacity="0.3" d="M260.895 477.8L260.525 487.29C260.525 487.29 340.745 472.75 354.765 467.1C372.065 460.1 381.355 454.22 381.355 454.22L381.645 446.97L260.895 477.8Z" fill="black"/>
<path d="M266.415 347.4C266.415 347.4 248.325 350.29 244.595 373.4C242.195 388.27 234.925 453.77 244.865 471.4C256.365 491.76 360.225 457.6 360.225 457.6L363.775 431.24L283.775 436.54L273.775 380.99L266.415 347.4Z" fill="#C27461"/>
<path d="M237.405 424.85H288.125L274.255 340.26C274.255 340.26 245.175 346.15 241.375 376.52C237.535 407.16 237.405 424.85 237.405 424.85Z" fill="#E38631"/>
<path d="M243.785 424.85H244.015H244.675H247.245L256.695 424.76L288.125 424.68L287.865 424.97C287.815 424.31 287.755 423.6 287.685 422.89C286.625 410.13 285.685 398.59 284.955 390.17C284.635 386.02 284.375 382.64 284.195 380.25C284.115 379.12 284.055 378.25 284.005 377.56C284.005 377.27 284.005 377.04 284.005 376.85C284.005 376.66 284.005 376.61 284.005 376.61C284.009 376.69 284.009 376.77 284.005 376.85L284.095 377.55C284.165 378.2 284.255 379.1 284.375 380.24C284.595 382.62 284.915 385.99 285.305 390.14C286.045 398.55 287.065 410.09 288.185 422.85C288.245 423.56 288.305 424.26 288.365 424.92V425.21H288.075L256.695 425L247.245 424.92H244.675H244.015L243.785 424.85Z" fill="#263238"/>
<path d="M385.205 373.46C385.246 374.036 385.246 374.614 385.205 375.19C385.205 376.3 385.125 377.91 385.025 379.89C384.825 383.89 384.405 389.34 383.835 395.37C383.265 401.4 382.665 406.86 382.185 410.81C381.945 412.81 381.735 414.37 381.575 415.47C381.523 416.043 381.426 416.612 381.285 417.17C381.268 416.595 381.298 416.02 381.375 415.45C381.485 414.26 381.635 412.68 381.815 410.77C382.205 406.77 382.735 401.31 383.315 395.32C383.895 389.33 384.365 383.83 384.665 379.87C384.805 377.96 384.915 376.38 385.005 375.18C385.023 374.602 385.09 374.027 385.205 373.46Z" fill="#263238"/>
<path d="M288.895 364.25C288.669 363.96 288.477 363.645 288.325 363.31C287.935 362.58 287.465 361.71 286.915 360.67C285.423 357.756 283.594 355.027 281.465 352.54C279.306 350.093 276.55 348.246 273.465 347.18C272.157 346.808 270.819 346.557 269.465 346.43C269.826 346.352 270.197 346.328 270.565 346.36C271.581 346.392 272.588 346.55 273.565 346.83C276.768 347.816 279.635 349.671 281.845 352.19C284.008 354.705 285.821 357.5 287.235 360.5C287.785 361.64 288.235 362.57 288.495 363.22C288.668 363.546 288.803 363.892 288.895 364.25Z" fill="#263238"/>
<path opacity="0.3" d="M282.335 428.68C282.245 428.18 291.105 426.02 291.105 426.02L284.625 384.02L288.125 424.87H281.645L282.335 428.68Z" fill="black"/>
<path d="M415.165 432.48L413.605 454.07L406.435 463.07L388.895 486.39L410.155 487.78C410.155 487.78 435.095 481.58 438.765 473.9C442.435 466.22 442.645 432.48 442.645 432.48H415.165Z" fill="#FFCFB4"/>
<path d="M520.215 360.57L521.415 276.57C522.185 256.57 512.255 239.29 492.255 239.07L490.405 239.16C481.44 239.592 472.965 243.382 466.666 249.775C460.366 256.169 456.703 264.699 456.405 273.67C455.825 291 455.405 310.16 455.975 319.41C457.125 338.57 476.435 340.64 476.435 340.64C476.435 341.23 476.435 346 476.325 351.72V361.23L520.215 360.57Z" fill="#FFCFB4"/>
<path d="M476.345 340.65C476.345 340.65 488.465 340.79 500.955 332.09C500.955 332.09 495.525 346.38 476.315 345.56L476.345 340.65Z" fill="#FF9D64"/>
<path d="M520.515 291.11C520.855 290.96 534.265 286.73 534.115 300.5C533.965 314.27 520.115 311.29 520.115 310.9C520.115 310.51 520.515 291.11 520.515 291.11Z" fill="#FFCFB4"/>
<path d="M524.415 305.72C524.475 305.72 524.655 305.89 525.055 306.08C525.621 306.333 526.263 306.355 526.845 306.14C528.305 305.62 529.555 303.32 529.655 300.84C529.705 299.66 529.486 298.483 529.015 297.4C528.894 296.967 528.669 296.571 528.358 296.247C528.048 295.923 527.662 295.68 527.235 295.54C526.959 295.462 526.665 295.483 526.404 295.6C526.142 295.717 525.93 295.922 525.805 296.18C525.615 296.56 525.705 296.84 525.635 296.86C525.565 296.88 525.335 296.63 525.455 296.06C525.534 295.718 525.728 295.415 526.005 295.2C526.387 294.918 526.864 294.796 527.335 294.86C527.9 294.981 528.425 295.244 528.86 295.623C529.296 296.003 529.628 296.487 529.825 297.03C530.395 298.231 530.666 299.552 530.615 300.88C530.495 303.65 529.045 306.23 527.045 306.79C526.674 306.892 526.285 306.911 525.906 306.843C525.527 306.776 525.168 306.624 524.855 306.4C524.435 306.06 524.365 305.75 524.415 305.72Z" fill="#FF9D64"/>
<path d="M430.895 255.86C431.149 255.099 431.686 254.465 432.395 254.09C433.915 253.24 435.635 253.4 437.305 253.42C441.457 253.437 445.56 252.514 449.305 250.72C448.026 250.055 446.862 249.191 445.855 248.16C443.795 246 442.665 242.75 443.705 239.95C443.767 239.683 443.889 239.435 444.062 239.223C444.236 239.012 444.456 238.843 444.705 238.73C445.565 238.49 446.285 239.34 446.855 240.02C448.745 242.24 450.525 243.22 453.435 243.02C455.181 242.952 456.889 242.494 458.435 241.68L458.605 241.5C459.305 240.81 459.985 240.16 460.655 239.5C465.655 234.75 470.005 231.5 474.405 229.84C480.855 227.43 491.545 226.66 498.155 228.58C504.765 230.5 510.595 236.04 511.345 242.88C515.155 239.82 520.755 239.99 525.255 241.93L525.365 241.88C530.365 243.81 533.115 249.23 534.475 254.43C534.555 254.71 534.615 255 534.685 255.29C536.322 258.061 538.599 260.4 541.325 262.11C541.805 262.41 542.325 262.77 542.405 263.33C542.485 263.89 541.965 264.33 541.505 264.66C540.261 265.493 538.847 266.037 537.365 266.25C537.785 267.496 538.317 268.7 538.955 269.85C539.495 270.85 540.145 272.01 539.625 273C539.388 273.366 539.044 273.651 538.64 273.816C538.236 273.98 537.791 274.017 537.365 273.92C536.517 273.713 535.723 273.328 535.035 272.79L536.625 276.89C534.78 277.153 532.9 276.978 531.135 276.38C529.935 281.18 528.565 287.31 527.235 290.54C525.125 290.48 523.135 289.94 521.795 291.08C519.985 292.63 519.115 295.6 516.205 294.39C514.715 293.77 513.435 290.59 512.965 289.05C509.892 278.793 509.067 267.995 510.545 257.39C508.493 255.103 506.026 253.227 503.275 251.86L503.495 252.07C498.195 250.07 492.205 248.07 487.065 250.48C483.065 252.32 480.675 256.35 477.655 259.48C475.009 262.398 471.784 264.733 468.186 266.336C464.587 267.939 460.694 268.775 456.755 268.79C455.865 274.54 456.295 281.88 455.875 287.25L451.115 278.45C450.773 277.823 450.462 277.179 450.185 276.52L450.095 276.32C449.645 275.32 449.225 274.25 448.655 273.22H448.605C445.605 275.72 441.425 271.68 443.805 268.6C444.275 267.986 444.839 267.45 445.475 267.01C444.799 267.63 443.974 268.064 443.08 268.271C442.187 268.477 441.255 268.45 440.375 268.19C439.503 267.903 438.751 267.335 438.235 266.575C437.72 265.815 437.47 264.906 437.525 263.99C437.612 263.373 437.861 262.791 438.245 262.301C438.63 261.811 439.137 261.431 439.715 261.2C437.338 261.325 434.978 260.74 432.935 259.52C431.695 258.84 430.405 257.54 430.895 255.86Z" fill="#263238"/>
<path d="M505.365 244.93C506.037 245.478 506.662 246.08 507.235 246.73C508.699 248.594 509.654 250.806 510.005 253.15C510.293 254.76 510.417 256.395 510.375 258.03C510.375 259.79 510.145 261.67 509.965 263.65C509.732 265.732 509.629 267.826 509.655 269.92C509.689 271.034 509.806 272.144 510.005 273.24C510.143 274.411 510.581 275.527 511.275 276.48C511.595 276.864 512.009 277.158 512.478 277.334C512.946 277.509 513.451 277.559 513.945 277.48C514.891 277.328 515.759 276.868 516.415 276.17C517.499 274.77 518.189 273.106 518.415 271.35H518.015C518.559 272.807 519.31 274.178 520.245 275.42C521.148 276.57 522.458 277.329 523.905 277.54C524.587 277.629 525.28 277.525 525.905 277.24C526.48 276.956 526.959 276.512 527.285 275.96C527.582 275.446 527.737 274.863 527.735 274.27C527.722 273.718 527.517 273.188 527.155 272.77L526.895 273C527.991 274.33 529.354 275.417 530.895 276.19C531.435 276.45 531.895 276.61 532.155 276.72C532.304 276.775 532.458 276.815 532.615 276.84C532.478 276.764 532.334 276.7 532.185 276.65C531.905 276.52 531.485 276.34 530.965 276.06C529.466 275.254 528.143 274.155 527.075 272.83L526.875 273.01C527.177 273.42 527.345 273.913 527.354 274.422C527.363 274.931 527.213 275.43 526.925 275.85C526.635 276.346 526.203 276.743 525.685 276.99C525.121 277.23 524.503 277.316 523.895 277.24C522.545 277.032 521.325 276.317 520.485 275.24C519.583 274.016 518.863 272.669 518.345 271.24L518.085 270.62L517.945 271.27C517.735 272.941 517.09 274.527 516.075 275.87C515.488 276.47 514.724 276.866 513.895 277C513.477 277.073 513.047 277.034 512.649 276.889C512.251 276.743 511.897 276.495 511.625 276.17C510.988 275.285 510.586 274.253 510.455 273.17C510.255 272.094 510.138 271.004 510.105 269.91C510.075 267.836 510.168 265.763 510.385 263.7C510.555 261.7 510.735 259.83 510.755 258.04C510.784 256.383 510.639 254.727 510.325 253.1C509.939 250.718 508.921 248.483 507.375 246.63C506.81 245.95 506.129 245.374 505.365 244.93Z" fill="#455A64"/>
<path d="M445.735 262L445.885 262.13L446.355 262.49C446.606 262.692 446.874 262.873 447.155 263.03C447.521 263.271 447.902 263.488 448.295 263.68C450.832 264.903 453.631 265.48 456.445 265.36C460.633 265.182 464.68 263.792 468.095 261.36C472.22 258.365 475.69 254.561 478.295 250.18C479.745 247.9 480.945 245.56 482.295 243.4C483.49 241.294 484.979 239.368 486.715 237.68C488.289 236.167 490.213 235.068 492.315 234.48C493.265 234.237 494.247 234.149 495.225 234.22C496.13 234.295 497.021 234.49 497.875 234.8C500.478 235.762 502.622 237.674 503.875 240.15C504.294 241.078 504.602 242.051 504.795 243.05C504.795 243.05 504.795 242.98 504.795 242.85C504.795 242.72 504.745 242.49 504.715 242.26C504.58 241.509 504.355 240.777 504.045 240.08C503.531 238.97 502.831 237.955 501.975 237.08C500.847 235.927 499.482 235.033 497.975 234.46C497.098 234.13 496.179 233.921 495.245 233.84C494.239 233.761 493.226 233.842 492.245 234.08C490.073 234.667 488.083 235.788 486.455 237.34C484.682 239.044 483.163 240.994 481.945 243.13C480.625 245.31 479.425 247.65 477.945 249.9C475.379 254.263 471.961 258.065 467.895 261.08C464.544 263.475 460.578 264.863 456.465 265.08C453.695 265.231 450.93 264.709 448.405 263.56C446.605 262.7 445.775 262 445.735 262Z" fill="#455A64"/>
<path d="M444.205 253.58C444.41 253.774 444.638 253.942 444.885 254.08C445.523 254.492 446.191 254.853 446.885 255.16C447.915 255.628 448.982 256.009 450.075 256.3C451.42 256.637 452.792 256.855 454.175 256.95C455.558 257.015 456.943 256.954 458.315 256.77C459.435 256.613 460.539 256.359 461.615 256.01C462.343 255.783 463.052 255.498 463.735 255.16C463.991 255.053 464.233 254.915 464.455 254.75C464.455 254.67 463.355 255.19 461.525 255.7C460.457 256.005 459.367 256.226 458.265 256.36C456.915 256.525 455.553 256.572 454.195 256.5C452.848 256.408 451.51 256.208 450.195 255.9C449.119 255.644 448.063 255.31 447.035 254.9C445.255 254.15 444.255 253.51 444.205 253.58Z" fill="#455A64"/>
<path d="M489.375 309.38C489.375 309.38 482.375 311.38 479.755 312.38L480.815 315.38C481.039 316.01 481.392 316.587 481.85 317.075C482.308 317.562 482.862 317.95 483.478 318.213C484.093 318.476 484.756 318.608 485.425 318.603C486.094 318.597 486.754 318.453 487.365 318.18C487.987 317.89 488.536 317.467 488.975 316.94C489.76 315.987 490.157 314.773 490.085 313.54C489.955 312.137 489.718 310.746 489.375 309.38Z" fill="#FF9D64"/>
<path d="M479.755 312.38C479.665 312.13 483.885 310.59 489.235 308.92L489.745 308.76L489.855 309.29C489.855 309.36 489.855 309.44 489.855 309.51C490.193 310.82 490.404 312.16 490.485 313.51C490.585 314.703 490.228 315.89 489.485 316.83C488.175 318.39 486.805 318.48 486.815 318.39C486.825 318.3 487.935 317.88 488.935 316.39C490.085 314.96 489.555 312.39 488.935 309.65C488.935 309.57 488.935 309.49 488.885 309.42L489.505 309.79C484.195 311.5 479.895 312.62 479.755 312.38Z" fill="#263238"/>
<path d="M432.225 563.12L567.965 562.49L560.475 447L559.895 412.61L551.945 350.23L521.605 343.72C521.605 343.72 514.015 357.67 494.605 357.38C475.665 357.1 476.265 349.04 476.265 349.04L444.045 361.14C444.045 361.14 426.375 369.74 423.135 378.08C419.975 386.19 413.865 432.87 413.865 432.87L441.655 432.52L439.125 520.84L432.225 563.12Z" fill="#5BA1C0"/>
<path d="M442.625 391.57C442.671 391.767 442.694 391.968 442.695 392.17C442.695 392.63 442.755 393.17 442.805 393.92C442.875 395.43 442.935 397.63 442.945 400.34C442.945 405.77 442.855 413.26 442.605 421.53C442.355 429.8 442.015 437.29 441.745 442.71C441.585 445.36 441.465 447.54 441.375 449.12C441.325 449.83 441.275 450.41 441.245 450.86C441.239 451.066 441.212 451.27 441.165 451.47C441.139 451.267 441.139 451.062 441.165 450.86C441.165 450.4 441.165 449.86 441.165 449.11L441.365 442.69C441.545 437.21 441.795 429.76 442.075 421.52C442.355 413.28 442.505 405.76 442.565 400.34C442.565 397.63 442.565 395.44 442.565 393.92V392.18C442.559 391.975 442.579 391.77 442.625 391.57Z" fill="#263238"/>
<path d="M551.025 351.08C551.025 351.08 564.675 352.51 572.025 362.08C578.745 370.89 591.705 398.62 591.365 399.31C591.025 400 560.835 419.77 560.835 419.77L553.345 406L551.025 351.08Z" fill="#5BA1C0"/>
<path d="M557.685 364.7C557.726 364.87 557.749 365.045 557.755 365.22C557.755 365.63 557.835 366.13 557.885 366.73C557.985 368.05 558.095 369.95 558.215 372.3C558.445 377 558.615 383.51 558.725 390.69C558.835 397.87 558.955 404.37 559.085 409.08C559.155 411.37 559.215 413.26 559.255 414.65C559.255 415.26 559.255 415.76 559.255 416.17C559.276 416.346 559.276 416.524 559.255 416.7C559.201 416.529 559.174 416.35 559.175 416.17C559.175 415.77 559.095 415.27 559.045 414.66C558.945 413.35 558.835 411.44 558.725 409.09C558.485 404.39 558.315 397.88 558.205 390.7C558.095 383.52 557.985 377.02 557.845 372.31C557.775 370.02 557.725 368.14 557.685 366.74C557.685 366.13 557.685 365.63 557.685 365.23C557.659 365.054 557.659 364.876 557.685 364.7Z" fill="#263238"/>
<path d="M368.685 484.87C368.685 484.87 373.185 487.87 376.015 487.51C378.845 487.15 388.075 484.87 388.075 484.87C388.075 484.87 388.265 485.69 390.715 487.54C393.165 489.39 408.065 491.84 414.285 491.09C420.505 490.34 431.065 486.38 431.065 486.38L427.895 468.55L399.895 473L368.705 480.19V484.9L368.685 484.87Z" fill="#824E44"/>
<path d="M378.085 470.35C378.085 470.35 375.635 481.1 376.955 482.61C378.275 484.12 379.955 484.49 380.875 482.42C381.939 479.321 382.834 476.166 383.555 472.97L384.685 470.35C384.685 470.35 383.175 488.07 386.195 489.02C389.215 489.97 390.905 489.02 390.905 489.02C390.905 489.02 396.905 493.54 397.315 486.38C397.75 480.988 398.606 475.638 399.875 470.38L401.275 468.05V472.05C401.275 472.05 398.095 481.48 399.875 482.8C401.655 484.12 403.535 485.06 404.665 483.55C405.795 482.04 411.055 471 412.215 467.13C412.215 467.13 415.755 472.24 420.685 472.3C424.545 472.35 426.795 470.69 425.215 468.3C423.635 465.91 419.755 463.87 419.755 463.87L414.665 452L402.215 449.09H388.075L378.085 470.35Z" fill="#FFCFB4"/>
<path d="M357.895 462.71C357.895 462.71 369.785 469.79 375.245 471.11C380.705 472.43 410.025 467.22 409.725 465.37C409.425 463.52 405.605 461.87 402.965 461.49C400.325 461.11 392.595 459.8 392.595 459.8H413.335L423.335 466.11C423.335 466.11 426.875 464.69 425.725 461.79C425.115 460.25 417.295 454.14 417.295 454.14L398.295 450.37L364.555 449.05L357.895 462.71Z" fill="#FFBF9D"/>
<path d="M369.035 431C369.035 431 402.785 436.66 403.535 437.6C404.285 438.54 412.965 448.35 412.965 448.35C412.965 448.35 425.965 452.82 424.275 455.7C422.585 458.58 418.805 456.83 418.805 456.83C418.805 456.83 424.085 465.12 421.635 466.83C419.185 468.54 416.545 467.4 414.635 464.95C412.725 462.5 407.275 453.45 407.275 453.45C407.275 453.45 411.805 471.92 409.545 472.45C407.285 472.98 403.695 473.2 402.185 468.45C401.373 466.051 400.744 463.594 400.305 461.1L393.135 449.22C393.135 449.22 395.965 470.91 394.265 472.69C394.265 472.69 389.935 474.1 388.425 470.33C386.915 466.56 384.895 458 384.895 458L381.315 448.52L380.935 454.52C380.935 454.52 383.935 465.64 382.065 466.39C380.195 467.14 377.725 466.39 376.405 463.85C374.999 461.309 373.862 458.628 373.015 455.85C372.645 454.37 370.645 449.35 370.645 449.35L363.485 448.41L369.035 431Z" fill="#C27461"/>
<path d="M410.585 445.41C412.214 447.273 413.711 449.248 415.065 451.32C416.553 453.293 417.906 455.365 419.115 457.52C417.483 455.662 415.986 453.691 414.635 451.62C413.141 449.647 411.788 447.572 410.585 445.41Z" fill="#7D4336"/>
<path d="M399.345 439.17C399.949 439.731 400.48 440.366 400.925 441.06C402.083 442.66 403.142 444.33 404.095 446.06C405.215 448.06 406.095 449.99 406.705 451.38C407.07 452.119 407.349 452.897 407.535 453.7C407.078 453.018 406.687 452.295 406.365 451.54C405.695 450.19 404.755 448.32 403.635 446.31C402.515 444.3 401.435 442.52 400.635 441.25C400.145 440.595 399.714 439.899 399.345 439.17Z" fill="#7D4336"/>
<path d="M389.405 440.18C389.405 440.13 389.965 440.41 390.605 441.12C391.411 442.055 392.02 443.144 392.395 444.32C392.764 445.481 393.009 446.678 393.125 447.89C393.22 448.386 393.22 448.894 393.125 449.39C392.917 448.931 392.785 448.441 392.735 447.94C392.514 446.77 392.223 445.615 391.865 444.48C391.506 443.36 390.973 442.304 390.285 441.35C389.785 440.62 389.355 440.24 389.405 440.18Z" fill="#7D4336"/>
<path d="M377.425 441.2C377.425 441.14 377.955 441.3 378.635 441.78C379.532 442.428 380.257 443.287 380.745 444.28C381.229 445.269 381.469 446.359 381.445 447.46C381.445 448.3 381.235 448.79 381.165 448.78C381.234 447.303 380.928 445.833 380.274 444.507C379.619 443.181 378.639 442.043 377.425 441.2Z" fill="#7D4336"/>
<path opacity="0.3" d="M440.045 490.43C442.455 490.43 534.115 483.7 534.115 483.7L566.455 477L558.455 441.2L440.285 479.2L440.045 490.43Z" fill="black"/>
<path d="M427.895 468.55L512.755 449.05C512.755 449.05 590.005 404.05 591.195 403.29C592.385 402.53 585.195 449.05 585.195 449.05C585.195 449.05 536.005 475 521.835 478.34C514.125 480.17 428.515 487.34 428.515 487.34L427.895 468.55Z" fill="#824E44"/>
<path d="M636.815 283.37C642.045 277.73 654.815 278.71 657.815 282.48C660.091 281.436 662.681 281.307 665.049 282.121C667.417 282.934 669.382 284.628 670.535 286.85L684.085 289.95C686.395 290.48 688.815 291.06 690.585 292.65C692.355 294.24 693.155 297.16 691.665 299C696.445 300.3 698.255 307.44 694.665 310.85C695.117 311.385 695.456 312.008 695.659 312.678C695.862 313.349 695.927 314.054 695.848 314.751C695.77 315.448 695.55 316.121 695.202 316.729C694.854 317.338 694.385 317.869 693.825 318.29C697.541 322.836 700.453 327.983 702.435 333.51C703.255 335.81 703.915 338.38 703.045 340.67C702.175 342.96 699.135 344.51 697.155 343.06C697.815 344.009 698.186 345.128 698.225 346.283C698.264 347.437 697.969 348.579 697.375 349.57C699.675 349.65 700.325 353.21 698.735 354.87C697.145 356.53 694.565 356.67 692.265 356.6C689.965 356.53 687.485 356.38 685.585 357.67C685.601 357.952 685.673 358.227 685.799 358.48C685.924 358.733 686.1 358.957 686.315 359.14C690.235 362.38 691.315 367.92 688.315 372.03L687.555 373.08C686.205 374.96 682.895 376.66 680.835 377.71C675.605 380.36 672.515 379.82 666.705 380.6C668.255 384.36 658.755 392.6 648.045 384.31C626.475 389.88 610.935 391.92 588.655 391.76C585.475 391.76 581.655 391.27 580.275 388.41C577.695 389.07 574.925 387.84 573.035 385.96C571.261 383.963 569.844 381.677 568.845 379.2C566.106 378.376 563.688 376.724 561.925 374.472C560.161 372.22 559.138 369.477 558.995 366.62C557.147 365.131 555.629 363.274 554.538 361.167C553.446 359.06 552.805 356.748 552.655 354.38C547.315 352.7 544.435 345.73 547.025 340.77C548.246 334.205 550.544 327.886 553.825 322.07C550.185 321.25 548.825 316.32 550.395 312.92C551.965 309.52 555.265 307.36 558.395 305.39C555.665 306.09 553.325 302.64 554.005 299.9C554.685 297.16 557.165 295.3 559.595 293.9C563.149 291.799 566.943 290.134 570.895 288.94C572.245 284.16 578.425 278.75 582.895 276.67C601.095 268.28 613.815 266.23 636.745 283.37" fill="#263238"/>
<path d="M586.025 317.41C587.585 304.95 596.825 290.12 609.215 292.21L647.515 304.46C649.331 304.765 650.966 305.741 652.096 307.195C653.226 308.649 653.768 310.475 653.615 312.31L647.125 395.62C646.72 400.888 644.508 405.855 640.864 409.681C637.22 413.507 632.367 415.958 627.125 416.62C623.865 417.023 620.557 416.721 617.424 415.735C614.292 414.748 611.407 413.1 608.967 410.902C606.526 408.705 604.586 406.008 603.278 402.995C601.97 399.982 601.324 396.724 601.385 393.44C601.495 387.71 601.565 383.44 601.555 383.44C601.545 383.44 585.745 379.8 583.725 358.74C582.705 348.22 584.285 331.25 586.025 317.41Z" fill="#824E44"/>
<path d="M601.535 383.39C611.335 384.147 621.152 382.17 629.895 377.68C629.895 377.68 622.235 391.58 601.485 388.34L601.535 383.39Z" fill="#5B342F"/>
<path d="M590.785 316.64C591.255 317.33 593.275 316.77 595.665 316.89C598.055 317.01 600.035 317.6 600.545 316.95C600.775 316.63 600.545 315.95 599.655 315.28C598.515 314.464 597.159 314.005 595.758 313.96C594.357 313.916 592.974 314.288 591.785 315.03C590.895 315.65 590.585 316.31 590.785 316.64Z" fill="#263238"/>
<path d="M576.465 327.27C576.61 323.969 577.889 320.819 580.085 318.35C581.335 317.06 582.905 316.09 584.025 314.68C586.425 311.63 586.165 307.34 587.225 303.61C587.936 301.206 589.209 299.006 590.939 297.192C592.67 295.379 594.807 294.003 597.175 293.18C601.115 291.85 605.555 292.11 609.255 290.18C612.005 288.78 614.115 286.32 616.925 285.09C622.415 282.69 628.685 285.6 633.775 288.75C634.775 292.85 632.075 296.34 629.525 299.69C628.237 301.364 626.6 302.738 624.728 303.717C622.857 304.696 620.795 305.257 618.685 305.36C615.425 305.5 611.685 304.7 609.295 306.98C606.905 309.26 607.705 313.71 605.675 316.49C602.775 320.49 596.355 318.81 592.075 321.21C588.765 323.07 587.325 326.96 585.615 330.35C583.905 333.74 580.995 337.25 577.215 337C576.596 333.796 576.344 330.531 576.465 327.27Z" fill="#263238"/>
<path d="M625.505 296.1C635.065 296.126 644.529 298.004 653.375 301.63C656.005 302.71 658.715 304.07 660.185 306.5C661.475 308.64 661.585 311.27 661.515 313.76C661.285 321.58 657.965 331.1 654.865 338.27L644.995 344C637.505 342.08 641.185 329.16 641.665 322.66C639.057 321.421 636.85 319.472 635.299 317.037C633.748 314.601 632.915 311.778 632.895 308.89C630.78 307.451 629.018 305.554 627.738 303.34C626.459 301.125 625.695 298.65 625.505 296.1Z" fill="#263238"/>
<path d="M645.175 341.14C645.555 336.67 651.055 335.9 654.865 338.27C656.945 339.57 658.495 342.1 658.135 346.85C657.135 359.49 644.685 355.93 644.695 355.57C644.705 355.21 644.745 346.37 645.175 341.14Z" fill="#824E44"/>
<path d="M648.895 351.07C648.955 351.07 649.105 351.24 649.465 351.44C649.972 351.699 650.559 351.753 651.105 351.59C652.485 351.2 653.765 349.17 653.995 346.89C654.109 345.808 653.979 344.715 653.615 343.69C653.53 343.285 653.345 342.908 653.078 342.592C652.811 342.276 652.47 342.032 652.085 341.88C651.839 341.792 651.569 341.794 651.324 341.885C651.079 341.977 650.874 342.152 650.745 342.38C650.545 342.72 650.605 342.98 650.535 343C650.465 343.02 650.285 342.77 650.425 342.25C650.518 341.942 650.716 341.677 650.985 341.5C651.166 341.38 651.368 341.298 651.582 341.259C651.795 341.219 652.014 341.223 652.225 341.27C652.736 341.411 653.202 341.681 653.579 342.054C653.955 342.427 654.229 342.89 654.375 343.4C654.842 344.539 655.02 345.776 654.895 347C654.625 349.54 653.145 351.83 651.275 352.22C650.927 352.295 650.566 352.291 650.22 352.208C649.874 352.125 649.551 351.965 649.275 351.74C648.895 351.37 648.895 351.09 648.895 351.07Z" fill="#5B342F"/>
<path d="M654.985 359.11C655.653 359.146 656.323 359.115 656.985 359.02C657.757 358.928 658.509 358.715 659.215 358.39L659.065 358.31C659.22 359.385 659.651 360.402 660.316 361.261C660.981 362.12 661.857 362.793 662.859 363.212C663.861 363.632 664.955 363.786 666.034 363.657C667.112 363.529 668.139 363.123 669.015 362.48H668.805C668.989 362.769 669.229 363.019 669.51 363.215C669.792 363.411 670.11 363.549 670.445 363.62C671.111 363.769 671.806 363.72 672.445 363.48C673.134 363.245 673.722 362.783 674.115 362.17C674.515 361.55 674.749 360.837 674.795 360.1C674.875 358.574 674.415 357.07 673.495 355.85C672.541 354.62 671.439 353.511 670.215 352.55V352.84C670.75 352.513 671.211 352.077 671.566 351.56C671.921 351.043 672.162 350.457 672.275 349.84C672.549 348.592 672.448 347.291 671.985 346.1C671.501 344.909 670.791 343.822 669.895 342.9C668.952 341.972 667.95 341.107 666.895 340.31V340.59C667.359 340.109 667.716 339.535 667.942 338.906C668.168 338.277 668.258 337.606 668.205 336.94C668.141 335.572 667.667 334.255 666.845 333.16C665.255 331.05 662.905 329.86 660.745 328.74L660.845 328.96C661.198 327.642 661.225 326.259 660.924 324.928C660.623 323.598 660.003 322.36 659.117 321.323C658.231 320.286 657.106 319.479 655.839 318.974C654.573 318.468 653.202 318.278 651.845 318.42L652.035 318.64C652.259 317.555 652.232 316.432 651.954 315.359C651.677 314.286 651.157 313.291 650.435 312.45C649.8 311.641 648.997 310.979 648.083 310.51C647.168 310.04 646.162 309.774 645.135 309.73L645.285 309.89C645.277 308.812 645.023 307.75 644.543 306.785C644.063 305.82 643.37 304.977 642.515 304.32C641.787 303.718 640.945 303.269 640.039 303.001C639.134 302.733 638.183 302.651 637.245 302.76L637.395 302.89C637.332 301.735 636.989 300.613 636.395 299.62C635.903 298.735 635.264 297.94 634.505 297.27C633.338 296.144 631.828 295.44 630.215 295.27H629.735C629.585 295.27 629.435 295.27 629.295 295.27C629.024 295.28 628.753 295.307 628.485 295.35C628.073 295.421 627.668 295.528 627.275 295.67L626.565 295.96C626.48 295.984 626.399 296.021 626.325 296.07L626.575 295.99L627.295 295.73C627.691 295.608 628.096 295.515 628.505 295.45C628.767 295.414 629.031 295.394 629.295 295.39H629.735L630.205 295.44C631.772 295.612 633.238 296.297 634.375 297.39C635.108 298.055 635.724 298.839 636.195 299.71C636.754 300.669 637.07 301.751 637.115 302.86V303H637.255C638.148 302.907 639.051 302.994 639.91 303.257C640.769 303.52 641.567 303.953 642.255 304.53C643.071 305.162 643.732 305.971 644.19 306.896C644.647 307.821 644.888 308.838 644.895 309.87V310H645.055C646.067 310.074 647.051 310.361 647.944 310.842C648.838 311.322 649.62 311.985 650.24 312.788C650.86 313.591 651.303 314.516 651.542 315.502C651.781 316.487 651.809 317.512 651.625 318.51L651.565 318.76H651.815C653.11 318.625 654.418 318.809 655.625 319.294C656.833 319.78 657.904 320.553 658.746 321.546C659.587 322.539 660.173 323.722 660.454 324.994C660.734 326.265 660.7 327.585 660.355 328.84V328.99L660.495 329.06C662.655 330.18 664.945 331.36 666.495 333.37C667.323 334.408 667.812 335.675 667.895 337C667.943 337.613 667.861 338.229 667.654 338.808C667.448 339.387 667.121 339.916 666.695 340.36L666.545 340.51L666.715 340.65C668.715 342.26 670.795 343.97 671.715 346.27C672.153 347.39 672.253 348.613 672.005 349.79C671.899 350.353 671.676 350.888 671.351 351.36C671.025 351.832 670.604 352.231 670.115 352.53L669.895 352.65L670.095 352.82C671.295 353.765 672.38 354.85 673.325 356.05C674.193 357.198 674.635 358.612 674.575 360.05C674.565 360.72 674.358 361.373 673.979 361.926C673.6 362.479 673.066 362.908 672.445 363.16C671.874 363.409 671.235 363.46 670.632 363.304C670.028 363.148 669.494 362.795 669.115 362.3L669.035 362.16L668.905 362.26C667.988 362.921 666.906 363.317 665.779 363.403C664.652 363.49 663.522 363.264 662.515 362.75C661.678 362.299 660.956 361.663 660.403 360.89C659.85 360.117 659.481 359.227 659.325 358.29V358.15L659.195 358.21C658.513 358.533 657.784 358.745 657.035 358.84C656.374 358.947 655.704 358.988 655.035 358.96C653.976 358.956 652.928 358.738 651.955 358.32C651.346 358.07 650.839 357.623 650.515 357.05C650.325 356.66 650.295 356.41 650.265 356.42C650.235 356.43 650.265 356.48 650.265 356.59C650.295 356.76 650.348 356.925 650.425 357.08C650.741 357.676 651.248 358.148 651.865 358.42" fill="#455A64"/>
<path d="M698.695 343.69C698.887 343.456 699.051 343.201 699.185 342.93C699.588 342.157 699.83 341.31 699.895 340.44C700.019 339.032 699.667 337.624 698.895 336.44C698.39 335.653 697.726 334.98 696.946 334.463C696.166 333.947 695.287 333.598 694.365 333.44L694.465 333.6C694.936 331.459 694.578 329.219 693.465 327.33C692.86 326.27 692.031 325.355 691.035 324.65C689.943 323.993 688.791 323.44 687.595 323C687.003 322.747 686.451 322.41 685.955 322C685.462 321.567 685.076 321.026 684.825 320.42C684.285 319.2 684.125 317.76 683.435 316.42C682.707 315.066 681.59 313.961 680.229 313.248C678.867 312.535 677.322 312.247 675.795 312.42L676.005 312.64C676.249 311.109 676.139 309.543 675.684 308.061C675.228 306.579 674.439 305.222 673.377 304.093C672.314 302.964 671.007 302.094 669.556 301.549C668.105 301.004 666.548 300.799 665.005 300.95L665.215 301.16C665.424 299.474 665.147 297.764 664.417 296.231C663.686 294.697 662.533 293.404 661.092 292.505C659.651 291.605 657.983 291.136 656.285 291.153C654.586 291.17 652.928 291.672 651.505 292.6H651.715C650.471 291.373 648.977 290.429 647.335 289.83C645.884 289.261 644.364 288.885 642.815 288.71C640.306 288.384 637.76 288.509 635.295 289.08C633.713 289.43 632.197 290.031 630.805 290.86C630.454 291.079 630.12 291.323 629.805 291.59C629.575 291.76 629.465 291.86 629.465 291.86C629.465 291.86 629.945 291.51 630.895 290.94C632.294 290.154 633.805 289.587 635.375 289.26C637.819 288.725 640.337 288.627 642.815 288.97C644.34 289.156 645.836 289.536 647.265 290.1C648.863 290.697 650.315 291.628 651.525 292.83L651.615 292.92L651.725 292.85C653.094 291.963 654.687 291.485 656.318 291.473C657.949 291.461 659.549 291.915 660.931 292.781C662.313 293.648 663.418 294.892 664.117 296.365C664.815 297.839 665.078 299.482 664.875 301.1V301.33H665.105C666.593 301.18 668.095 301.373 669.496 301.895C670.897 302.417 672.16 303.254 673.187 304.341C674.214 305.428 674.978 306.736 675.419 308.164C675.861 309.592 675.969 311.103 675.735 312.58V312.83H675.985C677.432 312.662 678.897 312.929 680.192 313.597C681.487 314.264 682.553 315.303 683.255 316.58C683.915 317.81 684.075 319.24 684.645 320.58C684.916 321.233 685.334 321.814 685.865 322.28C686.392 322.709 686.974 323.066 687.595 323.34C688.774 323.779 689.909 324.328 690.985 324.98C691.949 325.656 692.754 326.532 693.345 327.55C694.428 329.373 694.785 331.536 694.345 333.61V333.74H694.485C695.378 333.885 696.231 334.214 696.991 334.707C697.75 335.199 698.398 335.844 698.895 336.6C699.646 337.745 699.997 339.105 699.895 340.47C699.843 341.327 699.626 342.166 699.255 342.94C698.895 343.43 698.675 343.68 698.695 343.69Z" fill="#455A64"/>
<path d="M577.555 345.07C577.632 344.916 577.677 344.748 577.687 344.576C577.697 344.404 577.673 344.232 577.615 344.07C577.473 343.657 577.224 343.288 576.895 343C576.438 342.628 575.911 342.353 575.345 342.19C574.638 342.008 573.964 341.718 573.345 341.33C572.667 340.815 572.179 340.091 571.955 339.27C571.674 338.331 571.583 337.345 571.685 336.37C571.745 335.37 571.925 334.22 571.945 333.04C572.015 330.64 571.035 328.18 570.465 325.53C570.151 324.161 570.117 322.743 570.365 321.36C570.48 320.639 570.75 319.951 571.155 319.343C571.561 318.736 572.093 318.223 572.715 317.84C574.14 317.18 575.642 316.7 577.185 316.41C577.995 316.206 578.766 315.868 579.465 315.41C580.175 314.896 580.74 314.207 581.105 313.41C581.75 311.797 582.226 310.121 582.525 308.41C582.703 307.571 583.01 306.765 583.435 306.02C583.878 305.295 584.545 304.733 585.335 304.42C586.499 304.132 587.695 303.991 588.895 304C589.508 303.964 590.11 303.822 590.675 303.58C591.242 303.33 591.732 302.933 592.095 302.43C592.707 301.428 593.172 300.344 593.475 299.21C593.817 298.162 594.376 297.198 595.115 296.38C595.816 295.596 596.672 294.965 597.629 294.528C598.586 294.091 599.623 293.857 600.675 293.84C602.642 293.817 604.547 294.53 606.015 295.84L606.175 295.99L606.275 295.79C607.021 294.247 608.087 292.88 609.403 291.782C610.718 290.683 612.253 289.878 613.905 289.42C615.287 289.055 616.726 288.957 618.145 289.13C619.349 289.251 620.522 289.59 621.605 290.13C623.125 290.91 624.389 292.111 625.245 293.59C625.48 293.973 625.684 294.374 625.855 294.79C625.855 294.92 625.955 295.02 625.995 295.11C626.035 295.2 625.995 295.21 626.055 295.21V295.1C626.055 295.01 625.975 294.9 625.925 294.77C625.775 294.344 625.588 293.933 625.365 293.54C624.527 292.017 623.262 290.772 621.725 289.96C620.624 289.386 619.428 289.016 618.195 288.87C616.748 288.677 615.278 288.765 613.865 289.13C612.168 289.589 610.589 290.405 609.233 291.525C607.877 292.644 606.777 294.04 606.005 295.62L606.265 295.57C604.749 294.172 602.757 293.403 600.695 293.42C599.594 293.435 598.508 293.677 597.505 294.132C596.501 294.586 595.603 295.242 594.865 296.06C594.093 296.932 593.508 297.953 593.145 299.06C592.851 300.154 592.403 301.201 591.815 302.17C591.466 302.613 591.021 302.972 590.514 303.218C590.006 303.464 589.449 303.591 588.885 303.59C587.668 303.577 586.454 303.725 585.275 304.03C584.405 304.368 583.672 304.987 583.195 305.79C582.736 306.564 582.398 307.404 582.195 308.28C581.905 309.953 581.443 311.592 580.815 313.17C580.478 313.903 579.958 314.537 579.305 315.01C578.638 315.46 577.901 315.798 577.125 316.01C575.554 316.306 574.028 316.803 572.585 317.49C571.898 317.885 571.321 318.446 570.905 319.12C570.498 319.771 570.22 320.494 570.085 321.25C569.835 322.673 569.872 324.132 570.195 325.54C570.795 328.24 571.775 330.65 571.725 332.99C571.725 334.14 571.545 335.25 571.485 336.31C571.394 337.321 571.499 338.339 571.795 339.31C572.049 340.165 572.572 340.915 573.285 341.45C573.907 341.828 574.581 342.115 575.285 342.3C575.838 342.448 576.355 342.707 576.805 343.06C577.133 343.322 577.385 343.668 577.535 344.06C577.648 344.386 577.655 344.74 577.555 345.07Z" fill="#455A64"/>
<path d="M553.305 325.05C553.358 324.974 553.405 324.894 553.445 324.81L553.805 324.11L555.155 321.39C555.745 320.21 556.415 318.73 557.365 317.12C558.354 315.255 559.848 313.707 561.675 312.65C562.675 312.11 563.905 311.76 565.095 311.26C565.719 311.003 566.307 310.667 566.845 310.26C567.413 309.834 567.866 309.274 568.165 308.63C568.785 307.33 568.835 305.84 569.335 304.49C569.569 303.806 570.005 303.21 570.585 302.78C571.213 302.365 571.906 302.058 572.635 301.87C573.41 301.67 574.163 301.395 574.885 301.05C575.644 300.665 576.26 300.049 576.645 299.29C577.435 297.77 577.475 296.03 577.815 294.4C577.945 293.577 578.245 292.791 578.695 292.09C579.169 291.417 579.886 290.954 580.695 290.8C582.365 290.48 584.145 291.1 586.005 290.8C586.937 290.661 587.799 290.226 588.465 289.56C589.082 288.903 589.622 288.179 590.075 287.4C590.511 286.654 590.988 285.933 591.505 285.24C591.993 284.573 592.639 284.037 593.385 283.68C594.905 283.01 596.615 283.42 598.175 283.8C599.718 284.323 601.358 284.494 602.975 284.3C604.477 283.947 605.903 283.327 607.185 282.47C608.372 281.686 609.631 281.017 610.945 280.47C613.386 279.693 616.002 279.655 618.465 280.36C620.507 280.932 622.394 281.958 623.985 283.36C625.164 284.433 626.176 285.677 626.985 287.05C627.482 287.926 627.904 288.842 628.245 289.79L628.535 290.53C628.564 290.615 628.597 290.699 628.635 290.78C628.627 290.69 628.603 290.602 628.565 290.52L628.325 289.77C628.011 288.801 627.605 287.863 627.115 286.97C626.317 285.565 625.305 284.293 624.115 283.2C622.512 281.764 620.599 280.717 618.525 280.14C616.011 279.404 613.335 279.428 610.835 280.21C609.494 280.745 608.211 281.415 607.005 282.21C605.752 283.046 604.36 283.652 602.895 284C601.327 284.177 599.739 284.007 598.245 283.5C597.442 283.277 596.623 283.116 595.795 283.02C594.921 282.929 594.038 283.056 593.225 283.39C592.428 283.769 591.74 284.343 591.225 285.06C590.7 285.763 590.212 286.494 589.765 287.25C589.329 288 588.809 288.698 588.215 289.33C587.606 289.94 586.817 290.339 585.965 290.47C584.235 290.73 582.455 290.12 580.635 290.47C579.721 290.633 578.909 291.151 578.375 291.91C577.895 292.652 577.575 293.487 577.435 294.36C577.095 296.04 577.045 297.75 576.315 299.16C575.959 299.851 575.396 300.414 574.705 300.77C574.004 301.109 573.27 301.377 572.515 301.57C571.748 301.782 571.021 302.12 570.365 302.57C569.735 303.043 569.261 303.695 569.005 304.44C568.485 305.87 568.455 307.34 567.865 308.57C567.251 309.731 566.218 310.614 564.975 311.04C563.805 311.55 562.605 311.91 561.545 312.47C559.68 313.56 558.162 315.154 557.165 317.07C556.225 318.71 555.585 320.19 555.005 321.38C554.425 322.57 554.005 323.48 553.725 324.14L553.395 324.86C553.362 324.922 553.332 324.985 553.305 325.05Z" fill="#455A64"/>
<path d="M567.005 312L566.775 311.95C566.543 311.939 566.313 311.987 566.105 312.09C565.721 312.323 565.401 312.648 565.174 313.035C564.947 313.423 564.82 313.861 564.805 314.31C564.792 314.952 564.872 315.592 565.045 316.21C565.242 316.927 565.339 317.667 565.335 318.41C565.227 319.252 564.904 320.051 564.395 320.73C563.895 321.49 563.255 322.22 562.735 323.12C562.435 323.589 562.246 324.119 562.181 324.672C562.117 325.225 562.18 325.785 562.365 326.31C562.755 327.39 563.515 328.31 563.885 329.41C564.201 330.58 564.054 331.826 563.475 332.89C562.965 334.04 562.245 335.15 561.735 336.42C561.467 337.071 561.317 337.766 561.295 338.47C561.295 339.197 561.448 339.916 561.745 340.58C562.412 341.865 563.196 343.087 564.085 344.23C564.99 345.359 565.443 346.785 565.355 348.23C564.988 349.704 564.451 351.13 563.755 352.48C563.441 353.211 563.268 353.995 563.245 354.79C563.248 355.586 563.436 356.37 563.795 357.08C564.541 358.39 565.437 359.608 566.465 360.71C567.426 361.754 568.158 362.987 568.615 364.33C568.938 365.691 569.355 367.028 569.865 368.33C570.156 368.962 570.587 369.519 571.125 369.96C571.661 370.354 572.259 370.655 572.895 370.85C573.492 371.032 574.077 371.252 574.645 371.51C575.17 371.773 575.655 372.11 576.085 372.51C576.873 373.329 577.546 374.25 578.085 375.25C578.655 376.25 579.175 377.14 579.765 377.98C580.822 379.528 582.351 380.693 584.125 381.3C585.448 381.77 586.861 381.93 588.255 381.77C589.129 381.672 589.982 381.439 590.785 381.08C591.065 380.948 591.335 380.798 591.595 380.63C590.545 381.163 589.406 381.502 588.235 381.63C586.88 381.755 585.513 381.577 584.235 381.11C582.52 380.5 581.047 379.353 580.035 377.84C579.455 377.01 578.945 376.07 578.385 375.11C577.823 374.083 577.127 373.134 576.315 372.29C575.864 371.855 575.352 371.488 574.795 371.2C574.216 370.938 573.621 370.711 573.015 370.52C572.416 370.334 571.852 370.05 571.345 369.68C570.852 369.271 570.459 368.754 570.195 368.17C569.705 366.891 569.298 365.581 568.975 364.25C568.51 362.859 567.757 361.581 566.765 360.5C565.759 359.419 564.883 358.224 564.155 356.94C563.82 356.287 563.642 355.564 563.635 354.83C563.667 354.081 563.829 353.343 564.115 352.65C564.832 351.274 565.379 349.817 565.745 348.31C565.842 347.533 565.75 346.744 565.475 346.01C565.208 345.299 564.848 344.627 564.405 344.01C563.532 342.881 562.756 341.68 562.085 340.42C561.809 339.789 561.666 339.108 561.665 338.42C561.686 337.757 561.824 337.104 562.075 336.49C562.555 335.26 563.275 334.15 563.795 332.96C564.402 331.821 564.545 330.492 564.195 329.25C563.795 328.07 563.015 327.16 562.655 326.15C562.469 325.659 562.402 325.132 562.459 324.61C562.517 324.089 562.697 323.588 562.985 323.15C563.475 322.28 564.105 321.53 564.615 320.76C565.135 320.039 565.459 319.194 565.555 318.31C565.555 317.548 565.444 316.79 565.225 316.06C565.048 315.459 564.96 314.836 564.965 314.21C564.974 313.782 565.086 313.362 565.291 312.986C565.497 312.61 565.79 312.289 566.145 312.05C566.42 311.948 566.72 311.931 567.005 312Z" fill="#455A64"/>
<path d="M698.385 343.27C698.72 343.281 699.056 343.255 699.385 343.19C700.349 343.017 701.266 342.642 702.075 342.09C703.39 341.221 704.359 339.919 704.815 338.41C705.109 337.403 705.178 336.343 705.017 335.307C704.857 334.27 704.47 333.281 703.885 332.41C703.149 331.449 702.318 330.564 701.405 329.77C700.413 328.936 699.621 327.89 699.085 326.71C698.676 325.389 698.773 323.964 699.355 322.71C699.865 321.36 700.635 320.05 701.125 318.56C701.667 316.915 701.858 315.176 701.688 313.453C701.518 311.73 700.989 310.062 700.136 308.555C699.283 307.048 698.124 305.737 696.734 304.704C695.344 303.672 693.754 302.942 692.065 302.56L692.165 302.86C692.764 302.049 693.158 301.106 693.315 300.11C693.464 299.111 693.42 298.092 693.185 297.11C692.948 296.111 692.535 295.163 691.965 294.31C691.395 293.44 690.697 292.662 689.895 292C687.449 290.2 684.618 288.994 681.625 288.48C678.831 287.898 675.969 287.723 673.125 287.96L673.325 288.14C673.296 286.5 672.82 284.899 671.947 283.511C671.075 282.122 669.84 280.998 668.375 280.26C667.001 279.579 665.477 279.255 663.945 279.32C662.513 279.447 661.108 279.784 659.775 280.32C659.128 280.543 658.457 280.684 657.775 280.74C657.129 280.782 656.481 280.701 655.865 280.5C654.695 280.07 653.581 279.503 652.545 278.81C651.561 278.164 650.495 277.652 649.375 277.29C647.977 276.859 646.506 276.711 645.05 276.855C643.594 277 642.182 277.433 640.895 278.13C639.697 278.8 638.636 279.689 637.765 280.75C637.214 281.439 636.754 282.195 636.395 283C636.264 283.261 636.153 283.532 636.065 283.81C636.065 283.81 636.185 283.54 636.455 283.02C636.845 282.27 637.318 281.565 637.865 280.92C638.74 279.889 639.798 279.028 640.985 278.38C642.581 277.519 644.372 277.085 646.185 277.12C647.24 277.134 648.288 277.302 649.295 277.62C650.393 277.989 651.439 278.5 652.405 279.14C653.456 279.85 654.587 280.434 655.775 280.88C656.42 281.087 657.099 281.172 657.775 281.13C658.456 281.073 659.128 280.932 659.775 280.71C661.083 280.181 662.461 279.845 663.865 279.71C665.343 279.655 666.811 279.971 668.135 280.63C669.536 281.343 670.717 282.425 671.55 283.759C672.384 285.092 672.838 286.628 672.865 288.2V288.4H673.065C675.875 288.168 678.705 288.344 681.465 288.92C684.395 289.43 687.167 290.611 689.565 292.37C690.336 292.993 691.01 293.728 691.565 294.55C692.104 295.37 692.5 296.277 692.735 297.23C692.952 298.171 692.996 299.143 692.865 300.1C692.713 301.033 692.343 301.917 691.785 302.68L691.615 302.91L691.895 302.98C693.535 303.347 695.08 304.053 696.431 305.052C697.782 306.051 698.909 307.322 699.741 308.782C700.572 310.242 701.089 311.86 701.258 313.532C701.428 315.204 701.246 316.893 700.725 318.49C700.255 319.94 699.495 321.25 698.985 322.63C698.377 323.959 698.288 325.468 698.735 326.86C699.285 328.079 700.105 329.156 701.135 330.01C702.042 330.789 702.869 331.657 703.605 332.6C704.177 333.439 704.558 334.393 704.72 335.395C704.883 336.398 704.823 337.423 704.545 338.4C704.131 339.856 703.231 341.126 701.995 342C701.209 342.556 700.317 342.944 699.375 343.14C698.725 343.25 698.385 343.25 698.385 343.27Z" fill="#263238"/>
<path d="M562.705 303.24C562.71 303.16 562.71 303.08 562.705 303C562.705 302.82 562.705 302.59 562.785 302.29C562.852 301.623 562.952 300.713 563.085 299.56C563.235 298.38 563.425 296.93 563.775 295.28C564.147 293.406 564.742 291.583 565.545 289.85C566.521 287.751 567.933 285.883 569.685 284.37C570.667 283.551 571.775 282.896 572.965 282.43C574.276 281.996 575.611 281.642 576.965 281.37C578.393 281.06 579.751 280.483 580.965 279.67C582.187 278.76 583.292 277.702 584.255 276.52C585.255 275.35 586.255 274.11 587.325 273C588.427 271.859 589.733 270.933 591.175 270.27C594.078 269.043 597.204 268.434 600.355 268.48C603.297 268.436 606.239 268.61 609.155 269C614.104 269.621 618.915 271.057 623.395 273.25C626.407 274.748 629.165 276.713 631.565 279.07C631.975 279.5 632.355 279.86 632.665 280.2L633.415 281.09L633.885 281.63C633.985 281.75 634.045 281.81 634.055 281.8C634.012 281.731 633.966 281.664 633.915 281.6L633.475 281.04L632.755 280.13C632.455 279.78 632.075 279.4 631.665 278.97C629.296 276.54 626.547 274.514 623.525 272.97C619.03 270.723 614.189 269.249 609.205 268.61C606.269 268.207 603.308 268.027 600.345 268.07C597.14 268.016 593.958 268.632 591.005 269.88C589.508 270.558 588.151 271.512 587.005 272.69C585.865 273.83 584.905 275.07 583.915 276.23C582.978 277.392 581.899 278.434 580.705 279.33C579.552 280.122 578.259 280.689 576.895 281C575.542 281.286 574.206 281.65 572.895 282.09C571.671 282.571 570.534 283.247 569.525 284.09C567.747 285.633 566.324 287.544 565.355 289.69C564.554 291.45 563.97 293.3 563.615 295.2C563.285 296.87 563.105 298.32 562.985 299.51C562.865 300.7 562.795 301.62 562.755 302.25C562.755 302.54 562.755 302.78 562.755 302.96C562.72 303.049 562.703 303.144 562.705 303.24Z" fill="#263238"/>
<path d="M618.025 356.13C617.973 355.278 617.69 354.456 617.208 353.751C616.725 353.047 616.061 352.487 615.285 352.13C614.496 351.798 613.625 351.715 612.788 351.894C611.951 352.073 611.189 352.504 610.605 353.13C610.084 353.753 609.78 354.529 609.736 355.34C609.693 356.151 609.914 356.955 610.365 357.63C610.793 358.331 611.424 358.886 612.175 359.22C613.138 359.637 614.205 359.753 615.235 359.55C616.096 359.431 616.884 359.005 617.455 358.35C617.903 357.701 618.106 356.914 618.025 356.13Z" fill="#5B342F"/>
<path d="M616.425 350C615.945 350 616.205 353.18 613.675 355.65C611.145 358.12 607.755 358.05 607.765 358.5C607.765 358.7 608.565 359.05 609.995 358.97C611.853 358.845 613.607 358.065 614.945 356.77C616.232 355.53 616.986 353.837 617.045 352.05C617.055 350.69 616.635 349.93 616.425 350Z" fill="#263238"/>
<path d="M671.745 402.53L647.165 393.21C647.165 393.21 628.225 404.47 613.615 402.13C602.305 400.32 601.375 394.51 601.375 394.51L587.755 396.7C587.755 396.7 567.135 413.84 562.825 431.27C560.285 441.56 559.665 455.03 559.665 466.85C559.665 471.58 565.665 490.29 565.665 490.29L567.995 517.37L556.605 562.49H675.495V437.64L671.745 402.53Z" fill="#E38631"/>
<path d="M538.715 477.01L521.455 433.79L570.985 399.28L587.755 396.7L583.395 457.87L538.715 477.01Z" fill="#E38631"/>
<path d="M564.575 485.22C564.458 485.027 564.354 484.827 564.265 484.62C564.085 484.21 563.785 483.62 563.475 482.85C562.579 480.646 561.844 478.38 561.275 476.07C559.466 468.416 558.949 460.514 559.745 452.69C560.557 444.896 561.998 437.181 564.055 429.62C564.805 426.71 565.455 424.37 565.915 422.75L566.455 420.89C566.51 420.674 566.584 420.463 566.675 420.26C566.662 420.484 566.622 420.706 566.555 420.92C566.445 421.4 566.295 422.03 566.105 422.8C565.695 424.49 565.105 426.8 564.415 429.7C562.472 437.255 561.085 444.942 560.265 452.7C559.475 460.49 559.934 468.355 561.625 476C562.148 478.3 562.816 480.564 563.625 482.78C563.905 483.58 564.175 484.17 564.325 484.59C564.431 484.79 564.515 485.002 564.575 485.22Z" fill="#263238"/>
<g opacity="0.3">
<path d="M558.895 461.31L559.985 460.54C559.931 447.131 562.107 433.805 566.425 421.11C558.415 433 554.995 448 558.895 461.31Z" fill="black"/>
</g>
<path opacity="0.3" d="M593.005 455.34C593.005 455.34 610.005 518.45 619.555 530.02C629.105 541.59 634.245 545.02 648.905 546.21C663.565 547.4 668.985 530.43 672.245 523.82C675.505 517.21 674.895 507.29 674.895 507.29L654.895 496.13L639.095 522.13L598.395 454.18L593.005 455.34Z" fill="black"/>
<path d="M595.675 463.56C595.675 463.56 613.045 503.95 625.485 527.12C636.035 546.73 657.485 544.55 664.355 533.64C671.225 522.73 682.595 490.07 682.595 490.07L646.325 483.7L642.325 495.19L614.825 460.13L595.675 463.56Z" fill="#824E44"/>
<path d="M625.345 457.74L622.675 445.65C622.675 445.65 621.455 442.31 619.475 445.26C617.495 448.21 618.405 453.77 618.405 453.77C618.405 453.77 614.655 425.04 611.345 421.91C610.145 420.77 608.485 422.34 608.485 422.34C608.485 422.34 608.105 416.72 606.345 416.75C604.585 416.78 602.895 421 602.895 421C602.242 420.667 601.493 420.574 600.779 420.737C600.064 420.899 599.43 421.307 598.985 421.89C597.445 423.76 597.435 439.38 597.435 439.38C597.435 439.38 595.965 426.51 593.665 425.7C589.975 424.4 589.975 429.3 589.975 429.3L591.065 446C591.065 446 593.065 457.43 595.625 464.62C598.185 471.81 599.625 471.88 599.625 471.88L616.185 471.44C616.185 471.44 619.915 468.03 622.865 465.38C623.915 464.438 624.698 463.236 625.133 461.894C625.569 460.552 625.642 459.119 625.345 457.74Z" fill="#824E44"/>
<path d="M653.445 511.48C653.329 511.325 653.231 511.158 653.155 510.98L652.455 509.5C652.085 508.87 651.655 508.12 651.165 507.26C650.675 506.4 649.995 505.45 649.305 504.39C646.445 500.19 642.115 494.66 637.185 488.67C632.255 482.68 627.705 477.31 624.515 473.35C622.915 471.35 621.655 469.74 620.805 468.59C620.415 468.05 620.105 467.59 619.855 467.25C619.735 467.099 619.635 466.935 619.555 466.76C619.703 466.886 619.834 467.03 619.945 467.19L620.945 468.47C621.835 469.57 623.145 471.17 624.775 473.11C628.035 477.02 632.625 482.34 637.565 488.34C642.505 494.34 646.795 499.92 649.565 504.18C650.235 505.27 650.855 506.24 651.365 507.12C651.875 508 652.265 508.78 652.585 509.41L653.205 510.94C653.303 511.111 653.383 511.292 653.445 511.48Z" fill="#5B342F"/>
<path d="M667.665 401.45C667.665 401.45 687.465 405.5 692.445 427.91C697.025 448.52 695.605 492.36 695.605 492.36L641.685 482.87L654.805 408L667.665 401.45Z" fill="#E38631"/>
<path d="M649.335 437.21C649.35 437.289 649.35 437.371 649.335 437.45C649.335 437.64 649.335 437.86 649.245 438.14C649.145 438.79 649.015 439.67 648.845 440.79C648.475 443.14 647.945 446.46 647.295 450.55C645.925 458.83 644.045 470.23 641.955 482.91L641.745 482.62L643.505 482.93L676.975 488.93L687.105 490.82L689.855 491.36L690.565 491.51L690.805 491.58C690.722 491.596 690.638 491.596 690.555 491.58L689.835 491.47L687.065 491.03L676.895 489.33L643.405 483.44L641.645 483.13L641.385 483.08V482.83L646.895 450.49C647.605 446.41 648.195 443.1 648.605 440.76C648.815 439.65 648.975 438.76 649.095 438.13C649.155 437.85 649.195 437.63 649.235 437.44C649.262 437.361 649.296 437.284 649.335 437.21Z" fill="#263238"/>
<path d="M652.365 430C652.452 429.559 652.589 429.129 652.775 428.72C653.075 427.9 653.515 426.72 654.125 425.3C655.617 421.507 657.816 418.032 660.605 415.06C662.203 413.468 664.068 412.168 666.115 411.22C667.78 410.452 669.533 409.891 671.335 409.55C672.545 409.317 673.773 409.19 675.005 409.17C675.456 409.138 675.91 409.162 676.355 409.24C676.355 409.35 674.425 409.24 671.355 409.91C667.423 410.718 663.805 412.634 660.925 415.43C658.187 418.357 655.984 421.742 654.415 425.43C653.815 426.77 653.305 427.89 652.915 428.77C652.767 429.195 652.583 429.607 652.365 430Z" fill="#263238"/>
<path d="M602.605 441.88C602.428 440.873 602.337 439.853 602.335 438.83C602.235 436.93 602.125 434.32 602.115 431.42C602.089 428.947 602.189 426.473 602.415 424.01C602.47 422.995 602.637 421.988 602.915 421.01C602.929 422.032 602.885 423.053 602.785 424.07C602.675 425.96 602.625 428.57 602.635 431.45C602.645 434.33 602.635 436.79 602.705 438.85C602.76 439.861 602.727 440.875 602.605 441.88Z" fill="#5B342F"/>
<path d="M608.075 422.54C608.21 423.363 608.263 424.197 608.235 425.03C608.235 426.58 608.345 428.7 608.465 431.03C608.585 433.36 608.745 435.5 608.855 437.03C608.964 437.859 608.997 438.695 608.955 439.53C608.704 438.731 608.547 437.905 608.485 437.07C608.285 435.54 608.065 433.41 607.945 431.07C607.825 428.73 607.815 426.57 607.865 425.02C607.84 424.188 607.911 423.356 608.075 422.54Z" fill="#5B342F"/>
<path d="M235.895 306.69C234.555 297.79 232.355 288.06 226.475 281.24C222.512 276.471 217.78 272.399 212.475 269.19C206.545 265.6 201.305 264.42 194.925 263.74L190.755 267.45C204.125 270.68 215.755 279.97 222.575 291.91C229.395 303.85 231.575 318.23 229.335 331.81C227.875 340.7 224.645 349.18 222.195 357.81C219.745 366.44 218.045 375.62 219.745 384.47C227.095 381.61 225.015 386.47 228.115 379.19C231.215 371.91 232.825 355.99 234.635 348.31C237.675 335.7 237.755 318.89 235.895 306.69Z" fill="#E38631"/>
<path d="M228.725 286.87C217.455 269.36 191.155 264 191.155 264C152.655 261.25 145.775 290.83 141.895 317.78C139.475 334.54 148.365 386.88 148.365 386.88L157.795 390.29H219.795C219.795 389.16 224.175 379.67 225.255 376.58C230.895 348.51 235.355 297.17 228.725 286.87Z" fill="#263238"/>
<path d="M196.635 274L194.225 271.7L168.225 282.19C166.415 282.293 164.709 283.068 163.441 284.363C162.172 285.657 161.432 287.379 161.365 289.19L161.565 374C161.565 379.75 162.685 384.73 166.155 389.32L169.815 394.14C178.145 405.14 195.295 404.24 201.895 392.14C202.295 391.449 202.604 390.71 202.815 389.94C202.977 389.317 203.107 388.686 203.205 388.05C203.975 381.22 204.025 375.31 204.025 375.31C204.485 367.81 204.635 364.74 204.635 364.81C204.635 364.88 220.585 363 224.895 342.53C227.035 332.35 226.635 318.35 226.025 304.53C225.195 285.5 211.965 274 196.635 274Z" fill="#FFBF9D"/>
<path d="M204.635 364.83C194.914 364.491 185.477 361.462 177.375 356.08C177.375 356.08 183.615 370.7 204.375 369.81L204.635 364.83Z" fill="#FF9A6C"/>
<path d="M202.815 337.84C202.307 337.131 201.626 336.563 200.836 336.19C200.047 335.817 199.176 335.652 198.305 335.71C197.674 335.734 197.055 335.886 196.485 336.156C195.914 336.426 195.404 336.808 194.985 337.28C194.585 337.738 194.334 338.306 194.265 338.909C194.195 339.513 194.31 340.123 194.595 340.66C195.025 341.195 195.606 341.588 196.262 341.79C196.918 341.991 197.619 341.991 198.275 341.79C199.645 341.379 200.92 340.699 202.025 339.79C202.36 339.58 202.651 339.309 202.885 338.99C202.984 338.831 203.037 338.647 203.037 338.46C203.037 338.273 202.984 338.089 202.885 337.93" fill="#FF9A6C"/>
<path d="M195.895 332.59C196.355 332.59 196.205 335.68 198.745 338C201.285 340.32 204.585 340.16 204.585 340.59C204.585 340.78 203.825 341.15 202.435 341.12C200.62 341.051 198.888 340.342 197.545 339.12C196.254 337.952 195.469 336.327 195.355 334.59C195.295 333.31 195.675 332.56 195.895 332.59Z" fill="#263238"/>
<path d="M161.895 325.42C161.895 325.42 176.435 330 184.685 294C187.515 281.67 198.895 271.7 198.895 271.7L194.275 270.31C194.275 270.31 165.515 278.41 165.035 278.77C164.555 279.13 157.775 293.64 157.775 293.64L161.895 325.42Z" fill="#263238"/>
<path d="M165.445 324.08C165.525 322.55 163.925 318.83 162.445 318.52C158.445 317.69 151.105 317.65 150.515 327.93C149.725 341.99 164.005 339.93 164.055 339.49C164.105 339.05 165.195 329.39 165.445 324.08Z" fill="#FFBF9D"/>
<path d="M160.035 333.92C159.975 333.92 159.785 334.08 159.355 334.24C158.761 334.459 158.104 334.438 157.525 334.18C156.075 333.55 154.955 331.12 155.025 328.58C155.062 327.372 155.366 326.187 155.915 325.11C156.077 324.673 156.344 324.283 156.693 323.974C157.042 323.665 157.462 323.448 157.915 323.34C158.201 323.283 158.497 323.326 158.754 323.463C159.011 323.6 159.213 323.821 159.325 324.09C159.485 324.49 159.385 324.77 159.455 324.8C159.525 324.83 159.765 324.58 159.685 323.99C159.63 323.637 159.453 323.315 159.185 323.08C158.816 322.767 158.338 322.613 157.855 322.65C157.275 322.727 156.724 322.951 156.255 323.301C155.786 323.651 155.414 324.116 155.175 324.65C154.5 325.831 154.129 327.16 154.095 328.52C154.025 331.36 155.325 334.09 157.325 334.8C157.696 334.931 158.092 334.976 158.484 334.933C158.875 334.89 159.251 334.759 159.585 334.55C159.995 334.26 160.085 334 160.035 333.92Z" fill="#FF9A6C"/>
<path d="M171.745 318.54C172.455 318.432 173.159 318.289 173.855 318.11C175.723 317.542 177.434 316.549 178.855 315.21C179.841 314.292 180.72 313.265 181.475 312.15C182.315 310.839 183.025 309.449 183.595 308C184.801 304.654 185.803 301.237 186.595 297.77C187.595 294.11 188.655 290.64 189.825 287.56C190.848 284.825 192.074 282.171 193.495 279.62C194.45 277.899 195.526 276.248 196.715 274.68C197.125 274.12 197.485 273.68 197.715 273.43C197.823 273.28 197.947 273.143 198.085 273.02C197.994 273.184 197.887 273.338 197.765 273.48C197.555 273.78 197.215 274.2 196.815 274.77C195.683 276.373 194.647 278.043 193.715 279.77C192.337 282.328 191.143 284.981 190.145 287.71C188.985 290.78 187.935 294.23 186.945 297.89C186.15 301.379 185.132 304.812 183.895 308.17C183.309 309.625 182.575 311.015 181.705 312.32C180.94 313.454 180.036 314.489 179.015 315.4C177.555 316.748 175.792 317.726 173.875 318.25C173.182 318.444 172.465 318.541 171.745 318.54Z" fill="#263238"/>
<path d="M149.985 377.18C150.205 375.553 150.309 373.912 150.295 372.27C150.224 367.784 149.756 363.313 148.895 358.91L147.255 349.79C146.626 346.305 146.206 342.785 145.995 339.25C145.77 335.347 146.073 331.432 146.895 327.61C147.359 325.603 148.029 323.649 148.895 321.78C149.797 319.857 150.914 318.042 152.225 316.37C154.886 313.123 157.853 310.139 161.085 307.46C164.165 304.79 167.085 302.17 169.735 299.46C174.409 294.727 178.643 289.579 182.385 284.08C184.908 280.377 187.196 276.52 189.235 272.53C189.955 271.12 190.485 270.01 190.825 269.25L191.215 268.38C191.265 268.283 191.308 268.183 191.345 268.08C191.284 268.172 191.231 268.269 191.185 268.37C191.075 268.57 190.935 268.85 190.755 269.21C190.395 269.97 189.835 271.06 189.095 272.46C187.003 276.444 184.672 280.297 182.115 284C178.356 289.461 174.116 294.575 169.445 299.28C166.825 301.95 163.875 304.55 160.795 307.22C157.534 309.921 154.547 312.935 151.875 316.22C150.549 317.91 149.418 319.745 148.505 321.69C147.637 323.589 146.966 325.573 146.505 327.61C145.692 331.467 145.412 335.417 145.675 339.35C145.892 342.897 146.326 346.427 146.975 349.92C147.575 353.2 148.145 356.25 148.655 359.04C149.524 363.427 150.023 367.879 150.145 372.35C150.145 373.93 150.145 375.16 150.055 375.99C150.055 376.39 150.055 376.71 149.985 376.94C149.978 377.02 149.978 377.1 149.985 377.18Z" fill="#455A64"/>
<path d="M145.455 378.5C145.676 376.873 145.779 375.232 145.765 373.59C145.704 369.105 145.248 364.635 144.405 360.23L142.765 351.11C142.131 347.626 141.71 344.106 141.505 340.57C141.258 336.673 141.544 332.76 142.355 328.94C142.813 326.928 143.483 324.97 144.355 323.1C145.254 321.178 146.371 319.366 147.685 317.7C150.337 314.445 153.301 311.458 156.535 308.78C159.615 306.11 162.535 303.49 165.195 300.78C169.869 296.046 174.1 290.895 177.835 285.39C180.361 281.693 182.649 277.838 184.685 273.85C185.405 272.43 185.945 271.32 186.285 270.56C186.445 270.19 186.575 269.91 186.675 269.7C186.721 269.602 186.761 269.502 186.795 269.4C186.795 269.4 186.735 269.49 186.635 269.68L186.215 270.53C185.845 271.28 185.295 272.38 184.555 273.78C182.446 277.733 180.109 281.559 177.555 285.24C173.804 290.713 169.567 295.837 164.895 300.55C162.275 303.22 159.335 305.82 156.245 308.49C152.992 311.196 150.008 314.21 147.335 317.49C146.005 319.181 144.875 321.02 143.965 322.97C143.092 324.864 142.422 326.845 141.965 328.88C141.153 332.737 140.871 336.687 141.125 340.62C141.342 344.17 141.776 347.703 142.425 351.2C143.035 354.47 143.595 357.52 144.115 360.31C144.982 364.697 145.477 369.15 145.595 373.62C145.595 375.2 145.595 376.43 145.505 377.26L145.445 378.21C145.441 378.307 145.444 378.404 145.455 378.5Z" fill="#455A64"/>
<path d="M125.125 562.37C125.125 562.37 123.805 550.66 131.295 531.11C137.425 515.11 144.625 506.24 144.625 506.24L241.625 499.85L249.095 562.37H125.125Z" fill="#263238"/>
<path d="M240.485 463.49C241.905 441.9 240.485 409.17 240.485 409.17L224.485 382.3L203.375 379C203.375 379 203.375 393.76 192.285 396.2C173.425 400.37 161.125 377.68 161.125 377.68C159.345 377.68 132.495 383.32 123.985 391.42C115.245 399.74 100.775 421.81 96.695 428.13C96.695 428.13 68.425 469.4 64.285 480.72C63.1591 483.603 62.6993 486.703 62.94 489.789C63.1807 492.875 64.1157 495.866 65.675 498.54C66.535 501.09 92.675 538.61 112.935 553.6L114.515 550.6L125.035 532.6L97.805 487.85L129.385 454.58L135.595 448.75L137.375 456.6L145.045 493.53C145.045 493.53 129.775 524 127.645 539.89C127.645 539.89 202.645 565.75 248.965 552.98C248.965 553 239.065 485.09 240.485 463.49Z" fill="#EBEBEB"/>
<path d="M161.575 524.49C161.575 524.49 148.875 521.06 147.575 521.78C146.275 522.5 136.895 527.5 136.895 527.5C135.513 529.216 134.017 530.837 132.415 532.35C132.415 532.35 129.165 535.44 126.915 535.54C125.712 535.627 124.503 535.498 123.345 535.16L114.565 550.61C114.565 550.61 119.775 555.61 122.565 555.53C125.355 555.45 140.545 549 140.545 549L144.245 548.2C144.245 548.2 158.125 550.2 159.245 546.03L159.375 544.84L145.735 542.17L140.545 542.47L149.745 540.1C149.745 540.1 162.745 540.73 163.965 540.52C165.185 540.31 166.755 538.58 166.355 537.52L163.665 536.89C163.665 536.89 166.815 535.17 166.915 533.29L154.915 530.04C154.915 530.04 162.665 527.18 161.575 524.49Z" fill="#FFBF9D"/>
<path d="M165.105 536.87C164.729 536.825 164.359 536.734 164.005 536.6C163.305 536.39 162.285 536.11 161.005 535.79C158.485 535.13 155.005 534.3 151.095 533.44C150.631 533.321 150.16 533.231 149.685 533.17C149.236 533.129 148.784 533.16 148.345 533.26C147.485 533.5 146.605 533.8 145.795 534.07C144.165 534.63 142.725 535.18 141.525 535.7C140.325 536.22 139.405 536.7 138.765 537.04C138.448 537.251 138.113 537.435 137.765 537.59C138.011 537.294 138.309 537.047 138.645 536.86C139.507 536.28 140.413 535.768 141.355 535.33C142.743 534.672 144.165 534.088 145.615 533.58C146.435 533.29 147.265 532.99 148.215 532.72C148.705 532.6 149.212 532.559 149.715 532.6C150.217 532.669 150.714 532.766 151.205 532.89C155.095 533.75 158.595 534.64 161.105 535.4C162.355 535.78 163.365 536.12 164.045 536.4C164.419 536.504 164.776 536.663 165.105 536.87Z" fill="#FF9A6C"/>
<path d="M155.205 530.66C155.205 530.74 154.205 530.22 152.645 529.72C150.57 529.073 148.375 528.902 146.225 529.221C144.074 529.539 142.024 530.339 140.225 531.56C138.835 532.49 138.105 533.26 138.035 533.19C138.559 532.394 139.239 531.714 140.035 531.19C141.838 529.828 143.954 528.942 146.189 528.612C148.424 528.281 150.706 528.518 152.825 529.3C153.703 529.585 154.514 530.048 155.205 530.66Z" fill="#FF9A6C"/>
<path d="M305.665 434.09L256.165 397.24L237.675 385.07L224.025 382.3L229.825 440.01H242.645L297.835 464L365.445 469.74L366.445 448.78L305.665 434.09Z" fill="#EBEBEB"/>
<path d="M241.385 488.79C241.338 488.506 241.314 488.218 241.315 487.93C241.315 487.33 241.255 486.51 241.205 485.48C241.125 483.34 241.035 480.26 240.965 476.48C240.895 472.7 240.895 468.08 240.895 463C240.895 457.92 240.895 452.4 240.895 446.59C240.895 434.93 238.685 424.59 236.955 417.14C236.075 413.42 235.315 410.43 234.805 408.36C234.565 407.36 234.365 406.56 234.225 405.97C234.144 405.696 234.087 405.414 234.055 405.13C234.171 405.391 234.261 405.662 234.325 405.94C234.495 406.53 234.715 407.32 235.005 408.31C235.575 410.36 236.385 413.31 237.315 417.05C239.861 426.693 241.238 436.608 241.415 446.58C241.505 452.41 241.415 457.95 241.415 463C241.415 468.05 241.415 472.59 241.415 476.4C241.415 480.21 241.475 483.26 241.495 485.4V487.86C241.489 488.173 241.452 488.484 241.385 488.79Z" fill="#263238"/>
<g opacity="0.3">
<path d="M241.065 441.1C243.068 433.603 243.145 425.721 241.288 418.187C239.432 410.652 235.702 403.708 230.445 398C236.059 411.477 239.68 425.699 241.195 440.22" fill="black"/>
</g>
<path d="M200.265 264.41C169.265 267.19 168.045 305.08 163.925 334.97C158.035 377.67 189.285 386.84 189.285 386.84L150.465 379.57C150.465 379.57 129.235 371 129.395 347.4C129.555 323.8 133.245 295 157.955 273.06C179.295 254.13 198.305 263.12 200.265 264.41Z" fill="#E38631"/>
<path d="M230.445 377.67C228.105 375.56 229.015 374.74 222.305 374.13C214.745 373.43 206.305 378.28 198.755 379.28C191.205 380.28 183.185 379.28 176.855 375.06C169.445 370.12 165.405 361.6 161.705 353.5L143.505 368.5C141.746 369.921 140.338 371.728 139.391 373.782C138.444 375.835 137.983 378.079 138.045 380.34C138.012 381.113 138.159 381.883 138.475 382.59C139.535 384.19 147.345 380.41 148.925 381.51C157.255 387.35 160.815 396.61 168.445 403.33C177.375 411.19 185.645 417.42 191.925 417.2C198.205 416.98 209.825 410.33 213.995 402.61C217.835 395.48 221.205 390.28 224.225 384.84C225.815 381.96 231.365 386.01 232.035 382.59C232.211 381.702 232.158 380.784 231.879 379.923C231.601 379.062 231.107 378.287 230.445 377.67Z" fill="#E38631"/>
<path d="M129.385 422.19C129.486 422.418 129.564 422.656 129.615 422.9C129.755 423.42 129.935 424.1 130.155 424.96C130.615 426.81 131.255 429.39 132.035 432.56C133.595 439 135.685 447.87 137.895 457.71C140.105 467.55 142.005 476.48 143.275 482.97C143.905 486.22 144.375 488.85 144.675 490.68C144.795 491.55 144.895 492.25 144.975 492.79C145.015 493.035 145.038 493.282 145.045 493.53C144.962 493.293 144.901 493.049 144.865 492.8C144.765 492.27 144.635 491.58 144.475 490.71L142.895 483.05C141.535 476.58 139.575 467.66 137.365 457.82L131.665 432.64C130.945 429.46 130.365 426.86 129.945 425C129.755 424.14 129.605 423.45 129.495 422.92C129.442 422.679 129.405 422.436 129.385 422.19Z" fill="#263238"/>
<path d="M230.445 381.59L230.245 381.72L229.615 382.08C228.822 382.554 228.004 382.984 227.165 383.37C224.084 384.807 220.85 385.891 217.525 386.6C212.592 387.651 207.568 388.22 202.525 388.3C196.845 388.47 190.595 388.18 184.065 387.75C180.795 387.54 177.605 387.22 174.545 386.75C171.485 386.28 168.545 385.64 165.805 384.94C160.925 383.681 156.182 381.943 151.645 379.75C148.593 378.279 145.666 376.56 142.895 374.61C141.895 373.95 141.175 373.34 140.675 372.97L140.105 372.52C140.038 372.471 139.978 372.414 139.925 372.35L140.135 372.48L140.735 372.88C141.265 373.23 141.995 373.81 143.005 374.45C145.818 376.331 148.766 378.002 151.825 379.45C156.347 381.563 161.058 383.247 165.895 384.48C168.645 385.16 171.555 385.77 174.595 386.24C177.635 386.71 180.805 387.02 184.065 387.24C190.595 387.67 196.825 387.98 202.485 387.83C207.497 387.775 212.493 387.246 217.405 386.25C220.718 385.575 223.949 384.549 227.045 383.19C228.155 382.76 228.945 382.26 229.525 382L230.175 381.69C230.365 381.61 230.435 381.58 230.445 381.59Z" fill="#263238"/>
<path d="M170.965 385.65C170.965 385.65 170.895 385.65 170.765 385.53L170.215 385.13L168.125 383.57C167.225 382.89 166.125 381.99 164.925 380.97C164.305 380.46 163.665 379.87 162.985 379.27C162.305 378.67 161.585 378.02 160.865 377.27C157.406 374.004 154.381 370.307 151.865 366.27C148.776 361.276 147.033 355.568 146.805 349.7C146.744 343.862 147.539 338.047 149.165 332.44C150.535 327.26 152.035 322.68 153.235 318.82C154.435 314.96 155.385 311.82 156.075 309.67C156.395 308.62 156.645 307.79 156.825 307.17C156.915 306.91 156.985 306.7 157.035 306.53C157.053 306.452 157.083 306.378 157.125 306.31C157.125 306.31 157.125 306.39 157.125 306.54L156.965 307.2L156.305 309.72C155.705 311.9 154.805 315.05 153.625 318.92C152.445 322.79 151.015 327.39 149.625 332.56C148.031 338.125 147.253 343.892 147.315 349.68C147.542 355.463 149.246 361.092 152.265 366.03C154.756 370.052 157.739 373.747 161.145 377.03C161.855 377.75 162.545 378.41 163.225 379.03C163.905 379.65 164.525 380.23 165.135 380.75C166.355 381.75 167.395 382.7 168.275 383.41L170.275 385.05L170.795 385.49C170.859 385.535 170.916 385.589 170.965 385.65Z" fill="#263238"/>
<path d="M200.265 264.41C200.265 264.52 198.645 264.6 196.155 265.32C194.691 265.761 193.266 266.323 191.895 267C190.23 267.828 188.626 268.774 187.095 269.83C184.336 271.791 181.761 274 179.405 276.43C177.575 278.28 176.515 279.49 176.405 279.43C176.589 279.097 176.814 278.788 177.075 278.51C177.525 277.93 178.205 277.12 179.075 276.16C181.381 273.634 183.952 271.364 186.745 269.39C188.297 268.323 189.928 267.377 191.625 266.56C193.022 265.905 194.479 265.386 195.975 265.01C196.542 264.849 197.121 264.729 197.705 264.65C198.143 264.558 198.588 264.501 199.035 264.48C199.441 264.411 199.854 264.387 200.265 264.41Z" fill="#263238"/>
<g opacity="0.3">
<path d="M160.645 296.8C160.889 295.858 161.083 294.903 161.225 293.94C161.26 293.567 161.16 293.193 160.943 292.888C160.725 292.583 160.405 292.366 160.041 292.277C159.677 292.189 159.293 292.234 158.959 292.405C158.626 292.577 158.365 292.862 158.225 293.21C156.185 298.637 154.138 304.063 152.085 309.49C148.085 320.22 143.945 331.22 143.725 342.68C143.505 354.14 147.165 366.91 156.895 373L154.075 368C146.765 358 146.555 344.32 149.355 332.23C152.155 320.14 157.545 308.81 160.645 296.8Z" fill="black"/>
</g>
<path d="M230.995 384.34C231.171 383.905 231.325 383.461 231.455 383.01C231.734 381.773 231.622 380.481 231.135 379.31C230.39 377.586 229.017 376.21 227.295 375.46C225.18 374.535 222.857 374.19 220.565 374.46C218.252 374.702 215.957 375.096 213.695 375.64C211.595 376.12 209.695 376.64 208.175 377.11C206.655 377.58 205.365 378 204.505 378.29C204.062 378.462 203.608 378.602 203.145 378.71C203.552 378.461 203.984 378.257 204.435 378.1C205.275 377.75 206.505 377.28 208.065 376.76C209.625 376.24 211.485 375.68 213.585 375.17C215.865 374.59 218.185 374.179 220.525 373.94C222.915 373.666 225.334 374.046 227.525 375.04C229.35 375.846 230.786 377.336 231.525 379.19C232.01 380.428 232.073 381.792 231.705 383.07C231.6 383.419 231.456 383.754 231.275 384.07C231.095 384.25 231.015 384.35 230.995 384.34Z" fill="#263238"/>
<g opacity="0.3">
<path d="M220.695 386.16C208.776 391.455 195.633 393.382 182.695 391.73C169.825 390.06 159.105 386.34 149.005 378.2C149.005 378.2 165.115 387.5 190.125 387.7C210.895 387.87 220.695 386.16 220.695 386.16Z" fill="black"/>
</g>
</g>
<defs>
<filter id="filter0_f_0_1" x="0" y="0" width="809" height="652" filterUnits="userSpaceOnUse" color-interpolation-filters="sRGB">
<feFlood flood-opacity="0" result="BackgroundImageFix"/>
<feBlend mode="normal" in="SourceGraphic" in2="BackgroundImageFix" result="shape"/>
<feGaussianBlur stdDeviation="59" result="effect1_foregroundBlur_0_1"/>
</filter>
<clipPath id="clip0_0_1">
<rect width="642.21" height="450.12" fill="white" transform="translate(62.895 113)"/>
</clipPath>
</defs>
</svg>
